<svg width="32" height="32" viewBox="0 0 32 32" fill="none" xmlns="http://www.w3.org/2000/svg">
<circle cx="16" cy="16" r="16" fill="#F4F6F9"/>
<path d="M9.50315 20.8172C8.40656 19.7206 8.40656 17.9363 9.50315 16.8397L16.1765 10.1664C17.6386 8.70424 20.0177 8.70424 21.4798 10.1664C22.9419 11.6285 22.9419 14.0075 21.4798 15.4697L14.8065 22.143L14.1435 21.4801L20.8169 14.8067C21.9135 13.7102 21.9135 11.9259 20.8169 10.8293C19.7203 9.73268 17.936 9.73268 16.8394 10.8293L10.1661 17.5026C9.43501 18.2337 9.43501 19.4232 10.1661 20.1542C10.8971 20.8853 12.0867 20.8853 12.8177 20.1542L18.1652 14.8067C18.5307 14.4412 18.5307 13.8465 18.1652 13.4809C17.7997 13.1154 17.2049 13.1154 16.8394 13.4809L11.4919 18.8284L10.829 18.1655L16.1765 12.818C16.9075 12.087 18.0971 12.087 18.8281 12.818C19.5592 13.5491 19.5592 14.7386 18.8281 15.4697L13.4806 20.8172C12.384 21.9137 10.5997 21.9137 9.50315 20.8172Z" fill="#38424D"/>
</svg>
