<svg width="2740" height="578" viewBox="0 0 2740 578" fill="none" xmlns="http://www.w3.org/2000/svg">
<path d="M2 382.102C155.34 319.914 242.981 152.803 390.185 77.2075C504.272 18.6185 649.43 24.5698 757.098 94.2823C837.855 146.561 893.983 228.421 948.134 307.981C1002.28 387.541 1058.88 469.187 1140.13 520.694C1221.38 572.193 1334.49 586.021 1411.02 527.73C1464.59 486.919 1491.27 417.038 1489.8 349.678C1488.9 308.806 1467.85 258.995 1427.01 258.812C1394.8 258.682 1371.63 291.387 1364.95 322.932C1344.33 420.445 1427.49 512.985 1520.05 549.71C1574.22 571.208 1634.14 580.146 1691.43 569.519C1772.69 554.461 1843.44 500.747 1891.47 433.433C1939.5 366.104 1966.75 285.978 1983.99 205.066C1992.12 166.852 1998.14 126.98 1989.14 88.9651C1980.15 50.9422 1953.01 14.9514 1915 6.05874C1868.88 -4.72856 1820.97 28.3209 1801.25 71.4395C1781.55 114.551 1784.36 164.545 1793.06 211.147C1810.89 306.468 1853.91 399.749 1927.59 462.716C2001.28 525.675 2108.31 553.468 2198.74 518.669C2291.54 482.954 2354.74 389.818 2449.69 360.344C2571.59 322.504 2677.93 409.956 2736 509.486" stroke="white" stroke-width="7"/>
</svg>
