<svg width="16" height="16" viewBox="0 0 16 16" fill="none" xmlns="http://www.w3.org/2000/svg">
<rect x="1" y="2" width="14" height="4" fill="#0070D7" fill-opacity="0.3"/>
<path fill-rule="evenodd" clip-rule="evenodd" d="M1.83337 16.0001H14.1666C15.178 16.0001 16 15.1781 16 14.1667V3.16675C16 2.1554 15.178 1.3335 14.1666 1.3335H1.83337C0.822021 1.3335 0 2.1554 0 3.16675V14.1667C0 15.1781 0.822021 16.0001 1.83337 16.0001ZM1 3.16675C1 2.7074 1.37402 2.3335 1.83337 2.3335H14.1666C14.626 2.3335 15 2.7074 15 3.16675V14.1667C15 14.6261 14.626 15.0001 14.1666 15.0001H1.83337C1.37402 15.0001 1 14.6261 1 14.1667V3.16675Z" fill="#0070D7"/>
<path d="M15.5 6.3335H0.5C0.223999 6.3335 0 6.1095 0 5.8335C0 5.5575 0.223999 5.3335 0.5 5.3335H15.5C15.776 5.3335 16 5.5575 16 5.8335C16 6.1095 15.776 6.3335 15.5 6.3335Z" fill="#0070D7"/>
<path d="M3.8335 4C3.5575 4 3.3335 3.776 3.3335 3.5V0.5C3.3335 0.223999 3.5575 0 3.8335 0C4.1095 0 4.3335 0.223999 4.3335 0.5V3.5C4.3335 3.776 4.1095 4 3.8335 4Z" fill="#0070D7"/>
<path d="M12.1665 4C11.8905 4 11.6665 3.776 11.6665 3.5V0.5C11.6665 0.223999 11.8905 0 12.1665 0C12.4425 0 12.6665 0.223999 12.6665 0.5V3.5C12.6665 3.776 12.4425 4 12.1665 4Z" fill="#0070D7"/>
</svg>
