<svg width="32" height="33" viewBox="0 0 32 33" fill="none" xmlns="http://www.w3.org/2000/svg">
<circle cx="16" cy="16.5" r="16" fill="#FFF1DB"/>
<path fill-rule="evenodd" clip-rule="evenodd" d="M9.83337 24H22.1666C23.178 24 24 23.178 24 22.1666V11.1666C24 10.1553 23.178 9.33337 22.1666 9.33337H9.83337C8.82202 9.33337 8 10.1553 8 11.1666V22.1666C8 23.178 8.82202 24 9.83337 24ZM9 11.1666C9 10.7073 9.37402 10.3334 9.83337 10.3334H22.1666C22.626 10.3334 23 10.7073 23 11.1666V22.1666C23 22.626 22.626 23 22.1666 23H9.83337C9.37402 23 9 22.626 9 22.1666V11.1666Z" fill="#FF9F00"/>
<path d="M23.5 14.3334H8.5C8.224 14.3334 8 14.1094 8 13.8334C8 13.5574 8.224 13.3334 8.5 13.3334H23.5C23.776 13.3334 24 13.5574 24 13.8334C24 14.1094 23.776 14.3334 23.5 14.3334Z" fill="#FF9F00"/>
<path d="M11.8334 12C11.5574 12 11.3334 11.776 11.3334 11.5V8.5C11.3334 8.224 11.5574 8 11.8334 8C12.1094 8 12.3334 8.224 12.3334 8.5V11.5C12.3334 11.776 12.1094 12 11.8334 12Z" fill="#FF9F00"/>
<path d="M20.1666 12C19.8906 12 19.6666 11.776 19.6666 11.5V8.5C19.6666 8.224 19.8906 8 20.1666 8C20.4426 8 20.6666 8.224 20.6666 8.5V11.5C20.6666 11.776 20.4426 12 20.1666 12Z" fill="#FF9F00"/>
</svg>
