<svg width="16" height="16" viewBox="0 0 16 16" fill="none" xmlns="http://www.w3.org/2000/svg">
<path fill-rule="evenodd" clip-rule="evenodd" d="M1.83337 16.0001H14.1666C15.178 16.0001 16 15.1781 16 14.1667V3.16675C16 2.1554 15.178 1.3335 14.1666 1.3335H1.83337C0.822021 1.3335 0 2.1554 0 3.16675V14.1667C0 15.1781 0.822021 16.0001 1.83337 16.0001ZM1 3.16675C1 2.7074 1.37402 2.3335 1.83337 2.3335H14.1666C14.626 2.3335 15 2.7074 15 3.16675V14.1667C15 14.6261 14.626 15.0001 14.1666 15.0001H1.83337C1.37402 15.0001 1 14.6261 1 14.1667V3.16675Z" fill="#83848E"/>
<path d="M15.5 6H0.5C0.223999 6 0 5.776 0 5.5C0 5.224 0.223999 5 0.5 5H15.5C15.776 5 16 5.224 16 5.5C16 5.776 15.776 6 15.5 6Z" fill="#83848E"/>
<path d="M3.83337 4C3.55737 4 3.33337 3.776 3.33337 3.5V0.5C3.33337 0.223999 3.55737 0 3.83337 0C4.10938 0 4.33337 0.223999 4.33337 0.5V3.5C4.33337 3.776 4.10938 4 3.83337 4Z" fill="#83848E"/>
<path d="M12.1666 4C11.8906 4 11.6666 3.776 11.6666 3.5V0.5C11.6666 0.223999 11.8906 0 12.1666 0C12.4426 0 12.6666 0.223999 12.6666 0.5V3.5C12.6666 3.776 12.4426 4 12.1666 4Z" fill="#83848E"/>
</svg>
