<svg width="24" height="24" viewBox="0 0 24 24" fill="none" xmlns="http://www.w3.org/2000/svg">
<circle cx="12" cy="12" r="12" fill="#2281EE"/>
<circle cx="11.8295" cy="12.5312" r="2.74144" fill="white"/>
<path fill-rule="evenodd" clip-rule="evenodd" d="M17.3123 8.14486H15.5735C15.3537 8.14486 15.1473 8.0592 14.9917 7.90391L13.9894 6.90158C13.7305 6.64269 13.3862 6.5 13.02 6.5H10.6389C10.2727 6.5 9.92837 6.64269 9.66948 6.90158L8.66714 7.90391C8.5116 8.0592 8.3052 8.14486 8.0854 8.14486H6.34658C5.74179 8.14486 5.25 8.63665 5.25 9.24142V16.3691C5.25 16.9739 5.74179 17.4657 6.34658 17.4657H17.3123C17.9171 17.4657 18.4089 16.9739 18.4089 16.3691V9.24142C18.4089 8.63665 17.9171 8.14486 17.3123 8.14486ZM11.8294 15.8209C10.0154 15.8209 8.53972 14.3452 8.53972 12.5311C8.53972 10.7171 10.0154 9.24142 11.8294 9.24142C13.6435 9.24142 15.1192 10.7171 15.1192 12.5311C15.1192 14.3452 13.6435 15.8209 11.8294 15.8209ZM15.6675 10.338C15.6675 10.6402 15.9135 10.8863 16.2157 10.8863C16.518 10.8863 16.764 10.6402 16.764 10.338C16.764 10.0358 16.518 9.78972 16.2157 9.78972C15.9135 9.78972 15.6675 10.0358 15.6675 10.338Z" fill="white"/>
</svg>
