<svg width="16" height="16" viewBox="0 0 16 16" fill="none" xmlns="http://www.w3.org/2000/svg">
<path d="M3.42082 5.97778H9.18172C9.49992 5.97778 9.75781 6.23567 9.75781 6.55387C9.75781 6.87207 9.49992 7.12996 9.18172 7.12996H3.42082C3.10262 7.12996 2.84473 6.87207 2.84473 6.55387C2.84473 6.23567 3.10262 5.97778 3.42082 5.97778Z" fill="white"/>
<circle cx="11.243" cy="6.55378" r="0.576" fill="white"/>
<path fill-rule="evenodd" clip-rule="evenodd" d="M14.7862 1H0.575994C0.257794 1 -9.63211e-05 1.25789 -0.000125885 1.57609V11.9457C-0.000125885 12.2639 0.257764 12.5218 0.575964 12.5218H4.80062V14.6341C4.80062 14.8515 4.92295 15.0503 5.1169 15.1484C5.19891 15.1899 5.28799 15.2102 5.37671 15.2102C5.49751 15.2102 5.61753 15.1724 5.71835 15.0979L9.21464 12.5218H14.7862C15.1044 12.5218 15.3623 12.2639 15.3623 11.9457V1.57609C15.3623 1.25789 15.1044 1 14.7862 1ZM5.37675 11.3696H1.15208V2.15218H14.2101V11.3696H9.02531C8.90224 11.3696 8.78258 11.409 8.6835 11.482L5.95284 13.494V11.9457C5.95284 11.6275 5.69494 11.3696 5.37675 11.3696Z" fill="white"/>
</svg>
