<svg width="16" height="16" viewBox="0 0 16 16" fill="none" xmlns="http://www.w3.org/2000/svg">
<path fill-rule="evenodd" clip-rule="evenodd" d="M0 8C0 3.58911 3.58911 0 8 0C12.4109 0 16 3.58911 16 8C16 12.4109 12.4109 16 8 16C3.58911 16 0 12.4109 0 8ZM11.334 12.333C11.5039 12.333 11.675 12.2681 11.8049 12.1379C12.0649 11.8779 12.0649 11.4561 11.8069 11.1951L8.66895 8.05688V4C8.66895 3.6311 8.37012 3.33301 8.00195 3.33301C7.63403 3.33301 7.33496 3.63208 7.33496 4V8.33398C7.33496 8.51099 7.40503 8.67993 7.53003 8.80493L10.863 12.1379C10.9929 12.2681 11.1631 12.333 11.334 12.333Z" fill="#38424D"/>
</svg>
