<svg width="16" height="16" viewBox="0 0 16 16" fill="none" xmlns="http://www.w3.org/2000/svg">
<path d="M1.23669 7.31603L8.31612 0.236597C8.63162 -0.0788655 9.14249 -0.0788655 9.45798 0.236597C9.77345 0.551804 9.77345 1.06325 9.45798 1.37846L2.94945 7.88696L9.45795 14.3955C9.77341 14.7107 9.77341 15.2221 9.45795 15.5373C9.3002 15.6951 9.09373 15.7739 8.88702 15.7739C8.6803 15.7739 8.47354 15.6951 8.31608 15.5373L1.23665 8.45789C0.92119 8.14268 0.92119 7.63124 1.23669 7.31603Z" fill="#2281EE"/>
<path d="M7.48522 7.31603L14.5647 0.236597C14.8799 -0.0788655 15.3913 -0.0788655 15.7065 0.236597C16.022 0.551804 16.022 1.06325 15.7065 1.37846L9.19827 7.88696L15.7065 14.3955C16.0219 14.7107 16.0219 15.2221 15.7065 15.5373C15.549 15.6951 15.3423 15.7739 15.1356 15.7739C14.9288 15.7739 14.7221 15.6951 14.5646 15.5373L7.48519 8.45789C7.16976 8.14268 7.16976 7.63124 7.48522 7.31603Z" fill="#0B409C"/>
</svg>
