<svg width="16" height="16" viewBox="0 0 16 16" fill="none" xmlns="http://www.w3.org/2000/svg">
<path d="M14.7634 8.68397L7.68394 15.7634C7.36844 16.0789 6.85758 16.0789 6.54208 15.7634C6.22662 15.4482 6.22662 14.9367 6.54208 14.6215L13.0506 8.11304L6.54211 1.60454C6.22665 1.28933 6.22665 0.777884 6.54211 0.462676C6.69986 0.304927 6.90633 0.226052 7.11305 0.226052C7.31976 0.226052 7.52652 0.304927 7.68398 0.462676L14.7634 7.54211C15.0789 7.85732 15.0789 8.36876 14.7634 8.68397Z" fill="#2281EE"/>
<path d="M8.51488 8.68397L1.43544 15.7634C1.12024 16.0789 0.608788 16.0789 0.29358 15.7634C-0.0218816 15.4482 -0.0218816 14.9367 0.29358 14.6215L6.80183 8.11304L0.293617 1.60454C-0.0218452 1.28933 -0.0218452 0.777884 0.293617 0.462676C0.451075 0.304927 0.65783 0.226052 0.864548 0.226052C1.07127 0.226052 1.27802 0.304927 1.43548 0.462676L8.51491 7.54211C8.83034 7.85732 8.83034 8.36876 8.51488 8.68397Z" fill="#0B409C"/>
</svg>
