<svg width="8" height="10" viewBox="0 0 8 10" fill="none" xmlns="http://www.w3.org/2000/svg">
<path d="M0.144142 5.61156L3.3919 8.85932C3.48453 8.95195 3.60812 9.00281 3.74253 9.00281C3.87431 9.00281 3.99782 8.95195 4.09046 8.85932L7.33829 5.61156C7.53014 5.41964 7.53014 5.10727 7.33829 4.91549L7.04341 4.62047C6.95078 4.52791 6.82719 4.47698 6.69534 4.47698C6.56356 4.47698 6.43573 4.52791 6.34317 4.62047L4.44424 6.5153L4.44424 0.495467C4.44424 0.224149 4.23175 0.00280815 3.96043 0.00280815H3.54336C3.27204 0.00280815 3.03804 0.224149 3.03804 0.495467L3.03804 6.53666L1.12836 4.62047C1.0358 4.52791 0.915507 4.47698 0.783654 4.47698C0.6518 4.47698 0.530044 4.52791 0.437337 4.62047L0.143337 4.91549C-0.0485902 5.10734 -0.0478583 5.41964 0.144142 5.61156Z" fill="#FF2A53"/>
</svg>
