<svg width="24" height="24" viewBox="0 0 24 24" fill="none" xmlns="http://www.w3.org/2000/svg">
<rect width="24" height="24" rx="6" fill="#F5F6F9"/>
<path d="M17.1663 12.2944V15.1199C17.1635 17.1828 15.4919 18.8545 13.429 18.8572H8.88012C6.81721 18.8545 5.14558 17.1828 5.14282 15.1199V10.571C5.14558 8.50813 6.81721 6.8365 8.88012 6.83374H11.7056C11.9823 6.83374 12.2066 7.05804 12.2066 7.33472C12.2066 7.6114 11.9823 7.8357 11.7056 7.8357H8.88012C7.37058 7.83845 6.14754 9.0615 6.14478 10.571V15.1199C6.14754 16.6295 7.37058 17.8525 8.88012 17.8553H13.429C14.9386 17.8525 16.1616 16.6295 16.1643 15.1199V12.2944C16.1643 12.0177 16.3886 11.7934 16.6653 11.7934C16.942 11.7934 17.1663 12.0177 17.1663 12.2944Z" fill="#0B152A"/>
<path fill-rule="evenodd" clip-rule="evenodd" d="M16.1142 5.60135C16.7532 4.99063 17.7596 4.99063 18.3986 5.60135C18.7021 5.904 18.8727 6.31498 18.8727 6.74358C18.8727 7.17218 18.7021 7.58316 18.3986 7.88581L12.973 13.3314C12.9045 13.3973 12.8199 13.444 12.7276 13.4667L10.6936 13.9176C10.657 13.9228 10.6199 13.9228 10.5834 13.9176C10.4512 13.9157 10.3252 13.8617 10.2327 13.7673C10.1121 13.6467 10.0611 13.473 10.0974 13.3064L10.5483 11.2724C10.5711 11.1801 10.6177 11.0955 10.6836 11.0269L16.1142 5.60135ZM12.3669 12.5048L17.6923 7.17943C17.9168 6.94189 17.9168 6.57032 17.6923 6.33278C17.4473 6.10247 17.0655 6.10247 16.8206 6.33278L11.4952 11.6331L11.2447 12.7553L12.3669 12.5048Z" fill="#0B152A"/>
</svg>
