<svg width="28" height="28" viewBox="0 0 28 28" fill="none" xmlns="http://www.w3.org/2000/svg">
<path d="M22 0H6C2.68629 0 0 2.68629 0 6V22C0 25.3137 2.68629 28 6 28H22C25.3137 28 28 25.3137 28 22V6C28 2.68629 25.3137 0 22 0Z" fill="#F4F6F9"/>
<path fill-rule="evenodd" clip-rule="evenodd" d="M7.08578 13.5H10.4142C11.0129 13.5 11.5 13.0129 11.5 12.4142V9.08578C11.5 8.48706 11.0129 8 10.4142 8H7.08578C6.48706 8 6 8.48706 6 9.08578V12.4142C6 13.0129 6.48706 13.5 7.08578 13.5ZM7 9.08578C7 9.03847 7.03847 9 7.08578 9H10.4142C10.4615 9 10.5 9.03847 10.5 9.08578V12.4142C10.5 12.4615 10.4615 12.5 10.4142 12.5H7.08578C7.03847 12.5 7 12.4615 7 12.4142V9.08578Z" fill="#0B152A"/>
<path fill-rule="evenodd" clip-rule="evenodd" d="M7.08578 20.75H10.4142C11.0129 20.75 11.5 20.2629 11.5 19.6642V16.3358C11.5 15.7371 11.0129 15.25 10.4142 15.25H7.08578C6.48706 15.25 6 15.7371 6 16.3358V19.6642C6 20.2629 6.48706 20.75 7.08578 20.75ZM7 16.3358C7 16.2885 7.03847 16.25 7.08578 16.25H10.4142C10.4615 16.25 10.5 16.2885 10.5 16.3358V19.6642C10.5 19.7115 10.4615 19.75 10.4142 19.75H7.08578C7.03847 19.75 7 19.7115 7 19.6642V16.3358Z" fill="#0B152A"/>
<path d="M21.5 10.5H13.5C13.2239 10.5 13 10.2761 13 10C13 9.72387 13.2239 9.5 13.5 9.5H21.5C21.7761 9.5 22 9.72387 22 10C22 10.2761 21.7761 10.5 21.5 10.5Z" fill="#0B152A"/>
<path d="M18.75 12.375H13.5C13.2239 12.375 13 12.1511 13 11.875C13 11.5989 13.2239 11.375 13.5 11.375H18.75C19.0261 11.375 19.25 11.5989 19.25 11.875C19.25 12.1511 19.0261 12.375 18.75 12.375Z" fill="#0B152A"/>
<path d="M21.5 17.625H13.5C13.2239 17.625 13 17.4011 13 17.125C13 16.8489 13.2239 16.625 13.5 16.625H21.5C21.7761 16.625 22 16.8489 22 17.125C22 17.4011 21.7761 17.625 21.5 17.625Z" fill="#0B152A"/>
<path d="M18.75 19.625H13.5C13.2239 19.625 13 19.4011 13 19.125C13 18.8489 13.2239 18.625 13.5 18.625H18.75C19.0261 18.625 19.25 18.8489 19.25 19.125C19.25 19.4011 19.0261 19.625 18.75 19.625Z" fill="#0B152A"/>
</svg>
