<svg width="28" height="28" viewBox="0 0 28 28" fill="none" xmlns="http://www.w3.org/2000/svg">
<rect width="28" height="28" rx="8" fill="#DDEEFB"/>
<path fill-rule="evenodd" clip-rule="evenodd" d="M6.2215 13.4375H9.966C10.6396 13.4375 11.1875 12.8896 11.1875 12.216V8.4715C11.1875 7.79795 10.6396 7.25 9.966 7.25H6.2215C5.54795 7.25 5 7.79795 5 8.4715V12.216C5 12.8896 5.54795 13.4375 6.2215 13.4375ZM6.125 8.4715C6.125 8.41828 6.16828 8.375 6.2215 8.375H9.966C10.0192 8.375 10.0625 8.41828 10.0625 8.4715V12.216C10.0625 12.2692 10.0192 12.3125 9.966 12.3125H6.2215C6.16828 12.3125 6.125 12.2692 6.125 12.216V8.4715Z" fill="#2E88F0"/>
<path fill-rule="evenodd" clip-rule="evenodd" d="M6.2215 21.5938H9.966C10.6396 21.5938 11.1875 21.0458 11.1875 20.3722V16.6278C11.1875 15.9542 10.6396 15.4062 9.966 15.4062H6.2215C5.54795 15.4062 5 15.9542 5 16.6278V20.3722C5 21.0458 5.54795 21.5938 6.2215 21.5938ZM6.125 16.6278C6.125 16.5745 6.16828 16.5312 6.2215 16.5312H9.966C10.0192 16.5312 10.0625 16.5745 10.0625 16.6278V20.3722C10.0625 20.4255 10.0192 20.4688 9.966 20.4688H6.2215C6.16828 20.4688 6.125 20.4255 6.125 20.3722V16.6278Z" fill="#2E88F0"/>
<path d="M22.4375 10.0625H13.4375C13.1269 10.0625 12.875 9.81064 12.875 9.5C12.875 9.18936 13.1269 8.9375 13.4375 8.9375H22.4375C22.7481 8.9375 23 9.18936 23 9.5C23 9.81064 22.7481 10.0625 22.4375 10.0625Z" fill="#2E88F0"/>
<path d="M19.3438 12.1719H13.4375C13.1269 12.1719 12.875 11.92 12.875 11.6094C12.875 11.2987 13.1269 11.0469 13.4375 11.0469H19.3438C19.6544 11.0469 19.9062 11.2987 19.9062 11.6094C19.9062 11.92 19.6544 12.1719 19.3438 12.1719Z" fill="#2E88F0"/>
<path d="M22.4375 18.0781H13.4375C13.1269 18.0781 12.875 17.8263 12.875 17.5156C12.875 17.205 13.1269 16.9531 13.4375 16.9531H22.4375C22.7481 16.9531 23 17.205 23 17.5156C23 17.8263 22.7481 18.0781 22.4375 18.0781Z" fill="#2E88F0"/>
<path d="M19.3438 20.3281H13.4375C13.1269 20.3281 12.875 20.0763 12.875 19.7656C12.875 19.455 13.1269 19.2031 13.4375 19.2031H19.3438C19.6544 19.2031 19.9062 19.455 19.9062 19.7656C19.9062 20.0763 19.6544 20.3281 19.3438 20.3281Z" fill="#2E88F0"/>
</svg>
