<svg width="139" height="136" viewBox="0 0 139 136" fill="none" xmlns="http://www.w3.org/2000/svg">
<path fill-rule="evenodd" clip-rule="evenodd" d="M95.2969 30.3217C91.7427 30.3217 88.6088 28.576 86.6335 25.9229C84.6583 28.576 81.5243 30.3217 77.9702 30.3217C74.416 30.3217 71.282 28.576 69.3068 25.9229C67.3315 28.576 64.1976 30.3217 60.6434 30.3217C57.0893 30.3217 53.9553 28.576 51.9801 25.9229C50.0048 28.576 46.8708 30.3217 43.3167 30.3217C37.3455 30.3217 32.4875 25.4637 32.4875 19.4925V17.3267H10.8291C7.24677 17.3267 4.33154 20.2419 4.33154 23.8242V93.1311C4.33154 96.7134 7.24677 99.6286 10.8291 99.6286H73.6948C68.4145 95.676 64.9751 89.3907 64.9751 82.3019C64.9751 81.1042 65.9454 80.1361 67.1409 80.1361H97.4627C103.434 80.1361 108.292 84.994 108.292 90.9653V99.6286H127.785C131.367 99.6286 134.282 96.7134 134.282 93.1311V23.8242C134.282 20.2419 131.367 17.3267 127.785 17.3267H106.126V19.4925C106.126 25.4637 101.268 30.3217 95.2969 30.3217ZM34.6533 90.9653H15.1608V86.6336H34.6533V90.9653ZM38.985 86.6336V90.9653H47.6484V86.6336H38.985ZM54.1459 80.1361C54.1459 81.3338 53.1756 82.3019 51.9801 82.3019H12.9949C11.7994 82.3019 10.8291 81.3338 10.8291 80.1361V38.9851C10.8291 37.7874 11.7994 36.8192 12.9949 36.8192H51.9801C53.1756 36.8192 54.1459 37.7874 54.1459 38.9851V80.1361ZM88.7994 51.9801V47.6484H80.136V51.9801H88.7994ZM62.8093 36.8192H86.6335V41.1509H62.8093V36.8192ZM73.6385 47.6484H62.8093V51.9801H73.6385V47.6484ZM62.8093 58.4776H73.6385V62.8093H62.8093V58.4776ZM62.8093 73.6385H67.1409V69.3069H62.8093V73.6385ZM71.4726 73.6385V69.3069H75.8043V73.6385H71.4726ZM80.136 73.6385H84.4677V69.3069H80.136V73.6385ZM108.292 73.6385H88.7994V69.3069H108.292V73.6385ZM112.624 73.6385H125.619V69.3069H112.624V73.6385ZM127.785 49.8143V60.6435C127.785 61.8412 126.814 62.8093 125.619 62.8093H110.458C109.262 62.8093 108.292 61.8412 108.292 60.6435V49.8143C108.292 48.6166 109.262 47.6484 110.458 47.6484H125.619C126.814 47.6484 127.785 48.6166 127.785 49.8143ZM93.1311 41.1509H116.955V36.8192H93.1311V41.1509Z" fill="#2281EE"/>
<path d="M77.9702 25.9902C81.5525 25.9902 84.4677 23.075 84.4677 19.4927V10.8293C84.4677 7.24701 81.5525 4.33179 77.9702 4.33179C74.3879 4.33179 71.4727 7.24701 71.4727 10.8293V19.4927C71.4727 23.075 74.3879 25.9902 77.9702 25.9902Z" fill="white"/>
<path d="M95.2968 25.9902C98.8791 25.9902 101.794 23.075 101.794 19.4927V10.8293C101.794 7.24701 98.8791 4.33179 95.2968 4.33179C91.7145 4.33179 88.7993 7.24701 88.7993 10.8293V19.4927C88.7993 23.075 91.7145 25.9902 95.2968 25.9902Z" fill="white"/>
<rect x="112.624" y="51.9802" width="10.8292" height="6.49752" fill="#FF2A53"/>
<path d="M43.3169 4.33179C39.7346 4.33179 36.8193 7.24701 36.8193 10.8293V19.4927C36.8193 23.075 39.7346 25.9902 43.3169 25.9902C46.8992 25.9902 49.8144 23.075 49.8144 19.4927V10.8293C49.8144 7.24701 46.8992 4.33179 43.3169 4.33179Z" fill="white"/>
<path d="M37.0664 63.6367C36.4535 64.0222 35.7842 64.3125 35.0803 64.5355C34.972 64.5702 34.8659 64.607 34.7554 64.6373C34.4176 64.7283 34.0775 64.7998 33.7267 64.8518C33.666 64.8604 33.6075 64.8626 33.5469 64.8691C33.196 64.9124 32.8495 64.9752 32.4878 64.9752C32.1261 64.9752 31.7796 64.9124 31.4287 64.8691C31.3681 64.8626 31.3096 64.8604 31.2489 64.8518C30.8981 64.7998 30.5559 64.7305 30.2202 64.6373C30.1097 64.607 30.0036 64.5702 29.8953 64.5355C29.1914 64.3125 28.5221 64.0222 27.9092 63.6367C22.2369 65.6834 18.2106 71.2973 17.4785 77.9703H47.4971C46.765 71.2973 42.7366 65.6834 37.0664 63.6367Z" fill="white"/>
<path d="M24.8143 60.2493C24.2035 59.0624 23.8245 57.7369 23.8245 56.3118V54.1459C23.8245 49.3681 27.71 45.4826 32.4879 45.4826C37.2657 45.4826 41.1512 49.3681 41.1512 54.1459V56.3118C41.1512 57.7369 40.7722 59.0624 40.1614 60.2493C44.387 62.2527 47.77 65.822 49.8146 70.2381V41.1509H15.1611V70.2381C17.2079 65.822 20.5887 62.2527 24.8143 60.2493Z" fill="#E1F2FF"/>
<path d="M32.4874 60.6437C33.7653 60.6437 34.7074 60.0697 35.2727 59.5911C35.2922 59.5737 35.3182 59.5651 35.3377 59.5477C36.2387 58.7529 36.8191 57.605 36.8191 56.312V54.1461C36.8191 51.7572 34.8764 49.8145 32.4874 49.8145C30.0985 49.8145 28.1558 51.7572 28.1558 54.1461V56.312C28.1558 57.605 28.7362 58.7529 29.6372 59.5477C29.6589 59.5651 29.6827 59.5737 29.7022 59.5911C30.2675 60.0697 31.2096 60.6437 32.4874 60.6437Z" fill="white"/>
<path d="M60.6435 25.9902C64.2258 25.9902 67.141 23.075 67.141 19.4927V10.8293C67.141 7.24701 64.2258 4.33179 60.6435 4.33179C57.0612 4.33179 54.146 7.24701 54.146 10.8293V19.4927C54.146 23.075 57.0612 25.9902 60.6435 25.9902Z" fill="white"/>
<path d="M38.9849 138.614V101.795H77.97V99.6287L71.4725 93.1312L67.1408 84.4678V82.302H99.6284L103.96 86.6337L106.126 95.2971V138.614H38.9849Z" fill="white"/>
<path d="M127.785 103.96H106.126V99.6288H127.785C131.367 99.6288 134.282 96.7136 134.282 93.1313V23.8243C134.282 20.242 131.367 17.3268 127.785 17.3268H103.96V12.9951H127.785C133.756 12.9951 138.614 17.8531 138.614 23.8243V93.1313C138.614 99.1025 133.756 103.96 127.785 103.96Z" fill="#0B152A"/>
<path d="M84.4678 103.96H10.8292C4.85798 103.96 0 99.1025 0 93.1313V23.8243C0 17.8531 4.85798 12.9951 10.8292 12.9951H34.6535V17.3268H10.8292C7.24691 17.3268 4.33168 20.242 4.33168 23.8243V93.1313C4.33168 96.7136 7.24691 99.6288 10.8292 99.6288H84.4678V103.96Z" fill="#0B152A"/>
<path d="M108.292 138.614H103.96V90.9654C103.96 87.3831 101.045 84.4679 97.4627 84.4679H69.4411C70.511 93.0013 77.8142 99.6288 86.6335 99.6288H90.9652V103.96H86.6335C74.6911 103.96 64.9751 94.2445 64.9751 82.3021C64.9751 81.1044 65.9454 80.1362 67.1409 80.1362H97.4627C103.434 80.1362 108.292 84.9942 108.292 90.9654V138.614Z" fill="#0B152A"/>
<rect x="36.8193" y="101.794" width="4.33168" height="36.8193" fill="#0B152A"/>
<path fill-rule="evenodd" clip-rule="evenodd" d="M32.4878 19.4926C32.4878 25.4638 37.3458 30.3218 43.317 30.3218C49.2882 30.3218 54.1462 25.4638 54.1462 19.4926V10.8292C54.1462 4.85798 49.2882 0 43.317 0C37.3458 0 32.4878 4.85798 32.4878 10.8292V19.4926ZM36.8195 10.8292C36.8195 7.24691 39.7347 4.33168 43.317 4.33168C46.8993 4.33168 49.8145 7.24691 49.8145 10.8292V19.4926C49.8145 23.0749 46.8993 25.9901 43.317 25.9901C39.7347 25.9901 36.8195 23.0749 36.8195 19.4926V10.8292Z" fill="#0B152A"/>
<path fill-rule="evenodd" clip-rule="evenodd" d="M49.8145 19.4926C49.8145 25.4638 54.6724 30.3218 60.6437 30.3218C66.6149 30.3218 71.4729 25.4638 71.4729 19.4926V10.8292C71.4729 4.85798 66.6149 0 60.6437 0C54.6724 0 49.8145 4.85798 49.8145 10.8292V19.4926ZM54.1461 10.8292C54.1461 7.24691 57.0614 4.33168 60.6437 4.33168C64.226 4.33168 67.1412 7.24691 67.1412 10.8292V19.4926C67.1412 23.0749 64.226 25.9901 60.6437 25.9901C57.0614 25.9901 54.1461 23.0749 54.1461 19.4926V10.8292Z" fill="#0B152A"/>
<path fill-rule="evenodd" clip-rule="evenodd" d="M67.1411 19.4926C67.1411 25.4638 71.9991 30.3218 77.9703 30.3218C83.9415 30.3218 88.7995 25.4638 88.7995 19.4926V10.8292C88.7995 4.85798 83.9415 0 77.9703 0C71.9991 0 67.1411 4.85798 67.1411 10.8292V19.4926ZM71.4728 10.8292C71.4728 7.24691 74.388 4.33168 77.9703 4.33168C81.5526 4.33168 84.4678 7.24691 84.4678 10.8292V19.4926C84.4678 23.0749 81.5526 25.9901 77.9703 25.9901C74.388 25.9901 71.4728 23.0749 71.4728 19.4926V10.8292Z" fill="#0B152A"/>
<path fill-rule="evenodd" clip-rule="evenodd" d="M84.4678 19.4926C84.4678 25.4638 89.3258 30.3218 95.297 30.3218C101.268 30.3218 106.126 25.4638 106.126 19.4926V10.8292C106.126 4.85798 101.268 0 95.297 0C89.3258 0 84.4678 4.85798 84.4678 10.8292V19.4926ZM88.7995 10.8292C88.7995 7.24691 91.7147 4.33168 95.297 4.33168C98.8793 4.33168 101.795 7.24691 101.795 10.8292V19.4926C101.795 23.0749 98.8793 25.9901 95.297 25.9901C91.7147 25.9901 88.7995 23.0749 88.7995 19.4926V10.8292Z" fill="#0B152A"/>
<path fill-rule="evenodd" clip-rule="evenodd" d="M12.9949 82.302H51.9801C53.1756 82.302 54.1459 81.3339 54.1459 80.1362V38.9852C54.1459 37.7875 53.1756 36.8193 51.9801 36.8193H12.9949C11.7994 36.8193 10.8291 37.7875 10.8291 38.9852V80.1362C10.8291 81.3339 11.7994 82.302 12.9949 82.302ZM49.8143 77.9703H15.1608V41.151H49.8143V77.9703Z" fill="#0B152A"/>
<path d="M51.9803 80.1361H47.6486C47.6486 72.5275 43.3451 65.9022 37.0641 63.6367C34.307 65.3759 30.6662 65.3759 27.9091 63.6367C21.6303 65.9022 17.3268 72.5275 17.3268 80.1361H12.9951C12.9951 70.2079 19.0486 61.5813 27.7142 59.1534C28.4072 58.9541 29.1523 59.1231 29.7003 59.5887C30.2677 60.0695 31.2098 60.6435 32.4877 60.6435C33.7655 60.6435 34.7077 60.0695 35.273 59.5909C35.8231 59.1252 36.566 58.9563 37.259 59.1556C45.9267 61.5813 51.9803 70.2079 51.9803 80.1361Z" fill="#0B152A"/>
<path fill-rule="evenodd" clip-rule="evenodd" d="M23.8242 56.3119C23.8242 61.0897 27.7097 64.9752 32.4876 64.9752C37.2654 64.9752 41.151 61.0897 41.151 56.3119V54.146C41.151 49.3682 37.2654 45.4827 32.4876 45.4827C27.7097 45.4827 23.8242 49.3682 23.8242 54.146V56.3119ZM28.1559 54.146C28.1559 51.7571 30.0987 49.8143 32.4876 49.8143C34.8765 49.8143 36.8193 51.7571 36.8193 54.146V56.3119C36.8193 58.7008 34.8765 60.6436 32.4876 60.6436C30.0987 60.6436 28.1559 58.7008 28.1559 56.3119V54.146Z" fill="#0B152A"/>
<rect x="15.1611" y="86.6338" width="19.4926" height="4.33168" fill="#0B152A"/>
<rect x="38.9854" y="86.6338" width="8.66337" height="4.33168" fill="#0B152A"/>
<rect x="62.8096" y="36.8193" width="23.8243" height="4.33168" fill="#0B152A"/>
<rect x="93.1313" y="36.8193" width="23.8243" height="4.33168" fill="#0B152A"/>
<rect x="62.8096" y="47.6484" width="10.8292" height="4.33168" fill="#0B152A"/>
<rect x="80.1362" y="47.6484" width="8.66337" height="4.33168" fill="#0B152A"/>
<rect x="62.8096" y="58.4778" width="10.8292" height="4.33168" fill="#0B152A"/>
<rect x="62.8096" y="69.3069" width="4.33168" height="4.33168" fill="#0B152A"/>
<rect x="71.4727" y="69.3069" width="4.33168" height="4.33168" fill="#0B152A"/>
<rect x="80.1362" y="69.3069" width="4.33168" height="4.33168" fill="#0B152A"/>
<rect x="88.7993" y="69.3069" width="19.4926" height="4.33168" fill="#0B152A"/>
<rect x="112.624" y="69.3069" width="12.995" height="4.33168" fill="#0B152A"/>
<path fill-rule="evenodd" clip-rule="evenodd" d="M110.458 62.8093H125.619C126.814 62.8093 127.785 61.8412 127.785 60.6435V49.8143C127.785 48.6166 126.814 47.6484 125.619 47.6484H110.458C109.262 47.6484 108.292 48.6166 108.292 49.8143V60.6435C108.292 61.8412 109.262 62.8093 110.458 62.8093ZM123.453 58.4776H112.624V51.9801H123.453V58.4776Z" fill="#0B152A"/>
</svg>
