<svg width="16" height="16" viewBox="0 0 16 16" fill="none" xmlns="http://www.w3.org/2000/svg">
<path fill-rule="evenodd" clip-rule="evenodd" d="M1.13127 5.33333H5.97973C6.60366 5.33333 7.11111 4.81002 7.11111 4.16659V1.16662C7.11111 0.523311 6.60366 0 5.97973 0H1.13127C0.507455 0 0 0.523311 0 1.16662V4.16659C0 4.81002 0.507455 5.33333 1.13127 5.33333ZM0.969692 1.16662C0.969692 1.0747 1.04213 0.999992 1.13127 0.999992H5.97973C6.06898 0.999992 6.14142 1.0747 6.14142 1.16662V4.16659C6.14142 4.25863 6.06898 4.33334 5.97973 4.33334H1.13127C1.04213 4.33334 0.969692 4.25863 0.969692 4.16659V1.16662Z" fill="white"/>
<path fill-rule="evenodd" clip-rule="evenodd" d="M1.13127 15.9999H5.97973C6.60366 15.9999 7.11111 15.4517 7.11111 14.7778V7.44447C7.11111 6.7704 6.60366 6.22217 5.97973 6.22217H1.13127C0.507455 6.22217 0 6.7704 0 7.44447V14.7778C0 15.4517 0.507455 15.9999 1.13127 15.9999ZM0.969692 7.44447C0.969692 7.34805 1.04213 7.26978 1.13127 7.26978H5.97973C6.06898 7.26978 6.14142 7.34805 6.14142 7.44447V14.7778C6.14142 14.8741 6.06898 14.9523 5.97973 14.9523H1.13127C1.04213 14.9523 0.969692 14.8741 0.969692 14.7778V7.44447Z" fill="white"/>
<path fill-rule="evenodd" clip-rule="evenodd" d="M10.0203 16H14.8688C15.4926 16 16 15.4766 16 14.8333V11.8334C16 11.1899 15.4926 10.6666 14.8688 10.6666H10.0203C9.39637 10.6666 8.88892 11.1899 8.88892 11.8334V14.8333C8.88892 15.4766 9.39637 16 10.0203 16ZM9.85861 11.8334C9.85861 11.7413 9.93105 11.6666 10.0203 11.6666H14.8688C14.9579 11.6666 15.0303 11.7413 15.0303 11.8334V14.8333C15.0303 14.9253 14.9579 15 14.8688 15H10.0203C9.93105 15 9.85861 14.9253 9.85861 14.8333V11.8334Z" fill="white"/>
<path fill-rule="evenodd" clip-rule="evenodd" d="M10.0203 9.77778H14.8688C15.4926 9.77778 16 9.22954 16 8.55548V1.22217C16 0.548233 15.4926 0 14.8688 0H10.0203C9.39637 0 8.88892 0.548233 8.88892 1.22217V8.55548C8.88892 9.22954 9.39637 9.77778 10.0203 9.77778ZM9.85861 1.22217C9.85861 1.12588 9.93105 1.04761 10.0203 1.04761H14.8688C14.9579 1.04761 15.0303 1.12588 15.0303 1.22217V8.55548C15.0303 8.6519 14.9579 8.73016 14.8688 8.73016H10.0203C9.93105 8.73016 9.85861 8.6519 9.85861 8.55548V1.22217Z" fill="white"/>
</svg>
