<svg width="48" height="48" viewBox="0 0 48 48" fill="none" xmlns="http://www.w3.org/2000/svg">
<circle cx="24" cy="24" r="24" fill="#FF9595"/>
<path d="M18.5 16C19.8807 16 21 17.1193 21 18.5C21 19.8807 19.8807 21 18.5 21C17.1193 21 16 19.8807 16 18.5C16 17.1193 17.1193 16 18.5 16Z" fill="white"/>
<path d="M28.5 16C29.8807 16 31 17.1193 31 18.5C31 19.8807 29.8807 21 28.5 21C27.1193 21 26 19.8807 26 18.5C26 17.1193 27.1193 16 28.5 16Z" fill="white"/>
<path d="M30.7013 31.5769C30.4921 31.8256 30.1972 31.9769 29.8815 31.9976C29.5658 32.0182 29.2552 31.9064 29.0181 31.6869C25.8645 28.7722 21.1353 28.7722 17.9817 31.6869C17.4879 32.1438 16.7343 32.0946 16.2985 31.5769C15.8626 31.0592 15.9096 30.2691 16.4034 29.8122C20.4585 26.0626 26.5413 26.0626 30.5964 29.8122C30.8337 30.0315 30.978 30.3407 30.9977 30.6717C31.0174 31.0027 30.9108 31.3284 30.7013 31.5769V31.5769Z" fill="white"/>
</svg>
