<svg width="32" height="32" viewBox="0 0 32 32" fill="none" xmlns="http://www.w3.org/2000/svg">
<rect width="32" height="32" rx="16" fill="#E1F2FF"/>
<path fill-rule="evenodd" clip-rule="evenodd" d="M10.9759 8H20.6426C21.6539 8 22.4759 8.822 22.4759 9.83333V22.1667C22.4759 23.178 21.6539 24 20.6426 24H10.9759C9.96458 24 9.14258 23.178 9.14258 22.1667V9.83333C9.14258 8.822 9.96458 8 10.9759 8ZM14.9759 13.384V16.6667C14.9759 16.7993 14.9232 16.9267 14.8292 17.02L12.5072 19.342C13.0606 19.7507 13.7372 20 14.4759 20C16.3139 20 17.8092 18.5047 17.8092 16.6667C17.8092 15 16.5759 13.6273 14.9759 13.384ZM13.9759 13.384V16.46L11.8006 18.6353C11.3919 18.082 11.1426 17.4053 11.1426 16.6667C11.1426 15 12.3759 13.6273 13.9759 13.384ZM11.6426 22.1667H19.9759C20.2519 22.1667 20.4759 21.9427 20.4759 21.6667C20.4759 21.3907 20.2519 21.1667 19.9759 21.1667H11.6426C11.3666 21.1667 11.1426 21.3907 11.1426 21.6667C11.1426 21.9427 11.3666 22.1667 11.6426 22.1667ZM19.9759 20H18.9759C18.6999 20 18.4759 19.776 18.4759 19.5C18.4759 19.224 18.6999 19 18.9759 19H19.9759C20.2519 19 20.4759 19.224 20.4759 19.5C20.4759 19.776 20.2519 20 19.9759 20ZM18.9759 18.1667H19.9759C20.2519 18.1667 20.4759 17.9427 20.4759 17.6667C20.4759 17.3907 20.2519 17.1667 19.9759 17.1667H18.9759C18.6999 17.1667 18.4759 17.3907 18.4759 17.6667C18.4759 17.9427 18.6999 18.1667 18.9759 18.1667ZM19.9759 16.1667H18.9759C18.6999 16.1667 18.4759 15.9427 18.4759 15.6667C18.4759 15.3907 18.6999 15.1667 18.9759 15.1667H19.9759C20.2519 15.1667 20.4759 15.3907 20.4759 15.6667C20.4759 15.9427 20.2519 16.1667 19.9759 16.1667ZM18.9759 14.3333H19.9759C20.2519 14.3333 20.4759 14.1093 20.4759 13.8333C20.4759 13.5573 20.2519 13.3333 19.9759 13.3333H18.9759C18.6999 13.3333 18.4759 13.5573 18.4759 13.8333C18.4759 14.1093 18.6999 14.3333 18.9759 14.3333Z" fill="#2281EE"/>
</svg>
