<svg width="16" height="16" viewBox="0 0 16 16" fill="none" xmlns="http://www.w3.org/2000/svg">
<path fill-rule="evenodd" clip-rule="evenodd" d="M16 5.33333V0.533333C16 0.238533 15.7615 0 15.4667 0H10.6667C10.3719 0 10.1333 0.238533 10.1333 0.533333C10.1333 0.828133 10.3719 1.06667 10.6667 1.06667H14.1792L6.55627 8.6896C6.34787 8.89787 6.34787 9.23533 6.55627 9.44373C6.6604 9.54787 6.79693 9.6 6.93333 9.6C7.06973 9.6 7.20627 9.54787 7.3104 9.44373L14.9333 1.8208V5.33333C14.9333 5.62813 15.1719 5.86667 15.4667 5.86667C15.7615 5.86667 16 5.62813 16 5.33333ZM13.8667 8V14.4C13.8667 15.2823 13.1489 16 12.2667 16H1.6C0.717733 16 0 15.2823 0 14.4V3.73333C0 2.85107 0.717733 2.13333 1.6 2.13333H8C8.2948 2.13333 8.53333 2.37187 8.53333 2.66667C8.53333 2.96147 8.2948 3.2 8 3.2H1.6C1.30573 3.2 1.06667 3.43907 1.06667 3.73333V14.4C1.06667 14.6943 1.30573 14.9333 1.6 14.9333H12.2667C12.5609 14.9333 12.8 14.6943 12.8 14.4V8C12.8 7.7052 13.0385 7.46667 13.3333 7.46667C13.6281 7.46667 13.8667 7.7052 13.8667 8Z" fill="#0080F6"/>
</svg>
