<svg width="18" height="12" viewBox="0 0 18 12" fill="none" xmlns="http://www.w3.org/2000/svg">
<path fill-rule="evenodd" clip-rule="evenodd" d="M10.2232 5.80706V5.28679V3.99713V3.58298C10.2232 3.11243 10.0324 2.68644 9.7241 2.37813C9.41578 2.06981 8.98979 1.87903 8.51938 1.87903C7.57842 1.87903 6.81543 2.64202 6.81543 3.58298V3.99713V5.28679V5.45307C7.28222 5.49568 7.74247 5.55152 8.19798 5.60722C8.88549 5.69134 9.55546 5.77252 10.2232 5.80706Z" fill="#C0C0CC"/>
<path fill-rule="evenodd" clip-rule="evenodd" d="M3.4054 1.65716C3.38047 0.737924 2.62918 0 1.70395 0C0.762852 0 0 0.762851 0 1.70381V3.31878C0.545192 3.19456 1.08273 3.02731 1.61552 2.78863C2.24218 2.50775 2.83681 2.13105 3.4054 1.65716Z" fill="#C0C0CC"/>
<path fill-rule="evenodd" clip-rule="evenodd" d="M13.6309 6.52005V6.55292C13.6309 7.49374 12.8679 8.25673 11.927 8.25673C11.3221 8.25673 10.7911 7.94159 10.4888 7.46658C10.3888 7.3095 10.3176 7.13362 10.2734 6.94729C9.42083 6.92362 8.59684 6.82377 7.78748 6.7249C7.45827 6.68479 7.13352 6.64538 6.81128 6.61126C6.80056 6.92487 6.70809 7.21801 6.5499 7.46658C6.24743 7.94159 5.71644 8.25673 5.11165 8.25673C4.214 8.25673 3.48011 7.56197 3.41424 6.68131C2.32678 6.91276 1.29697 7.39598 0.26062 8.16677C0.483571 8.83701 0.841184 9.44571 1.30213 9.96054C1.86835 10.5936 2.59039 11.0843 3.4077 11.3734C3.94077 11.562 4.51409 11.6644 5.11165 11.6644C5.7092 11.6644 6.28252 11.562 6.81546 11.3734C7.45047 11.1491 8.02756 10.8025 8.51927 10.3624C9.01113 10.8025 9.58821 11.1491 10.2232 11.3734C10.756 11.562 11.3295 11.6644 11.927 11.6644C12.5246 11.6644 13.0979 11.562 13.6309 11.3734C14.4483 11.0843 15.1703 10.5936 15.7366 9.96054C16.5463 9.05607 17.0386 7.86193 17.0386 6.55292V4.70386C16.5436 5.08473 16.0467 5.41449 15.5408 5.69704C14.9122 6.04825 14.2809 6.31924 13.6309 6.52005Z" fill="#C0C0CC"/>
<path fill-rule="evenodd" clip-rule="evenodd" d="M15.3348 0C14.3938 0 13.631 0.762851 13.631 1.70381V1.73208V5.36377C14.7778 4.94795 15.9031 4.23175 17.0386 3.19637V1.70381C17.0386 0.762851 16.2758 0 15.3348 0Z" fill="#C0C0CC"/>
<path fill-rule="evenodd" clip-rule="evenodd" d="M3.26515 5.59074C3.31291 5.58057 3.36026 5.57249 3.40775 5.56316V3.03467C2.95655 3.33922 2.48754 3.60158 1.99178 3.82384C1.32223 4.1238 0.657974 4.32725 0.00012207 4.47473V6.553C0.00012207 6.69087 0.00680642 6.82734 0.0175292 6.96256C0.175865 6.85993 0.334618 6.7605 0.494625 6.66789C1.39395 6.14763 2.30023 5.79517 3.26515 5.59074Z" fill="#C0C0CC"/>
</svg>
