<svg width="32" height="22" viewBox="0 0 32 22" fill="none" xmlns="http://www.w3.org/2000/svg">
<path fill-rule="evenodd" clip-rule="evenodd" d="M18.9017 11.0497V10.0927V7.72038V6.95856C18.9017 6.09301 18.5489 5.30942 17.9789 4.74229C17.4088 4.17515 16.6212 3.82422 15.7515 3.82422C14.0118 3.82422 12.6011 5.22771 12.6011 6.95856V7.72038V10.0927V10.3985C13.4641 10.4769 14.3151 10.5796 15.1572 10.6821C16.4284 10.8368 17.6671 10.9861 18.9017 11.0497Z" fill="#2281EE"/>
<path fill-rule="evenodd" clip-rule="evenodd" d="M6.2962 3.4162C6.25011 1.7253 4.86106 0.36792 3.15042 0.36792C1.41043 0.36792 0 1.77115 0 3.50201V6.47267C1.008 6.24418 2.00184 5.93653 2.98692 5.49748C4.14555 4.98081 5.24495 4.2879 6.2962 3.4162Z" fill="#2281EE"/>
<path fill-rule="evenodd" clip-rule="evenodd" d="M25.202 12.3613V12.4218C25.202 14.1524 23.7913 15.5559 22.0518 15.5559C20.9334 15.5559 19.9517 14.9762 19.3927 14.1024C19.2078 13.8135 19.0763 13.4899 18.9944 13.1472C17.4181 13.1037 15.8947 12.92 14.3983 12.7381C13.7896 12.6644 13.1892 12.5919 12.5934 12.5291C12.5736 13.106 12.4026 13.6452 12.1101 14.1024C11.5509 14.9762 10.5691 15.5559 9.45094 15.5559C7.79129 15.5559 6.43441 14.2779 6.31263 12.6579C4.30203 13.0837 2.39803 13.9725 0.481934 15.3904C0.894145 16.6233 1.55533 17.7429 2.40756 18.6899C3.45444 19.8544 4.78943 20.7571 6.30053 21.2889C7.28613 21.6358 8.34614 21.824 9.45094 21.824C10.5558 21.824 11.6158 21.6358 12.6011 21.2889C13.7752 20.8763 14.8421 20.2387 15.7513 19.4292C16.6607 20.2387 17.7276 20.8763 18.9017 21.2889C19.8868 21.6358 20.947 21.824 22.0518 21.824C23.1567 21.824 24.2167 21.6358 25.202 21.2889C26.7134 20.7571 28.0484 19.8544 29.0952 18.6899C30.5924 17.0262 31.5026 14.8297 31.5026 12.4218V9.02051C30.5873 9.7211 29.6686 10.3277 28.7332 10.8474C27.571 11.4935 26.4039 11.9919 25.202 12.3613Z" fill="#2281EE"/>
<path fill-rule="evenodd" clip-rule="evenodd" d="M28.3522 0.36792C26.6125 0.36792 25.202 1.77115 25.202 3.50201V3.55401V10.2343C27.3223 9.46946 29.4029 8.15204 31.5023 6.24751V3.50201C31.5023 1.77115 30.0919 0.36792 28.3522 0.36792Z" fill="#2281EE"/>
<path fill-rule="evenodd" clip-rule="evenodd" d="M6.03679 10.6517C6.12511 10.633 6.21265 10.6182 6.30044 10.601V5.94995C5.46624 6.51017 4.59907 6.99277 3.68248 7.4016C2.44455 7.95336 1.21642 8.32761 0.00012207 8.59888V12.4218C0.00012207 12.6754 0.0124807 12.9264 0.032306 13.1751C0.325051 12.9863 0.618568 12.8034 0.914403 12.6331C2.57715 11.6761 4.25277 11.0278 6.03679 10.6517Z" fill="#2281EE"/>
</svg>
