<svg width="32" height="32" viewBox="0 0 32 32" fill="none" xmlns="http://www.w3.org/2000/svg">
<circle cx="16" cy="16" r="16" fill="#E1F2FF"/>
<path fill-rule="evenodd" clip-rule="evenodd" d="M24.2313 11.9873L26.2921 14.1566C26.5302 14.4072 26.6667 14.7548 26.6667 15.1087V23.7193C26.6667 24.4621 26.0924 25.0667 25.3867 25.0667H6.61337C5.90767 25.0667 5.33337 24.4621 5.33337 23.7193V15.1087C5.33337 14.7548 5.46992 14.4072 5.708 14.1566L7.76879 11.9873C8.01029 11.7331 8.332 11.593 8.67333 11.593H12.16V10.2456C12.16 9.00693 13.1175 8 14.2934 8H17.7067C18.8826 8 19.84 9.00693 19.84 10.2456V11.593H23.3267C23.6681 11.593 23.9898 11.7331 24.2313 11.9873ZM14.2934 8.89825C13.5877 8.89825 13.0134 9.50276 13.0134 10.2456V11.593H18.9867V10.2456C18.9867 9.50276 18.4124 8.89825 17.7067 8.89825H14.2934ZM25.8134 23.7193C25.8134 23.9663 25.6222 24.1684 25.3867 24.1684H6.61337C6.37787 24.1684 6.18671 23.9663 6.18671 23.7193V18.7789H10.4534V20.1263C10.4534 20.3742 10.6445 20.5754 10.88 20.5754H12.5867C12.8222 20.5754 13.0134 20.3742 13.0134 20.1263V18.7789H18.9867V20.1263C18.9867 20.3742 19.1779 20.5754 19.4134 20.5754H21.12C21.3555 20.5754 21.5467 20.3742 21.5467 20.1263V18.7789H25.8134V23.7193ZM11.3067 16.9825V19.6772H12.16V16.9825H11.3067ZM19.84 19.6772V16.9825H20.6934V19.6772H19.84ZM21.5467 17.8807H25.8133V15.1087C25.8133 14.9902 25.7681 14.8743 25.6887 14.7917L23.6279 12.6224C23.5486 12.5398 23.4385 12.4913 23.3267 12.4913H19.4133H12.5867H8.67329C8.56154 12.4913 8.45146 12.5398 8.37208 12.6224L6.31129 14.7917C6.23192 14.8743 6.18671 14.9902 6.18671 15.1087V17.8807H10.4534V16.5333C10.4534 16.2854 10.6445 16.0842 10.88 16.0842H12.5867C12.8222 16.0842 13.0134 16.2854 13.0134 16.5333V17.8807H18.9867V16.5333C18.9867 16.2854 19.1779 16.0842 19.4134 16.0842H21.12C21.3555 16.0842 21.5467 16.2854 21.5467 16.5333V17.8807Z" fill="#092766"/>
</svg>
