<svg width="25" height="24" viewBox="0 0 25 24" fill="none" xmlns="http://www.w3.org/2000/svg">
<rect x="0.5" width="24" height="24" rx="6" fill="#F4F6F9"/>
<path d="M11.7544 14.3657V16.7142C11.7544 17.143 11.4069 17.4906 10.9781 17.4906H8.41596L6.70787 19.354L6.28085 17.4906H5.11626C4.69834 17.5015 4.35071 17.1715 4.33986 16.7536C4.33953 16.7405 4.33953 16.7273 4.33986 16.7142V13.104C4.32901 12.6861 4.65899 12.3384 5.07691 12.3276C5.09003 12.3272 5.10314 12.3272 5.11626 12.3276H7.17372V12.8128C7.17372 13.6704 7.86894 14.3656 8.72651 14.3656H11.7544V14.3657Z" fill="white"/>
<path d="M11.7543 14.3657H8.72638C7.8688 14.3657 7.17358 13.6705 7.17358 12.8129V7.51397C7.17358 6.6564 7.8688 5.96118 8.72638 5.96118H17.6937C18.5513 5.96118 19.2465 6.6564 19.2465 7.51397V12.8129C19.2465 13.6705 18.5513 14.3657 17.6937 14.3657H16.1021L15.4228 17.413L12.6472 14.3656H11.7543V14.3657Z" fill="white"/>
<path fill-rule="evenodd" clip-rule="evenodd" d="M17.7133 5.67008H8.7265C7.65894 5.67008 6.74668 6.44647 6.74668 7.51403V11.8812H5.09685C4.45632 11.8812 4.0293 12.4635 4.0293 13.104V16.7143C4.0293 17.3548 4.45632 17.8983 5.09685 17.8983H5.97029L6.31966 19.4511C6.35343 19.5888 6.45634 19.699 6.59139 19.7422H6.70786C6.81025 19.7408 6.90792 19.6989 6.97959 19.6257L8.5712 17.8983H10.978C11.631 17.8882 12.1608 17.367 12.1815 16.7143V14.7927H12.4726L15.1317 17.6848C15.1949 17.7716 15.2962 17.8222 15.4035 17.8207H15.5199C15.6522 17.7844 15.7555 17.6811 15.7917 17.5489L16.4128 14.7927H17.7132C18.7808 14.7927 19.5572 13.8805 19.5572 12.8129V7.51399C19.5899 6.52832 18.8173 5.70277 17.8317 5.67004C17.7922 5.66874 17.7527 5.66874 17.7133 5.67008ZM11.4051 16.7143C11.3857 16.9383 11.2027 17.1129 10.978 17.1219H8.39652C8.29413 17.1233 8.19646 17.1652 8.12479 17.2383L6.90198 18.5582L6.64964 17.413C6.60432 17.2371 6.44304 17.1161 6.26145 17.1219H5.09685C4.88334 17.1219 4.80569 16.9278 4.80569 16.7143V13.104C4.80569 12.8905 4.88334 12.6576 5.09685 12.6576H6.74668V12.8129C6.76734 13.8977 7.64174 14.7721 8.7265 14.7927H11.4051V16.7143ZM17.7132 14.0163C18.3538 14.0163 18.7808 13.4534 18.7808 12.8129H18.7808V7.51399C18.7832 7.47401 18.7832 7.43393 18.7808 7.39395C18.7476 6.83749 18.2697 6.4133 17.7133 6.44643H8.7265C8.08597 6.44643 7.52308 6.87346 7.52308 7.51399V12.8129C7.54329 13.469 8.07044 13.9961 8.7265 14.0163H12.6473C12.7497 14.0178 12.8473 14.0596 12.919 14.1328L15.2094 16.6172L15.7334 14.3075C15.763 14.1299 15.9226 14.0039 16.1022 14.0163H17.7132Z" fill="#0B152A"/>
<path d="M13.9089 9.35794H9.2505C9.0361 9.35794 8.8623 9.18414 8.8623 8.96974C8.8623 8.75534 9.0361 8.58154 9.2505 8.58154H13.9089C14.1233 8.58154 14.2971 8.75534 14.2971 8.96974C14.2971 9.18414 14.1232 9.35794 13.9089 9.35794Z" fill="#0B152A"/>
<path d="M17.0145 11.6871H9.2505C9.0361 11.6871 8.8623 11.5133 8.8623 11.2989C8.8623 11.0845 9.0361 10.9107 9.2505 10.9107H17.0145C17.2289 10.9107 17.4027 11.0845 17.4027 11.2989C17.4027 11.5133 17.2289 11.6871 17.0145 11.6871Z" fill="#0B152A"/>
</svg>
