<svg width="30" height="30" viewBox="0 0 30 30" fill="none" xmlns="http://www.w3.org/2000/svg">
<circle r="15" transform="matrix(1 0 0 -1 15 15)" fill="#E1F2FF"/>
<path d="M19.7058 14.6077L16.2172 10.9613C16.1176 10.8572 15.9849 10.8 15.8434 10.8C15.7017 10.8 15.5691 10.8573 15.4695 10.9613L15.1527 11.2924C15.0532 11.3963 14.9984 11.5352 14.9984 11.6832C14.9984 11.8311 15.0532 11.9746 15.1527 12.0785L17.1879 14.2104H10.7221C10.4305 14.2104 10.2002 14.449 10.2002 14.7538V15.2219C10.2002 15.5267 10.4305 15.7893 10.7221 15.7893H17.211L15.1528 17.9332C15.0533 18.0373 14.9985 18.1723 14.9985 18.3203C14.9985 18.4681 15.0533 18.6052 15.1528 18.7092L15.4696 19.0392C15.5691 19.1433 15.7018 19.2 15.8435 19.2C15.985 19.2 16.1177 19.1426 16.2173 19.0385L19.7059 15.3921C19.8057 15.2877 19.8606 15.1483 19.8602 15.0001C19.8605 14.8515 19.8057 14.712 19.7058 14.6077Z" fill="#5C80C0"/>
</svg>
