<svg width="72" height="72" viewBox="0 0 72 72" fill="none" xmlns="http://www.w3.org/2000/svg">
<rect width="72" height="72" rx="36" fill="#F4F6F9"/>
<mask id="mask0" mask-type="alpha" maskUnits="userSpaceOnUse" x="0" y="0" width="72" height="72">
<rect width="72" height="72" rx="36" fill="white"/>
</mask>
<g mask="url(#mask0)">
</g>
<path d="M50.0888 40.8058C48.4427 39.1584 46.1587 38.4606 43.2253 39.2467L32.7655 28.7762L32.9037 28.2534C33.5062 25.9931 32.8552 23.5634 31.2055 21.9136C29.5257 20.2326 27.1377 19.6158 24.8793 20.2361C24.5572 20.3246 24.3065 20.5776 24.2212 20.9006C24.1359 21.2235 24.2295 21.5668 24.4655 21.8029L26.9841 24.3215C27.7204 25.0596 27.7132 26.2418 26.9859 26.971C26.2643 27.6945 25.0515 27.6934 24.3328 26.9728L21.8137 24.4536C21.5775 24.2173 21.2333 24.1246 20.9103 24.2104C20.5873 24.2961 20.3352 24.5474 20.2471 24.8698C19.6358 27.1034 20.2372 29.5063 21.925 31.1941C23.5703 32.8406 25.8515 33.541 28.7866 32.7532L39.2473 43.2237C38.4667 46.1561 39.14 48.4181 40.8082 50.0863C42.4901 51.7694 44.8792 52.3816 47.1327 51.7633C47.4548 51.6749 47.7056 51.4218 47.791 51.0989C47.8763 50.7759 47.7828 50.4326 47.5467 50.1964L45.0287 47.6784C44.2923 46.9403 44.2995 45.758 45.0268 45.0289C45.7574 44.3021 46.9676 44.3136 47.68 45.0279L50.1992 47.5465C50.4354 47.7827 50.7797 47.8754 51.1025 47.7896C51.4255 47.7038 51.6776 47.4526 51.7657 47.1303C52.377 44.897 51.7758 42.4936 50.0888 40.8058Z" fill="#E5EAEE"/>
<path fill-rule="evenodd" clip-rule="evenodd" d="M21.0969 45.5996L30.0339 36.6615L35.3372 41.9652L26.4004 50.9031C24.9379 52.3656 22.5595 52.3656 21.0969 50.9031C19.6344 49.4406 19.6344 47.0622 21.0969 45.5996ZM24.194 47.9936C24.5602 48.3599 25.1534 48.3599 25.5196 47.9936L31.2059 42.3063C31.572 41.9401 31.572 41.3469 31.2059 40.9807C30.8397 40.6145 30.2464 40.6145 29.8802 40.9807L24.194 46.668C23.8278 47.0342 23.8278 47.6274 24.194 47.9936Z" fill="#E5EAEE"/>
<path d="M51.7242 21.8908L50.1081 20.2746C49.8039 19.9704 49.3318 19.9123 48.9629 20.1335L43.9912 23.1162C43.4681 23.43 43.3793 24.1517 43.8106 24.583L44.2063 24.9786L37.8951 31.2641L40.5472 33.9163L46.8585 27.6308L47.4159 28.1884C47.8472 28.6196 48.569 28.5308 48.8827 28.0077L51.8654 23.036C52.0865 22.6671 52.0284 22.195 51.7242 21.8908Z" fill="#E5EAEE"/>
</svg>
