<svg width="70" height="70" viewBox="0 0 70 70" fill="none" xmlns="http://www.w3.org/2000/svg">
<g clip-path="url(#clip0)">
<path d="M4.375 63.875V6.125H65.625V43.1113L43.771 63.875H4.375Z" fill="white"/>
<path d="M64.75 7V42.7367L43.4193 63H5.25V7H64.75ZM66.5 5.25H3.5V64.75H44.1193L66.5 43.4875V5.25Z" fill="#0080F6"/>
<path d="M66.5 43.4875V35H64.75V45.15L66.5 43.4875ZM45.9603 63H33.25V64.75H44.1193L45.9603 63Z" fill="white"/>
<path d="M5.25 7H64.75V15.75H5.25V7Z" fill="#0080F6"/>
<path d="M23.625 28.875H53.375H23.625ZM23.625 35.875H49.875H23.625ZM23.625 42.875H42.875H23.625ZM23.625 49.875H41.125H23.625Z" stroke="#0080F6" stroke-width="1.75" stroke-miterlimit="10" stroke-linecap="round"/>
<path d="M65.625 36.75C65.1437 36.75 64.75 36.3562 64.75 35.875V32.375C64.75 31.8937 65.1437 31.5 65.625 31.5C66.1063 31.5 66.5 31.8937 66.5 32.375V35.875C66.5 36.3562 66.1063 36.75 65.625 36.75ZM30.625 63H34.125C34.6062 63 35 63.3937 35 63.875C35 64.3563 34.6062 64.75 34.125 64.75H30.625C30.1437 64.75 29.75 64.3563 29.75 63.875C29.75 63.3937 30.1437 63 30.625 63Z" fill="#0080F6"/>
<path d="M41.589 69.125C40.9975 69.125 40.4427 68.894 40.0227 68.4758C39.1617 67.613 39.1617 66.2095 40.0227 65.345L52.0995 53.83L54.7577 56.3133L43.1395 68.488C42.7352 68.894 42.1805 69.125 41.589 69.125Z" fill="#DBEEFF"/>
<path d="M52.1058 55.0358L53.5128 56.3518L42.5333 67.858C42.2813 68.11 41.9453 68.25 41.5883 68.25C41.2313 68.25 40.8953 68.11 40.6416 67.858C40.1201 67.3365 40.1201 66.4878 40.6118 65.9943L52.1058 55.0358ZM52.0953 52.6295L39.4043 64.729C38.1986 65.9348 38.1986 67.8913 39.4043 69.097C40.0063 69.699 40.7973 70 41.5883 70C42.3793 70 43.1686 69.699 43.7723 69.0953L55.9996 56.2818L52.0953 52.6295Z" fill="#0080F6"/>
<path d="M57.75 39.375C54.7332 39.375 51.8399 40.5734 49.7067 42.7067C47.5734 44.8399 46.375 47.7332 46.375 50.75C46.375 53.7668 47.5734 56.6601 49.7067 58.7933C51.8399 60.9266 54.7332 62.125 57.75 62.125C60.7668 62.125 63.6601 60.9266 65.7933 58.7933C67.9266 56.6601 69.125 53.7668 69.125 50.75C69.125 47.7332 67.9266 44.8399 65.7933 42.7067C63.6601 40.5734 60.7668 39.375 57.75 39.375Z" fill="#DFF0FE" stroke="#4788C7" stroke-width="1.75" stroke-miterlimit="10"/>
<path d="M57.75 39.375C51.4675 39.375 46.375 44.4675 46.375 50.75C46.375 57.0325 51.4675 62.125 57.75 62.125C64.0325 62.125 69.125 57.0343 69.125 50.75C69.125 44.4675 64.0325 39.375 57.75 39.375Z" fill="#DBEEFF" stroke="#0080F6" stroke-width="1.75" stroke-miterlimit="10"/>
</g>
<defs>
<clipPath id="clip0">
<rect width="70" height="70" fill="white"/>
</clipPath>
</defs>
</svg>
