<svg width="24" height="24" viewBox="0 0 24 24" fill="none" xmlns="http://www.w3.org/2000/svg">
<path d="M19.5 24H4.5C2.0145 24 0 21.9855 0 19.5V4.5C0 2.0145 2.0145 0 4.5 0H19.5C21.9855 0 24 2.0145 24 4.5V19.5C24 21.9855 21.9855 24 19.5 24Z" fill="#F4F6F9"/>
<path d="M8.70984 5.14282H9.56531V7.9944H8.70984V5.14282Z" fill="#0B152A"/>
<path d="M11.5614 5.14282H12.4169V7.9944H11.5614V5.14282Z" fill="#0B152A"/>
<path d="M14.1278 5.14282H14.9833V7.9944H14.1278V5.14282Z" fill="#0B152A"/>
<path d="M9.13757 14.8382H15.1259V15.6937H9.13757V14.8382Z" fill="#0B152A"/>
<path d="M9.13757 12.5569H15.1259V13.4124H9.13757V12.5569Z" fill="#0B152A"/>
<path d="M9.13757 10.2756H12.2743V11.1311H9.13757V10.2756Z" fill="#0B152A"/>
<path fill-rule="evenodd" clip-rule="evenodd" d="M7.99695 18.8304H15.6962C16.5614 18.8304 17.2646 18.1272 17.2646 17.262V7.85181C17.2646 6.98665 16.5614 6.28345 15.6962 6.28345H7.99695C7.13179 6.28345 6.42859 6.98665 6.42859 7.85181V17.262C6.42859 18.1272 7.13179 18.8304 7.99695 18.8304ZM7.28406 7.85181C7.28406 7.45887 7.60401 7.13892 7.99695 7.13892H15.6962C16.0891 7.13892 16.4091 7.45887 16.4091 7.85181V17.262C16.4091 17.655 16.0891 17.9749 15.6962 17.9749H7.99695C7.60401 17.9749 7.28406 17.655 7.28406 17.262V7.85181Z" fill="#0B152A"/>
</svg>
