<svg width="25" height="24" viewBox="0 0 25 24" fill="none" xmlns="http://www.w3.org/2000/svg">
<rect x="0.5" width="24" height="24" rx="6" fill="#F4F6F9"/>
<path d="M15.7184 6.51611V15.6228H9.8396V6.51611H15.7184Z" fill="#F4F6F9"/>
<circle cx="12.7869" cy="17.1977" r="0.483403" fill="#E1F2FF"/>
<path fill-rule="evenodd" clip-rule="evenodd" d="M16.9815 6.12629V17.7903C16.9902 18.2983 16.5854 18.7172 16.0774 18.7259C16.0669 18.7261 16.0564 18.7261 16.0459 18.7259H9.44984C8.99372 18.7432 8.60995 18.3875 8.59264 17.9314C8.59204 17.9155 8.59189 17.8997 8.59219 17.8838V6.12629C8.5921 5.65005 8.97367 5.26156 9.44984 5.25305H16.1239C16.6001 5.26156 16.9816 5.65005 16.9815 6.12629ZM15.734 15.6384V6.51612H9.83968V15.6384H15.734ZM12.7713 16.6987C13.0469 16.6987 13.2703 16.9221 13.2703 17.1977L13.2703 17.1982C13.2615 17.4651 13.0381 17.6743 12.7713 17.6655C12.7607 17.6659 12.7501 17.6659 12.7396 17.6655C12.4899 17.6568 12.2947 17.4474 12.3035 17.1977L12.3035 17.1972C12.295 16.9304 12.5044 16.7072 12.7713 16.6987Z" fill="white"/>
<path fill-rule="evenodd" clip-rule="evenodd" d="M9.43417 19.0377H16.0614C16.7504 19.0377 17.3089 18.4792 17.3089 17.7903V6.12627C17.3005 5.47527 16.7748 4.94955 16.1238 4.94116H9.44978C8.79876 4.94955 8.27307 5.47527 8.26465 6.12627V17.8838C8.27318 18.5236 8.79431 19.0378 9.43417 19.0377ZM8.88842 6.12627C8.88842 5.81625 9.13976 5.56491 9.44978 5.56491H16.1238C16.4339 5.56491 16.6852 5.81625 16.6852 6.12627V17.7902C16.6855 17.8008 16.6855 17.8113 16.6852 17.8219C16.6765 18.1576 16.3972 18.4227 16.0615 18.414H9.4342C9.13875 18.4141 8.89687 18.1791 8.88842 17.8838V6.12627Z" fill="#0B152A"/>
<path fill-rule="evenodd" clip-rule="evenodd" d="M9.83966 15.9502H15.734C15.9063 15.9502 16.0459 15.8106 16.0459 15.6384V6.53174C16.0465 6.52105 16.0465 6.51037 16.0459 6.49968C16.037 6.3363 15.8974 6.211 15.734 6.21986H9.83966C9.82897 6.2193 9.81829 6.2193 9.8076 6.21986C9.64422 6.22873 9.51892 6.36835 9.52779 6.53174V15.6384C9.52779 15.8106 9.66741 15.9502 9.83966 15.9502ZM15.4222 15.3265H10.1515V6.84361H15.4222V15.3265Z" fill="#0B152A"/>
<path fill-rule="evenodd" clip-rule="evenodd" d="M11.9454 17.2138C11.9626 17.6613 12.3393 18.0101 12.7868 17.993C13.2199 17.9845 13.5665 17.6309 13.5664 17.1977C13.5667 17.1823 13.5666 17.167 13.566 17.1516C13.5488 16.7042 13.1721 16.3553 12.7246 16.3724C12.2771 16.3896 11.9283 16.7663 11.9454 17.2138ZM12.6145 17.1814C12.6149 17.0866 12.692 17.0102 12.7868 17.0106C12.8803 17.0106 12.9427 17.0886 12.9427 17.1977C12.9432 17.2031 12.9435 17.2086 12.9435 17.2141C12.943 17.3002 12.8729 17.3696 12.7868 17.3692C12.7758 17.3704 12.7648 17.3704 12.7538 17.3692C12.6682 17.3601 12.6061 17.2833 12.6152 17.1977C12.6147 17.1923 12.6145 17.1868 12.6145 17.1814Z" fill="#0B152A"/>
</svg>
