<svg width="16" height="16" viewBox="0 0 16 16" fill="none" xmlns="http://www.w3.org/2000/svg">
<path fill-rule="evenodd" clip-rule="evenodd" d="M12.8736 4.4858C14.1829 5.69175 14.9889 6.88328 15.0225 6.93341C15.1227 7.08256 15.1227 7.27744 15.0225 7.42659C14.9888 7.47672 14.1829 8.66825 12.8735 9.87421C12.0983 10.5882 11.3064 11.1585 10.5198 11.5694C9.51567 12.094 8.5161 12.36 7.54882 12.36C6.58154 12.36 5.58198 12.094 4.57784 11.5694C3.79126 11.1585 2.99934 10.5882 2.22411 9.87421C0.914748 8.66825 0.108824 7.47672 0.075149 7.42659C-0.0250497 7.27744 -0.0250497 7.08256 0.075149 6.93341C0.108853 6.88328 0.914748 5.69175 2.22414 4.4858C2.99937 3.77185 3.79126 3.2015 4.57787 2.79056C5.58201 2.26598 6.58157 2 7.54885 2C8.51613 2 9.5157 2.26598 10.5198 2.79056C11.3064 3.20147 12.0983 3.77185 12.8736 4.4858ZM7.54888 11.4754C9.42786 11.4754 11.1481 10.2577 12.2604 9.2363C13.1556 8.41407 13.8133 7.58146 14.1112 7.17999C13.8134 6.77857 13.1556 5.94593 12.2603 5.1237C11.1481 4.10226 9.42783 2.88463 7.54885 2.88463C5.66988 2.88463 3.94961 4.10226 2.83736 5.1237C1.94206 5.9459 1.2844 6.77851 0.986491 7.17999C1.28434 7.58143 1.94206 8.41407 2.83739 9.2363C3.94963 10.2577 5.66991 11.4754 7.54888 11.4754Z" fill="#2281EE"/>
<path fill-rule="evenodd" clip-rule="evenodd" d="M5.21143 7.17992C5.21143 5.89108 6.25997 4.84253 7.54878 4.84253C8.83763 4.84253 9.8862 5.89108 9.8862 7.17992C9.8862 8.46876 8.83763 9.51731 7.54878 9.51731C6.25997 9.51731 5.21143 8.46876 5.21143 7.17992ZM6.09605 7.17989C6.09605 7.98095 6.74776 8.63265 7.54879 8.63265C8.34987 8.63265 9.00158 7.98095 9.00158 7.17989C9.00158 6.37883 8.34984 5.72713 7.54879 5.72713C6.74776 5.72713 6.09605 6.37883 6.09605 7.17989Z" fill="#2281EE"/>
</svg>
