<svg width="32" height="33" viewBox="0 0 32 33" fill="none" xmlns="http://www.w3.org/2000/svg">
<circle cx="16" cy="16.5" r="16" fill="#DCF3FF"/>
<path d="M19.1402 15.3724H16.1413V7.87476L12.3925 17.6216H15.3914V25.1193L19.1402 15.3724Z" fill="#2281EE"/>
<path fill-rule="evenodd" clip-rule="evenodd" d="M15.3231 25.488C15.3462 25.4922 15.3692 25.4941 15.3918 25.4941C15.5441 25.4941 15.6851 25.4007 15.7415 25.2538L19.4903 15.507C19.5346 15.3917 19.5191 15.2621 19.4493 15.1602C19.3793 15.0584 19.2637 14.9975 19.1403 14.9975H16.5162V7.87495C16.5162 7.69412 16.3872 7.5394 16.2098 7.50625C16.0314 7.47357 15.8561 7.5716 15.7913 7.74041L12.0424 17.4871C11.9982 17.6024 12.0136 17.7322 12.0834 17.8339C12.1534 17.9359 12.2691 17.9966 12.3926 17.9966H15.0167V25.1193C15.0167 25.3 15.1455 25.4548 15.3231 25.488ZM15.3915 17.2469H12.9384L15.7664 9.89383V15.3724C15.7664 15.5795 15.9341 15.7474 16.1412 15.7474H18.5945L15.7664 23.1002V17.6216C15.7664 17.4147 15.5988 17.2469 15.3915 17.2469Z" fill="#2281EE"/>
</svg>
