<svg width="32" height="33" viewBox="0 0 32 33" fill="none" xmlns="http://www.w3.org/2000/svg">
<circle cx="16" cy="16.5" r="16" fill="#FFDEE2"/>
<path d="M13.9399 17.0218H24.4561C24.7563 17.0218 25 16.7782 25 16.4779C25 16.1776 24.7563 15.934 24.4561 15.934H13.9399C13.6397 15.934 13.396 16.1776 13.396 16.4779C13.396 16.7782 13.6397 17.0218 13.9399 17.0218Z" fill="#FF2A53"/>
<path d="M16.8408 19.9228C16.9801 19.9228 17.1193 19.8699 17.2253 19.7633C17.4378 19.5508 17.4378 19.2063 17.2253 18.9937L14.7086 16.4772L17.2253 13.9605C17.4378 13.7481 17.4378 13.4035 17.2253 13.191C17.0127 12.9785 16.6682 12.9785 16.4557 13.191L13.5547 16.0921C13.3423 16.3046 13.3423 16.649 13.5547 16.8615L16.4557 19.7625C16.5624 19.8699 16.7015 19.9228 16.8408 19.9228Z" fill="#FF2A53"/>
<path d="M16.297 24.4557C19.5977 24.4557 22.5117 22.47 23.7221 19.3962C23.8323 19.1177 23.6946 18.8015 23.4154 18.6913C23.1369 18.5826 22.8199 18.7181 22.7097 18.9989C21.6645 21.6526 19.1472 23.3678 16.297 23.3678C12.4982 23.3678 9.40702 20.2767 9.40702 16.4778C9.40702 12.679 12.4982 9.58788 16.297 9.58788C19.1472 9.58788 21.6645 11.3031 22.7097 13.9568C22.8207 14.2375 23.1369 14.3731 23.4154 14.2644C23.6946 14.1541 23.8323 13.838 23.7221 13.5595C22.5117 10.4857 19.5977 8.5 16.297 8.5C11.8983 8.5 8.31914 12.0792 8.31914 16.4778C8.31914 20.8765 11.8983 24.4557 16.297 24.4557Z" fill="#FF2A53"/>
</svg>
