<svg width="32" height="33" viewBox="0 0 32 33" fill="none" xmlns="http://www.w3.org/2000/svg">
<circle cx="16" cy="16.5" r="16" fill="#C4FCDC"/>
<path d="M16 8.5C11.5886 8.5 8 12.0886 8 16.5C8 20.9114 11.5886 24.5 16 24.5C20.4114 24.5 24 20.9114 24 16.5C24 12.0886 20.4114 8.5 16 8.5Z" fill="#1DC5A3"/>
<path d="M20.0547 14.8047L15.7213 19.1379C15.5913 19.2679 15.4207 19.3334 15.25 19.3334C15.0793 19.3334 14.9087 19.2679 14.7787 19.1379L12.6121 16.9713C12.3513 16.7107 12.3513 16.2893 12.6121 16.0287C12.8727 15.7679 13.2939 15.7679 13.5547 16.0287L15.25 17.724L19.1121 13.8621C19.3727 13.6013 19.7939 13.6013 20.0547 13.8621C20.3153 14.1227 20.3153 14.5439 20.0547 14.8047Z" fill="#FAFAFA"/>
</svg>
