<svg width="15" height="14" viewBox="0 0 15 14" fill="none" xmlns="http://www.w3.org/2000/svg">
<path d="M9.89468 3.58423H6.31048C5.99458 3.58423 5.73853 3.84026 5.73853 4.15618C5.73853 4.47208 5.99455 4.72814 6.31048 4.72814H9.89468C10.2108 4.72814 10.4666 4.47211 10.4666 4.15618C10.4666 3.84026 10.2106 3.58423 9.89468 3.58423Z" fill="white"/>
<path d="M11.2673 6.34863H6.31048C5.99458 6.34863 5.73853 6.60466 5.73853 6.92059C5.73853 7.23649 5.99455 7.49254 6.31048 7.49254H11.2673C11.5832 7.49254 11.8393 7.23651 11.8393 6.92059C11.8393 6.60466 11.5832 6.34863 11.2673 6.34863Z" fill="white"/>
<path fill-rule="evenodd" clip-rule="evenodd" d="M13.8601 0H3.73669C3.42079 0 3.16474 0.256028 3.16474 0.571955V5.96729H2.15432C0.966385 5.96729 0 6.93387 0 8.12162V11.3054C0 12.4934 0.966385 13.4598 2.15432 13.4598C2.25154 13.4598 2.34727 13.4533 2.44088 13.4407H11.8774C13.2859 13.4407 14.4321 12.2947 14.4321 10.886V0.571955C14.4321 0.256028 14.176 0 13.8601 0ZM3.16477 11.3054C3.16477 11.7956 2.81377 12.2055 2.34995 12.2968H2.15435V12.3158C1.59708 12.3158 1.14391 11.8625 1.14391 11.3054V8.12162C1.14391 7.56454 1.59728 7.11117 2.15435 7.11117H3.16479V11.3054H3.16477ZM11.8774 12.2968C12.6423 12.2968 13.2882 11.6507 13.2882 10.886V1.14388H4.30865V11.3054C4.30865 11.6627 4.22132 12 4.06671 12.2968H11.8774Z" fill="white"/>
<path d="M9.89468 8.94165H6.31048C5.99458 8.94165 5.73853 9.19768 5.73853 9.51361C5.73853 9.8295 5.99455 10.0856 6.31048 10.0856H9.89468C10.2108 10.0856 10.4666 9.82953 10.4666 9.51361C10.4666 9.19768 10.2106 8.94165 9.89468 8.94165Z" fill="white"/>
</svg>
