<svg width="14" height="14" viewBox="0 0 14 14" fill="none" xmlns="http://www.w3.org/2000/svg">
<path d="M13.0663 6.53302V6.99966C13.0689 9.93819 10.9659 12.4568 8.07303 12.9798C5.18018 13.5028 2.32785 11.8799 1.30059 9.12664C0.273342 6.37335 1.36603 3.27989 3.89502 1.78168C6.42401 0.283479 9.66338 0.810572 11.5864 3.03319H9.09816V3.96647H13.0663V0H12.1326V2.24502C9.84486 -0.220768 6.12569 -0.7108 3.27683 1.0782C0.427975 2.8672 -0.744552 6.42907 0.484899 9.55946C1.71435 12.6898 4.99794 14.5031 8.30352 13.877C11.6091 13.2509 14.0015 10.3626 14 6.99966V6.53302H13.0663Z" fill="#80808F"/>
</svg>
