<svg width="56" height="56" viewBox="0 0 56 56" fill="none" xmlns="http://www.w3.org/2000/svg">
<rect width="56" height="56" rx="7.82609" fill="#F4F6F9"/>
<path d="M18.1282 26.4277C17.8613 26.4277 17.5943 26.3255 17.391 26.1221C16.9833 25.7144 16.9833 25.0554 17.391 24.6477L24.5924 17.4463C25.0001 17.0386 25.6591 17.0386 26.0668 17.4463C26.4746 17.854 26.4746 18.513 26.0668 18.9208L18.8655 26.1221C18.6621 26.3255 18.3952 26.4277 18.1282 26.4277Z" fill="#0B152A"/>
<path d="M26.7312 21.2138C26.5278 21.2138 26.3276 21.1346 26.1785 20.9844L22.5288 17.3347C22.3046 17.1116 22.2379 16.7748 22.3588 16.4828C22.4798 16.1908 22.7655 16 23.0815 16H26.7312C27.1629 16 27.5132 16.3504 27.5132 16.7821V20.4318C27.5132 20.7477 27.3224 21.0335 27.0304 21.1544C26.9335 21.194 26.8323 21.2138 26.7312 21.2138Z" fill="#0B152A"/>
<path d="M22.2993 30.8595V36.8554H16.0427V30.8595C16.0427 30.14 16.6267 29.556 17.3462 29.556H20.9959C21.7154 29.556 22.2993 30.14 22.2993 30.8595Z" fill="#0B152A"/>
<path d="M30.6416 26.6883V36.8554H24.385V26.6883C24.385 25.9688 24.969 25.3849 25.6885 25.3849H29.3382C30.0577 25.3849 30.6416 25.9688 30.6416 26.6883Z" fill="#0B152A"/>
<path d="M38.9837 22.5173V36.8554H32.7271V22.5173C32.7271 21.7978 33.311 21.2139 34.0305 21.2139H37.6802C38.3997 21.2139 38.9837 21.7978 38.9837 22.5173Z" fill="#0B152A"/>
<path d="M39.2444 39.9837H15.7821C15.3504 39.9837 15 39.6333 15 39.2016C15 38.7699 15.3504 38.4196 15.7821 38.4196H39.2444C39.6761 38.4196 40.0265 38.7699 40.0265 39.2016C40.0265 39.6333 39.6761 39.9837 39.2444 39.9837Z" fill="#0B152A"/>
</svg>
