<svg width="15" height="14" viewBox="0 0 15 14" fill="none" xmlns="http://www.w3.org/2000/svg">
<path fill-rule="evenodd" clip-rule="evenodd" d="M5.76512 11.5166C2.58999 11.5166 0.00683594 8.93342 0.00683594 5.75828C0.00683594 2.58315 2.58999 0 5.76512 0C8.94026 0 11.5234 2.58315 11.5234 5.75828C11.5234 8.93342 8.94026 11.5166 5.76512 11.5166ZM5.76512 1.09162C3.1919 1.09162 1.09845 3.18507 1.09845 5.75828C1.09845 8.3315 3.1919 10.425 5.76512 10.425C8.33834 10.425 10.4318 8.3315 10.4318 5.75828C10.4318 3.18507 8.33834 1.09162 5.76512 1.09162ZM13.8197 13.0516C14.0328 13.2648 14.0328 13.6104 13.8197 13.8235C13.7131 13.9301 13.5735 13.9834 13.4338 13.9834C13.2941 13.9834 13.1544 13.9301 13.0478 13.8235L10.6053 11.381C10.3922 11.1679 10.3922 10.8223 10.6053 10.6091C10.8184 10.396 11.164 10.396 11.3772 10.6091L13.8197 13.0516Z" fill="#C0C0CD"/>
</svg>
