<svg width="6" height="10" viewBox="0 0 6 10" fill="none" xmlns="http://www.w3.org/2000/svg">
<path d="M0.508084 4.43842H5.16659C5.35513 4.43842 5.52806 4.33397 5.61604 4.16739C5.70389 4.00047 5.69233 3.79911 5.5858 3.6432L3.22784 0.197815C3.14343 0.0744953 3.00367 0.000669375 2.85418 1.3592e-06C2.70484 -0.000363013 2.56464 0.072552 2.47954 0.195507L0.0904927 3.64095C-0.0171793 3.79618 -0.0297097 3.99852 0.0579624 4.16607C0.145634 4.33334 0.319035 4.43842 0.508084 4.43842Z" fill="#83848E"/>
<path d="M5.16658 5.54663H0.508077C0.319029 5.54663 0.145628 5.65175 0.0579557 5.819C-0.0297163 5.98655 -0.0171657 6.1889 0.0904861 6.34408L2.47953 9.78953C2.56464 9.91248 2.70484 9.9854 2.85417 9.98507C3.00366 9.98444 3.14342 9.91054 3.22783 9.78726L5.58579 6.34181C5.69233 6.18596 5.70389 5.98457 5.61603 5.81762C5.52806 5.65108 5.35512 5.54663 5.16658 5.54663Z" fill="#83848E"/>
</svg>
