<svg width="20" height="18" viewBox="0 0 20 18" fill="none" xmlns="http://www.w3.org/2000/svg">
<path d="M19.3237 0.0720516C19.2373 -0.00378065 19.1142 -0.0213742 19.0099 0.0269935L0.167998 8.7815C0.0665593 8.82865 0.0012367 8.92985 1.73403e-05 9.04168C-0.00120201 9.15352 0.0619722 9.25612 0.162424 9.30541L5.49466 11.9223C5.59244 11.9703 5.70904 11.9594 5.79637 11.8942L10.9808 8.01928L6.9108 12.2057C6.85273 12.2655 6.82312 12.3473 6.82951 12.4303L7.23474 17.7078C7.24374 17.8247 7.32213 17.9247 7.43355 17.9613C7.46334 17.9711 7.49394 17.9758 7.52419 17.9758C7.60717 17.9758 7.68788 17.9402 7.74402 17.8752L10.5742 14.5956L14.0729 16.2673C14.1488 16.3036 14.2367 16.3051 14.3139 16.2715C14.3911 16.2379 14.4498 16.1725 14.475 16.0923L19.4092 0.377297C19.4437 0.267555 19.4101 0.147884 19.3237 0.0720516Z" fill="white"/>
</svg>
