<svg width="17" height="16" viewBox="0 0 17 16" fill="none" xmlns="http://www.w3.org/2000/svg">
<path fill-rule="evenodd" clip-rule="evenodd" d="M4.67529 8C4.67529 5.89111 6.39111 4.17529 8.5 4.17529C10.6089 4.17529 12.3247 5.89111 12.3247 8C12.3247 10.1089 10.6089 11.8247 8.5 11.8247C6.39111 11.8247 4.67529 10.1089 4.67529 8ZM5.63147 8C5.63147 9.58167 6.91833 10.8685 8.5 10.8685C10.0817 10.8685 11.3685 9.58167 11.3685 8C11.3685 6.41833 10.0817 5.13147 8.5 5.13147C6.91833 5.13147 5.63147 6.41833 5.63147 8Z" fill="#0B152A"/>
<path fill-rule="evenodd" clip-rule="evenodd" d="M14.8938 5.91089L16.1235 6.17822C16.3433 6.22607 16.5 6.42053 16.5 6.64539V9.35461C16.5 9.57947 16.3433 9.77393 16.1235 9.82178L14.8938 10.0891C14.7869 10.4165 14.6544 10.7358 14.498 11.0435L15.1788 12.1024C15.3004 12.2916 15.2737 12.54 15.1147 12.699L13.199 14.6147C13.04 14.7738 12.7916 14.8004 12.6024 14.6788L11.5435 13.998C11.2358 14.1544 10.9165 14.2869 10.5891 14.3938L10.3218 15.6235C10.274 15.8433 10.0795 16 9.85461 16H7.14539C6.92053 16 6.72595 15.8433 6.67822 15.6235L6.41089 14.3938C6.0835 14.2869 5.76416 14.1544 5.45654 13.998L4.39758 14.6788C4.20837 14.8004 3.95996 14.7737 3.80103 14.6147L1.88525 12.699C1.72632 12.54 1.69958 12.2916 1.82117 12.1024L2.50195 11.0435C2.34558 10.7358 2.21313 10.4165 2.1062 10.0891L0.876465 9.82178C0.656738 9.77393 0.5 9.57947 0.5 9.35461V6.64539C0.5 6.42053 0.656738 6.22607 0.876465 6.17822L2.1062 5.91089C2.21313 5.5835 2.34558 5.26416 2.50195 4.95654L1.82117 3.89758C1.69958 3.70837 1.72632 3.45996 1.88525 3.30103L3.80103 1.38525C3.95996 1.22632 4.20837 1.19958 4.39758 1.32117L5.45654 2.00195C5.76416 1.84558 6.0835 1.71313 6.41089 1.6062L6.67822 0.376465C6.72595 0.156738 6.92053 0 7.14539 0H9.85461C10.0795 0 10.274 0.156738 10.3218 0.376465L10.5891 1.6062C10.9165 1.71313 11.2358 1.84558 11.5435 2.00195L12.6024 1.32117C12.7916 1.19958 13.04 1.22632 13.199 1.38525L15.1147 3.30103C15.2737 3.45996 15.3004 3.70837 15.1788 3.89758L14.498 4.95654C14.6544 5.26416 14.7869 5.5835 14.8938 5.91089ZM14.4163 9.21436L15.5438 8.96924V7.03076L14.4161 6.78564C14.2429 6.74792 14.1049 6.61755 14.0573 6.4469C13.9332 6.00244 13.7551 5.57263 13.5275 5.16943C13.4403 5.01501 13.4458 4.82507 13.5417 4.6759L14.166 3.70471L12.7953 2.33386L11.8241 2.95825C11.6749 3.05408 11.485 3.05957 11.3306 2.97241C10.9274 2.74487 10.4976 2.56665 10.0531 2.44275C9.88245 2.39514 9.75208 2.25696 9.71436 2.08374L9.46924 0.956177H7.53076L7.28564 2.08374C7.24792 2.25696 7.11755 2.39514 6.9469 2.44275C6.50244 2.56665 6.07263 2.74487 5.66931 2.97241C5.51501 3.05957 5.32507 3.0542 5.1759 2.95825L4.20459 2.33386L2.83386 3.70471L3.45825 4.6759C3.5542 4.82507 3.55957 5.01501 3.47241 5.16943C3.24487 5.57263 3.06665 6.00244 2.94275 6.4469C2.89514 6.61755 2.75696 6.74792 2.58374 6.78564L1.45618 7.03076V8.96924L2.58386 9.21436C2.75708 9.25208 2.89514 9.38245 2.94275 9.5531C3.06677 9.99756 3.245 10.4274 3.47253 10.8306C3.55969 10.985 3.5542 11.1749 3.45825 11.3241L2.83398 12.2953L4.20471 13.6661L5.1759 13.0417C5.32507 12.9459 5.51501 12.9404 5.66943 13.0276C6.07263 13.2551 6.50244 13.4333 6.9469 13.5573C7.11755 13.6049 7.24792 13.743 7.28564 13.9163L7.53076 15.0438H9.46924L9.71436 13.9163C9.75208 13.743 9.88245 13.6049 10.0531 13.5573C10.4976 13.4333 10.9274 13.2551 11.3307 13.0276C11.485 12.9404 11.6749 12.9458 11.8241 13.0417L12.7954 13.6661L14.1661 12.2953L13.5417 11.3241C13.4458 11.1749 13.4404 10.985 13.5276 10.8306C13.7551 10.4274 13.9333 9.99756 14.0573 9.5531C14.1049 9.38245 14.243 9.25208 14.4163 9.21436Z" fill="#0B152A"/>
</svg>
