<svg width="999" height="215" viewBox="0 0 999 215" fill="none" xmlns="http://www.w3.org/2000/svg">
<path d="M2 141.311C57.6937 118.727 89.5254 58.0389 142.99 30.5859C184.427 9.30881 237.149 11.4701 276.255 36.7867C305.586 55.7722 325.972 85.5002 345.64 114.393C365.308 143.286 385.862 172.936 415.374 191.641C444.885 210.344 485.965 215.366 513.763 194.197C533.217 179.376 542.909 153.998 542.374 129.536C542.046 114.693 534.404 96.6034 519.57 96.5368C507.87 96.4897 499.454 108.367 497.031 119.823C489.541 155.235 519.742 188.842 553.362 202.179C573.035 209.986 594.799 213.232 615.606 209.373C645.12 203.904 670.817 184.397 688.262 159.952C701.695 141.127 710.652 119.547 716.919 97.203C718.792 90.5255 720.425 83.7797 721.865 77.0187C724.82 63.141 727.007 48.6613 723.739 34.8557C720.474 21.0474 710.616 7.97708 696.811 4.74765C680.06 0.830155 662.656 12.8323 655.496 28.4912C648.339 44.1473 649.359 62.3032 652.522 79.2272C658.995 113.844 674.621 147.719 701.382 170.586C728.147 193.45 767.022 203.544 799.866 190.906C833.568 177.936 856.524 144.113 891.011 133.409C935.284 119.667 973.907 151.426 995 187.571" stroke="#E1F2FF" stroke-width="7"/>
</svg>
