<svg width="48" height="48" viewBox="0 0 48 48" fill="none" xmlns="http://www.w3.org/2000/svg">
<circle cx="24" cy="24" r="24" fill="#FEC37F"/>
<path fill-rule="evenodd" clip-rule="evenodd" d="M15 23.9872C15 19.0237 19.0237 15 23.9872 15C28.9483 15.0059 32.9686 19.0261 32.9745 23.9872C32.9745 28.9507 28.9507 32.9745 23.9872 32.9745C19.0237 32.9745 15 28.9507 15 23.9872ZM16.634 23.9872C16.634 28.0483 19.9262 31.3404 23.9872 31.3404C28.0464 31.3359 31.3359 28.0464 31.3404 23.9872C31.3404 19.9262 28.0483 16.634 23.9872 16.634C19.9262 16.634 16.634 19.9262 16.634 23.9872Z" fill="white"/>
<path d="M23.9874 18.2681C23.5362 18.2681 23.1704 18.6339 23.1704 19.0851V25.6213C23.1704 26.0725 23.5362 26.4383 23.9874 26.4383C24.4387 26.4383 24.8045 26.0725 24.8045 25.6213V19.0851C24.8045 18.6339 24.4387 18.2681 23.9874 18.2681Z" fill="white"/>
<circle cx="23.9874" cy="28.0724" r="0.817021" fill="white"/>
</svg>
