<svg width="32" height="32" viewBox="0 0 32 32" fill="none" xmlns="http://www.w3.org/2000/svg">
<circle cx="16" cy="16" r="16" fill="#C4FCDC"/>
<path d="M16.0003 6.85718C10.9587 6.85718 6.85742 10.9585 6.85742 16C6.85742 21.0416 10.9587 25.1429 16.0003 25.1429C21.0419 25.1429 25.1431 21.0416 25.1431 16C25.1431 10.9585 21.0419 6.85718 16.0003 6.85718Z" fill="#1DC5A3"/>
<path d="M20.3484 20.7291C20.1998 20.8777 20.0047 20.9525 19.8097 20.9525C19.6147 20.9525 19.4195 20.8777 19.2711 20.7291L15.4615 16.9197C15.3182 16.7772 15.2383 16.5836 15.2383 16.381V11.4286C15.2383 11.0073 15.5795 10.6667 16.0001 10.6667C16.4208 10.6667 16.762 11.0073 16.762 11.4286V16.0656L20.3484 19.6518C20.6462 19.9498 20.6462 20.4313 20.3484 20.7291Z" fill="#1DC5A3"/>
<path d="M20.3484 20.7291C20.1998 20.8777 20.0047 20.9525 19.8097 20.9525C19.6147 20.9525 19.4195 20.8777 19.2711 20.7291L15.4615 16.9197C15.3182 16.7772 15.2383 16.5836 15.2383 16.381V11.4286C15.2383 11.0073 15.5795 10.6667 16.0001 10.6667C16.4208 10.6667 16.762 11.0073 16.762 11.4286V16.0656L20.3484 19.6518C20.6462 19.9498 20.6462 20.4313 20.3484 20.7291Z" fill="white"/>
</svg>
