<svg width="21" height="20" viewBox="0 0 21 20" fill="none" xmlns="http://www.w3.org/2000/svg">
<path fill-rule="evenodd" clip-rule="evenodd" d="M14.84 10.5872L19.3433 15.0973L19.3523 15.1017C19.8597 15.6074 20.145 16.2943 20.145 17.0107C20.145 17.7271 19.8597 18.414 19.3523 18.9196L19.1491 19.1228C18.0944 20.1761 16.3859 20.1761 15.3312 19.1228L10.8212 14.615C10.6691 14.4618 10.6691 14.2145 10.8212 14.0613L11.7142 13.1682L10.6515 12.1211L7.86286 14.8963C7.80704 15.9546 7.80704 17.3679 7.80704 17.4215C7.77579 17.6738 7.40293 18.1739 5.05861 19.9065C4.99448 19.9558 4.91621 19.9832 4.83534 19.9846H3.8016C3.66099 19.9855 3.53087 19.9103 3.4614 19.7881C3.39194 19.6658 3.39396 19.5155 3.4667 19.3952L4.53839 17.589C4.59197 17.4438 4.74826 16.7629 3.92217 16.1801C3.03356 15.5617 2.59818 15.8363 2.26105 16.2315C1.83975 16.8218 1.45069 17.4344 1.09558 18.0667C1.02924 18.1828 0.907634 18.2562 0.774078 18.261C0.641352 18.2632 0.516386 18.1986 0.441407 18.0891C0.396754 18.031 -0.496322 16.6736 0.396754 14.3382C1.09558 12.5319 2.01099 12.2819 2.11369 12.2573H2.14272L4.82194 11.8777L7.61727 9.08241L5.33546 6.79391C5.08613 6.89316 4.82015 6.94393 4.55179 6.9435C3.99114 6.94582 3.45302 6.72301 3.05812 6.32504C3.03914 6.3058 3.02196 6.28488 3.00677 6.26253L0.486061 2.40444C0.384174 2.25049 0.404707 2.0461 0.53518 1.91548L2.14048 0.310182C2.27109 0.179709 2.47549 0.159176 2.62944 0.261063L6.49422 2.77507C6.51707 2.78958 6.53807 2.80682 6.55674 2.82642C6.95502 3.22221 7.17851 3.76083 7.17743 4.32232C7.17601 4.58999 7.12451 4.85503 7.0256 5.10376L9.30741 7.39227L11.8616 4.83584L12.2456 2.12312C12.268 2.02042 12.5202 1.10279 14.3243 0.406188C16.6597 -0.498051 18.0194 0.410653 18.0752 0.448609C18.1859 0.524405 18.2499 0.651688 18.2449 0.785745C18.2383 0.91993 18.1644 1.04172 18.0484 1.10948C17.4159 1.4643 16.8032 1.85337 16.2131 2.27495C15.8179 2.61208 15.5388 3.04076 16.164 3.93383C16.7423 4.7577 17.4188 4.59918 17.5728 4.55006L19.3791 3.47837C19.5003 3.40676 19.6508 3.40676 19.772 3.47837C19.8933 3.54839 19.9682 3.67768 19.9685 3.81773V4.85147C19.9665 4.93188 19.94 5.00978 19.8926 5.07474C18.1846 7.37217 17.68 7.77852 17.4165 7.81871C17.3977 7.8214 17.2567 7.82287 17.0399 7.82514C16.5357 7.83041 15.6217 7.83997 14.8802 7.87899L12.3416 10.431L13.3932 11.4803L14.2863 10.5872C14.4414 10.4398 14.6849 10.4398 14.84 10.5872ZM12.6163 5.07474C12.6045 5.1589 12.5661 5.23711 12.5069 5.29801L9.86112 7.94374L10.5622 8.64704L13.1186 6.09284C13.2132 5.97913 13.364 5.92861 13.508 5.96233C13.6521 5.99606 13.7647 6.10825 13.799 6.25215C13.8333 6.39606 13.7834 6.547 13.6701 6.64209L11.1204 9.20298L11.7902 9.87278L14.4337 7.24268C14.5021 7.17403 14.5936 7.13342 14.6904 7.12881C15.3312 7.09309 16.7601 7.02387 17.2736 7.05067C17.5728 6.80954 18.4547 5.71775 19.1871 4.73537V4.5121C19.1871 4.5121 17.9033 5.27791 17.8854 5.27791C17.4188 5.46099 16.3203 5.51681 15.5232 4.38484C15.0142 3.65921 14.6301 2.60315 15.7041 1.68329C16.1039 1.37997 16.5222 1.10183 16.9566 0.850493C16.1609 0.721296 15.3448 0.823598 14.6056 1.14521C13.2972 1.65203 13.036 2.23476 13.0114 2.29727L12.6163 5.07474ZM4.54509 6.16206C4.20545 6.16372 3.8783 6.03414 3.63192 5.80036L1.31216 2.24369L2.46869 1.08716L6.02536 3.41362C6.51697 3.93945 6.50514 4.75979 5.99857 5.27121L5.48728 5.7825C5.23764 6.03253 4.89841 6.1724 4.54509 6.17099V6.16206ZM7.09705 14.7066C7.10134 14.6103 7.14204 14.5194 7.21092 14.452L10.0933 11.5585L9.42351 10.8887L6.60363 13.7085C6.53099 13.7826 6.43162 13.8243 6.32789 13.8243C6.22416 13.8243 6.12479 13.7826 6.05215 13.7085C5.9781 13.6359 5.93638 13.5365 5.93638 13.4328C5.93638 13.3291 5.9781 13.2297 6.05215 13.1571L8.87204 10.335L8.16874 9.63389L5.28411 12.523C5.22378 12.5831 5.14529 12.6215 5.06084 12.6324L2.27221 13.0276C2.2691 13.0294 2.26447 13.0318 2.25843 13.0349L2.2584 13.0349C2.15158 13.0903 1.60187 13.3753 1.12014 14.6239C0.796918 15.3627 0.693809 16.179 0.823197 16.975C1.0748 16.5407 1.35292 16.1224 1.65599 15.7224C2.57362 14.6485 3.63415 15.0325 4.35977 15.5416C5.50068 16.3409 5.44263 17.4349 5.25285 17.9038C5.23945 17.9261 4.48034 19.2054 4.48034 19.2054H4.70361C5.68153 18.4731 6.78001 17.589 7.02114 17.2898C6.99211 16.7763 7.06133 15.3496 7.09705 14.7066ZM6.0008 6.36077L6.04099 6.32504L6.55004 5.81599L6.58576 5.7758L12.8373 12.0273L12.2523 12.6123L6.0008 6.36077ZM18.5887 18.578L18.7919 18.3726C19.156 18.0154 19.3626 17.5278 19.3659 17.0178C19.3693 16.5077 19.1691 16.0174 18.8097 15.6554L14.5676 11.4133L13.6745 12.3064L12.5359 13.4429L11.6428 14.3359L15.8737 18.578C16.6246 19.3251 17.8379 19.3251 18.5887 18.578Z" fill="white"/>
<path d="M14.322 13.5456C14.2493 13.4715 14.15 13.4298 14.0462 13.4298C13.9425 13.4298 13.8432 13.4715 13.7705 13.5456C13.6187 13.698 13.6187 13.9446 13.7705 14.0971L17.1195 17.4461C17.2185 17.545 17.3626 17.5836 17.4977 17.5474C17.6328 17.5112 17.7384 17.4057 17.7746 17.2706C17.8108 17.1355 17.7722 16.9913 17.6733 16.8924L14.322 13.5456Z" fill="white"/>
</svg>
