<svg width="32" height="32" viewBox="0 0 32 32" fill="none" xmlns="http://www.w3.org/2000/svg">
<circle cx="16" cy="16" r="16" fill="#FFFBDA"/>
<path fill-rule="evenodd" clip-rule="evenodd" d="M20.84 16.5872L25.3433 21.0973L25.3523 21.1017C25.8597 21.6074 26.145 22.2943 26.145 23.0107C26.145 23.7271 25.8597 24.414 25.3523 24.9196L25.1491 25.1228C24.0944 26.1761 22.3859 26.1761 21.3312 25.1228L16.8212 20.615C16.6691 20.4618 16.6691 20.2145 16.8212 20.0613L17.7142 19.1682L16.6515 18.1211L13.8629 20.8963C13.807 21.9546 13.807 23.3679 13.807 23.4215C13.7758 23.6738 13.4029 24.1739 11.0586 25.9065C10.9945 25.9558 10.9162 25.9832 10.8353 25.9846H9.8016C9.66099 25.9855 9.53087 25.9103 9.4614 25.7881C9.39194 25.6658 9.39396 25.5155 9.4667 25.3952L10.5384 23.589C10.592 23.4438 10.7483 22.7629 9.92217 22.1801C9.03356 21.5617 8.59818 21.8363 8.26105 22.2315C7.83975 22.8218 7.45069 23.4344 7.09558 24.0667C7.02924 24.1828 6.90763 24.2562 6.77408 24.261C6.64135 24.2632 6.51639 24.1986 6.44141 24.0891C6.39675 24.031 5.50368 22.6736 6.39675 20.3382C7.09558 18.5319 8.01099 18.2819 8.11369 18.2573H8.14272L10.8219 17.8777L13.6173 15.0824L11.3355 12.7939C11.0861 12.8932 10.8201 12.9439 10.5518 12.9435C9.99114 12.9458 9.45302 12.723 9.05812 12.325C9.03914 12.3058 9.02196 12.2849 9.00677 12.2625L6.48606 8.40444C6.38417 8.25049 6.40471 8.0461 6.53518 7.91548L8.14048 6.31018C8.27109 6.17971 8.47549 6.15918 8.62944 6.26106L12.4942 8.77507C12.5171 8.78958 12.5381 8.80682 12.5567 8.82642C12.955 9.22221 13.1785 9.76083 13.1774 10.3223C13.176 10.59 13.1245 10.855 13.0256 11.1038L15.3074 13.3923L17.8616 10.8358L18.2456 8.12312C18.268 8.02042 18.5202 7.10279 20.3243 6.40619C22.6597 5.50195 24.0194 6.41065 24.0752 6.44861C24.1859 6.52441 24.2499 6.65169 24.2449 6.78574C24.2383 6.91993 24.1644 7.04172 24.0484 7.10948C23.4159 7.4643 22.8032 7.85337 22.2131 8.27495C21.8179 8.61208 21.5388 9.04076 22.164 9.93383C22.7423 10.7577 23.4188 10.5992 23.5728 10.5501L25.3791 9.47837C25.5003 9.40676 25.6508 9.40676 25.772 9.47837C25.8933 9.54839 25.9682 9.67768 25.9685 9.81773V10.8515C25.9665 10.9319 25.94 11.0098 25.8926 11.0747C24.1846 13.3722 23.68 13.7785 23.4165 13.8187C23.3977 13.8214 23.2567 13.8229 23.0399 13.8251C22.5357 13.8304 21.6217 13.84 20.8802 13.879L18.3416 16.431L19.3932 17.4803L20.2863 16.5872C20.4414 16.4398 20.6849 16.4398 20.84 16.5872ZM18.6163 11.0747C18.6045 11.1589 18.5661 11.2371 18.5069 11.298L15.8611 13.9437L16.5622 14.647L19.1186 12.0928C19.2132 11.9791 19.364 11.9286 19.508 11.9623C19.6521 11.9961 19.7647 12.1082 19.799 12.2522C19.8333 12.3961 19.7834 12.547 19.6701 12.6421L17.1204 15.203L17.7902 15.8728L20.4337 13.2427C20.5021 13.174 20.5936 13.1334 20.6904 13.1288C21.3312 13.0931 22.7601 13.0239 23.2736 13.0507C23.5728 12.8095 24.4547 11.7178 25.1871 10.7354V10.5121C25.1871 10.5121 23.9033 11.2779 23.8854 11.2779C23.4188 11.461 22.3203 11.5168 21.5232 10.3848C21.0142 9.65921 20.6301 8.60315 21.7041 7.68329C22.1039 7.37997 22.5222 7.10183 22.9566 6.85049C22.1609 6.7213 21.3448 6.8236 20.6056 7.14521C19.2972 7.65203 19.036 8.23476 19.0114 8.29727L18.6163 11.0747ZM10.5451 12.1621C10.2055 12.1637 9.8783 12.0341 9.63192 11.8004L7.31216 8.24369L8.46869 7.08716L12.0254 9.41362C12.517 9.93945 12.5051 10.7598 11.9986 11.2712L11.4873 11.7825C11.2376 12.0325 10.8984 12.1724 10.5451 12.171V12.1621ZM13.0971 20.7066C13.1013 20.6103 13.142 20.5194 13.2109 20.452L16.0933 17.5585L15.4235 16.8887L12.6036 19.7085C12.531 19.7826 12.4316 19.8243 12.3279 19.8243C12.2242 19.8243 12.1248 19.7826 12.0522 19.7085C11.9781 19.6359 11.9364 19.5365 11.9364 19.4328C11.9364 19.3291 11.9781 19.2297 12.0522 19.1571L14.872 16.335L14.1687 15.6339L11.2841 18.523C11.2238 18.5831 11.1453 18.6215 11.0608 18.6324L8.27221 19.0276C8.2691 19.0294 8.26447 19.0318 8.25843 19.0349L8.2584 19.0349C8.15158 19.0903 7.60187 19.3753 7.12014 20.6239C6.79692 21.3627 6.69381 22.179 6.8232 22.975C7.0748 22.5407 7.35292 22.1224 7.65599 21.7224C8.57362 20.6485 9.63415 21.0325 10.3598 21.5416C11.5007 22.3409 11.4426 23.4349 11.2529 23.9038C11.2395 23.9261 10.4803 25.2054 10.4803 25.2054H10.7036C11.6815 24.4731 12.78 23.589 13.0211 23.2898C12.9921 22.7763 13.0613 21.3496 13.0971 20.7066ZM12.0008 12.3608L12.041 12.325L12.55 11.816L12.5858 11.7758L18.8373 18.0273L18.2523 18.6123L12.0008 12.3608ZM24.5887 24.578L24.7919 24.3726C25.156 24.0154 25.3626 23.5278 25.3659 23.0178C25.3693 22.5077 25.1691 22.0174 24.8097 21.6554L20.5676 17.4133L19.6745 18.3064L18.5359 19.4429L17.6428 20.3359L21.8737 24.578C22.6246 25.3251 23.8379 25.3251 24.5887 24.578Z" fill="#FEC731"/>
<path d="M20.322 19.5456C20.2493 19.4715 20.15 19.4298 20.0462 19.4298C19.9425 19.4298 19.8432 19.4715 19.7705 19.5456C19.6187 19.698 19.6187 19.9446 19.7705 20.0971L23.1195 23.4461C23.2185 23.545 23.3626 23.5836 23.4977 23.5474C23.6328 23.5112 23.7384 23.4057 23.7746 23.2706C23.8108 23.1355 23.7722 22.9913 23.6733 22.8924L20.322 19.5456Z" fill="#FEC731"/>
</svg>
