<svg width="24" height="24" viewBox="0 0 24 24" fill="none" xmlns="http://www.w3.org/2000/svg">
<path fill-rule="evenodd" clip-rule="evenodd" d="M0 12C0 5.37258 5.37258 0 12 0C18.6274 0 24 5.37258 24 12C24 18.6274 18.6274 24 12 24C5.37258 24 0 18.6274 0 12ZM9.032 17.368C9.18297 17.5177 9.38736 17.6012 9.6 17.6C9.81264 17.6012 10.017 17.5177 10.168 17.368L19.768 7.768C20.0817 7.4543 20.0817 6.9457 19.768 6.632C19.4543 6.3183 18.9457 6.3183 18.632 6.632L9.6 15.664L5.368 11.384C5.16507 11.1811 4.8693 11.1018 4.5921 11.1761C4.31489 11.2504 4.09837 11.4669 4.0241 11.7441C3.94982 12.0213 4.02907 12.3171 4.232 12.52L9.032 17.368Z" fill="#1DC5A3"/>
</svg>
