<svg width="18" height="18" viewBox="0 0 18 18" fill="none" xmlns="http://www.w3.org/2000/svg">
<circle cx="9" cy="9" r="8" fill="#38424D" stroke="white"/>
<path fill-rule="evenodd" clip-rule="evenodd" d="M12.7349 5.99805H11.9864H10.4893V5.24951C10.4893 5.1116 10.3777 5 10.2398 5H7.74464C7.60685 5 7.49513 5.1116 7.49513 5.24951V5.99805H5.99805H5.24951C5.11172 5.99805 5 6.10965 5 6.24756C5 6.38548 5.11172 6.49708 5.24951 6.49708H5.76698L6.24829 12.7541C6.25828 12.884 6.36672 12.9844 6.49708 12.9844H11.4873C11.6177 12.9844 11.7261 12.884 11.7361 12.7541L12.2174 6.49708H12.7349C12.8728 6.49708 12.9844 6.38548 12.9844 6.24756C12.9844 6.10965 12.8728 5.99805 12.7349 5.99805ZM7.99415 5.49903H9.99025V5.99805H7.99415V5.49903ZM6.72819 12.4854H11.2563L11.7169 6.49708H10.2398H7.74464H6.26754L6.72819 12.4854Z" fill="white"/>
<path d="M8.99219 7.49512C8.8544 7.49512 8.74268 7.60672 8.74268 7.74463V11.2378C8.74268 11.3757 8.8544 11.4873 8.99219 11.4873C9.12998 11.4873 9.2417 11.3757 9.2417 11.2378V7.74463C9.2417 7.60672 9.12998 7.49512 8.99219 7.49512Z" fill="white"/>
<path d="M9.99023 7.74463V11.2378C9.99023 11.3757 10.1018 11.4873 10.2397 11.4873C10.3777 11.4873 10.4893 11.3757 10.4893 11.2378V7.74463C10.4893 7.60672 10.3777 7.49512 10.2397 7.49512C10.1018 7.49512 9.99023 7.60672 9.99023 7.74463Z" fill="white"/>
<path d="M7.74463 7.49512C7.60684 7.49512 7.49512 7.60672 7.49512 7.74463V11.2378C7.49512 11.3757 7.60684 11.4873 7.74463 11.4873C7.88242 11.4873 7.99414 11.3757 7.99414 11.2378V7.74463C7.99414 7.60672 7.88242 7.49512 7.74463 7.49512Z" fill="white"/>
</svg>
