<svg width="16" height="16" viewBox="0 0 16 16" fill="none" xmlns="http://www.w3.org/2000/svg">
<path fill-rule="evenodd" clip-rule="evenodd" d="M0.5 15.4161C0.5 11.2865 3.14759 9.01221 7.955 9.01221C12.7624 9.01221 15.41 11.2867 15.41 15.4161C15.41 15.7386 15.1486 16.0001 14.826 16.0001H1.08394C0.761406 16.0001 0.5 15.7386 0.5 15.4161ZM7.955 10.1801C4.02391 10.1801 1.91881 11.7445 1.68912 14.8322H14.2211C13.9912 11.7445 11.8861 10.1801 7.955 10.1801Z" fill="#0B152A"/>
<path fill-rule="evenodd" clip-rule="evenodd" d="M4.08154 3.95116C4.08154 1.69869 5.74673 0 7.95501 0C10.1633 0 11.8285 1.69869 11.8285 3.95134C11.8285 6.26959 10.0909 8.15553 7.95501 8.15553C5.81917 8.15553 4.08154 6.26959 4.08154 3.95116ZM5.24942 3.95134C5.24942 5.62569 6.46304 6.98784 7.95501 6.98784C9.44698 6.98784 10.6606 5.62569 10.6606 3.95134C10.6606 2.36438 9.49761 1.16788 7.95501 1.16788C6.38732 1.16788 5.24942 2.3385 5.24942 3.95134Z" fill="#0B152A"/>
</svg>
