<svg width="28" height="26" viewBox="0 0 28 26" fill="none" xmlns="http://www.w3.org/2000/svg">
<rect y="2" width="24" height="24" rx="4" fill="#F4F6F9"/>
<path d="M11.2546 16.3657V18.7143C11.2546 19.1431 10.907 19.4907 10.4782 19.4907H7.91608L6.20799 21.354L5.78097 19.4907H4.61638C4.19846 19.5015 3.85083 19.1716 3.83998 18.7536C3.83965 18.7405 3.83965 18.7274 3.83998 18.7143V15.104C3.82913 14.6861 4.15911 14.3385 4.57703 14.3276C4.59015 14.3273 4.60326 14.3273 4.61638 14.3276H6.67384V14.8129C6.67384 15.6705 7.36906 16.3657 8.22663 16.3657H11.2546V16.3657Z" fill="white"/>
<path d="M11.2546 16.3657H8.22662C7.36905 16.3657 6.67383 15.6705 6.67383 14.8129V9.51397C6.67383 8.6564 7.36905 7.96118 8.22662 7.96118H17.194C18.0515 7.96118 18.7468 8.6564 18.7468 9.51397V14.8129C18.7468 15.6705 18.0515 16.3657 17.194 16.3657H15.6023L14.923 19.413L12.1474 16.3656H11.2546V16.3657Z" fill="white"/>
<path fill-rule="evenodd" clip-rule="evenodd" d="M17.2134 7.67008H8.22662C7.15907 7.67008 6.24681 8.44647 6.24681 9.51403V13.8812H4.59697C3.95644 13.8812 3.52942 14.4635 3.52942 15.104V18.7143C3.52942 19.3548 3.95644 19.8983 4.59697 19.8983H5.47041L5.81978 21.4511C5.85355 21.5888 5.95647 21.699 6.09151 21.7422H6.20798C6.31037 21.7408 6.40804 21.6989 6.47971 21.6257L8.07133 19.8983H10.4782C11.1311 19.8882 11.6609 19.367 11.6816 18.7143V16.7927H11.9727L14.6319 19.6848C14.695 19.7716 14.7963 19.8222 14.9036 19.8207H15.0201C15.1523 19.7844 15.2556 19.6811 15.2918 19.5489L15.9129 16.7927H17.2134C18.2809 16.7927 19.0573 15.8805 19.0573 14.8129V9.51399C19.09 8.52832 18.3175 7.70277 17.3318 7.67004C17.2923 7.66874 17.2528 7.66874 17.2134 7.67008ZM10.9052 18.7143C10.8858 18.9383 10.7029 19.1129 10.4782 19.1219H7.89664C7.79425 19.1233 7.69658 19.1652 7.62491 19.2383L6.4021 20.5582L6.14977 19.413C6.10444 19.2371 5.94317 19.1161 5.76157 19.1219H4.59697C4.38346 19.1219 4.30582 18.9278 4.30582 18.7143V15.104C4.30582 14.8905 4.38346 14.6576 4.59697 14.6576H6.24681V14.8129C6.26746 15.8977 7.14186 16.7721 8.22662 16.7927H10.9052V18.7143ZM17.2134 16.0163C17.8539 16.0163 18.2809 15.4534 18.2809 14.8129H18.2809V9.51399C18.2833 9.47401 18.2833 9.43393 18.2809 9.39395C18.2478 8.83749 17.7699 8.4133 17.2134 8.44643H8.22662C7.58609 8.44643 7.0232 8.87346 7.0232 9.51399V14.8129C7.04341 15.469 7.57056 15.9961 8.22662 16.0163H12.1474C12.2498 16.0178 12.3474 16.0596 12.4191 16.1328L14.7095 18.6172L15.2335 16.3075C15.2631 16.1299 15.4228 16.0039 15.6023 16.0163H17.2134Z" fill="#0B152A"/>
<path d="M13.409 11.3579H8.75062C8.53622 11.3579 8.36243 11.1841 8.36243 10.9697C8.36243 10.7553 8.53622 10.5815 8.75062 10.5815H13.409C13.6234 10.5815 13.7972 10.7553 13.7972 10.9697C13.7972 11.1841 13.6234 11.3579 13.409 11.3579Z" fill="#0B152A"/>
<path d="M16.5146 13.6872H8.75062C8.53622 13.6872 8.36243 13.5134 8.36243 13.299C8.36243 13.0846 8.53622 12.9108 8.75062 12.9108H16.5146C16.729 12.9108 16.9028 13.0846 16.9028 13.299C16.9028 13.5134 16.729 13.6872 16.5146 13.6872Z" fill="#0B152A"/>
<circle cx="24" cy="4" r="4" fill="#2281EE"/>
</svg>
