<svg width="16" height="16" viewBox="0 0 16 16" fill="none" xmlns="http://www.w3.org/2000/svg">
<g opacity="0.5">
<path fill-rule="evenodd" clip-rule="evenodd" d="M0 15.4161C0 11.2865 2.64759 9.01221 7.455 9.01221C12.2624 9.01221 14.91 11.2867 14.91 15.4161C14.91 15.7386 14.6486 16.0001 14.326 16.0001H0.583938C0.261406 16.0001 0 15.7386 0 15.4161ZM7.455 10.1801C3.52391 10.1801 1.41881 11.7445 1.18912 14.8322H13.7211C13.4912 11.7445 11.3861 10.1801 7.455 10.1801Z" fill="white"/>
<path fill-rule="evenodd" clip-rule="evenodd" d="M3.58154 3.95116C3.58154 1.69869 5.24673 0 7.45501 0C9.66329 0 11.3285 1.69869 11.3285 3.95134C11.3285 6.26959 9.59086 8.15553 7.45501 8.15553C5.31917 8.15553 3.58154 6.26959 3.58154 3.95116ZM4.74942 3.95134C4.74942 5.62569 5.96304 6.98784 7.45501 6.98784C8.94698 6.98784 10.1606 5.62569 10.1606 3.95134C10.1606 2.36438 8.99761 1.16788 7.45501 1.16788C5.88732 1.16788 4.74942 2.3385 4.74942 3.95134Z" fill="white"/>
</g>
</svg>
