<svg width="24" height="24" viewBox="0 0 24 24" fill="none" xmlns="http://www.w3.org/2000/svg">
<rect width="24" height="24" rx="6" fill="#F4F6F9"/>
<path fill-rule="evenodd" clip-rule="evenodd" d="M5.57141 18.3566C5.57141 14.8169 7.84078 12.8676 11.9614 12.8676C16.082 12.8676 18.3514 14.8171 18.3514 18.3566C18.3514 18.6331 18.1273 18.8571 17.8509 18.8571H6.07193C5.79547 18.8571 5.57141 18.6331 5.57141 18.3566ZM11.9614 13.8686C8.5919 13.8686 6.78754 15.2095 6.59066 17.8561H17.3323C17.1353 15.2095 15.3309 13.8686 11.9614 13.8686Z" fill="#0B152A"/>
<path fill-rule="evenodd" clip-rule="evenodd" d="M8.6413 8.52953C8.6413 6.59884 10.0686 5.14282 11.9614 5.14282C13.8542 5.14282 15.2815 6.59884 15.2815 8.52969C15.2815 10.5168 13.7921 12.1333 11.9614 12.1333C10.1307 12.1333 8.6413 10.5168 8.6413 8.52953ZM9.64233 8.52969C9.64233 9.96484 10.6826 11.1324 11.9614 11.1324C13.2402 11.1324 14.2805 9.96484 14.2805 8.52969C14.2805 7.16943 13.2836 6.14386 11.9614 6.14386C10.6177 6.14386 9.64233 7.14725 9.64233 8.52969Z" fill="#0B152A"/>
</svg>
