<svg width="72" height="72" viewBox="0 0 72 72" fill="none" xmlns="http://www.w3.org/2000/svg">
<rect width="72" height="72" rx="36" fill="#F5F6F9"/>
<path d="M35.8974 36.762C41.6092 36.762 46.2784 32.0928 46.2784 26.381C46.2784 20.6692 41.6092 16 35.8974 16C30.1855 16 25.5165 20.6692 25.5165 26.381C25.5165 32.0928 30.1856 36.762 35.8974 36.762Z" fill="#E5EAEE"/>
<path d="M53.7128 45.0577C53.4408 44.3777 53.0782 43.7431 52.6702 43.1538C50.5849 40.0712 47.3664 38.0313 43.7399 37.5326C43.2866 37.4873 42.788 37.5779 42.4253 37.8499C40.5213 39.2552 38.2548 39.9805 35.8975 39.9805C33.5402 39.9805 31.2736 39.2552 29.3697 37.8499C29.007 37.5779 28.5083 37.4419 28.055 37.5326C24.4285 38.0313 21.1646 40.0712 19.1247 43.1538C18.7167 43.7431 18.354 44.4231 18.0821 45.0577C17.9461 45.3298 17.9914 45.6471 18.1274 45.9191C18.4901 46.5537 18.9434 47.1884 19.3513 47.7324C19.986 48.5937 20.666 49.3643 21.4366 50.0896C22.0713 50.7242 22.7966 51.3135 23.5219 51.9029C27.1031 54.5775 31.4097 55.9827 35.8522 55.9827C40.2947 55.9827 44.6012 54.5774 48.1824 51.9029C48.9077 51.3589 49.633 50.7242 50.2677 50.0896C50.993 49.3643 51.7183 48.5936 52.353 47.7324C52.8063 47.143 53.2143 46.5537 53.5769 45.9191C53.8035 45.6471 53.8488 45.3297 53.7128 45.0577Z" fill="#E5EAEE"/>
</svg>
