<svg width="16" height="16" viewBox="0 0 16 16" fill="none" xmlns="http://www.w3.org/2000/svg">
<path fill-rule="evenodd" clip-rule="evenodd" d="M14.1734 4.99049L15.719 6.61743C15.8976 6.80539 16 7.06612 16 7.33155V13.7895C16 14.3466 15.5693 14.8 15.04 14.8H0.96C0.430719 14.8 0 14.3466 0 13.7895V7.33155C0 7.06612 0.102406 6.80539 0.280969 6.61743L1.82656 4.99049C2.00769 4.79984 2.24897 4.69474 2.50497 4.69474H5.12V3.68421C5.12 2.7552 5.83809 2 6.72 2H9.28C10.1619 2 10.88 2.7552 10.88 3.68421V4.69474H13.495C13.751 4.69474 13.9923 4.79984 14.1734 4.99049ZM6.72 2.67368C6.19072 2.67368 5.76 3.12707 5.76 3.68421V4.69474H10.24V3.68421C10.24 3.12707 9.80928 2.67368 9.28 2.67368H6.72ZM15.36 13.7895C15.36 13.9747 15.2166 14.1263 15.04 14.1263H0.96C0.783375 14.1263 0.64 13.9747 0.64 13.7895V10.0842H3.84V11.0947C3.84 11.2807 3.98338 11.4316 4.16 11.4316H5.44C5.61663 11.4316 5.76 11.2807 5.76 11.0947V10.0842H10.24V11.0947C10.24 11.2807 10.3834 11.4316 10.56 11.4316H11.84C12.0166 11.4316 12.16 11.2807 12.16 11.0947V10.0842H15.36V13.7895ZM4.48 8.73684V10.7579H5.12V8.73684H4.48ZM10.88 10.7579V8.73684H11.52V10.7579H10.88ZM12.16 9.41053H15.3599V7.33155C15.3599 7.24263 15.326 7.15572 15.2665 7.09375L13.7209 5.46681C13.6614 5.40484 13.5788 5.36845 13.495 5.36845H10.56H5.43997H2.50494C2.42112 5.36845 2.33856 5.40484 2.27903 5.46681L0.733437 7.09375C0.673906 7.15572 0.64 7.24263 0.64 7.33155V9.41053H3.84V8.4C3.84 8.21408 3.98338 8.06316 4.16 8.06316H5.44C5.61663 8.06316 5.76 8.21408 5.76 8.4V9.41053H10.24V8.4C10.24 8.21408 10.3834 8.06316 10.56 8.06316H11.84C12.0166 8.06316 12.16 8.21408 12.16 8.4V9.41053Z" fill="white"/>
</svg>
