<svg width="16" height="12" viewBox="0 0 16 12" fill="none" xmlns="http://www.w3.org/2000/svg">
<path fill-rule="evenodd" clip-rule="evenodd" d="M6.39154 3.97372C6.39154 4.90902 5.63325 5.66742 4.69784 5.66742C3.76295 5.66619 3.00538 4.90861 3.00415 3.97372C3.00415 3.03832 3.76244 2.28003 4.69784 2.28003C5.63325 2.28003 6.39154 3.03832 6.39154 3.97372ZM5.73634 3.977C5.73634 3.40339 5.27135 2.93851 4.69784 2.93851C4.12434 2.93871 3.65956 3.40349 3.65935 3.977C3.65935 4.5505 4.12424 5.01549 4.69784 5.01549C5.27135 5.01549 5.73634 4.5505 5.73634 3.977Z" fill="white"/>
<path fill-rule="evenodd" clip-rule="evenodd" d="M2.85671 7.06314C3.33972 6.56632 4.00485 6.28816 4.69783 6.29328C5.39091 6.28816 6.05593 6.56632 6.53894 7.06314C7.03034 7.56437 7.29897 8.24578 7.29897 8.98616C7.29846 9.16685 7.15206 9.31325 6.97137 9.31376H2.42428C2.24359 9.31325 2.09719 9.16685 2.09668 8.98616C2.09668 8.24578 2.36531 7.56437 2.85671 7.06314ZM3.32518 7.52178C3.02399 7.83157 2.83091 8.23022 2.77481 8.65856H6.62084C6.56412 8.23042 6.37105 7.83188 6.07047 7.52178C5.70796 7.15497 5.21359 6.94848 4.69783 6.94848C4.18206 6.94848 3.68769 7.15497 3.32518 7.52178Z" fill="white"/>
<path fill-rule="evenodd" clip-rule="evenodd" d="M1.638 0H14.0868C14.9913 0.0004095 15.7244 0.733518 15.7248 1.638V9.95905C15.7244 10.8635 14.9913 11.5966 14.0868 11.5971H1.638C0.733518 11.5966 0.0004095 10.8635 0 9.95905V1.638C0.0004095 0.733518 0.733518 0.0004095 1.638 0ZM14.0868 10.9419C14.6289 10.9403 15.0681 10.5011 15.0696 9.95905V1.638C15.0681 1.09593 14.6289 0.656736 14.0868 0.655201H1.638C1.09593 0.656736 0.656736 1.09593 0.655201 1.638V9.95905C0.656736 10.5011 1.09593 10.9403 1.638 10.9419H14.0868Z" fill="white"/>
<path d="M13.2809 5.47095H9.46432C9.28342 5.47095 9.13672 5.61755 9.13672 5.79855C9.13672 5.97955 9.28342 6.12615 9.46432 6.12615H13.2809C13.4618 6.12615 13.6085 5.97955 13.6085 5.79855C13.6085 5.61755 13.4618 5.47095 13.2809 5.47095Z" fill="white"/>
<path d="M13.2809 7.56763H9.46432C9.28342 7.56763 9.13672 7.71423 9.13672 7.89523C9.13672 8.07623 9.28342 8.22283 9.46432 8.22283H13.2809C13.4618 8.22283 13.6085 8.07623 13.6085 7.89523C13.6085 7.71423 13.4618 7.56763 13.2809 7.56763Z" fill="white"/>
<path d="M13.2809 3.37427H9.46432C9.28342 3.37427 9.13672 3.52087 9.13672 3.70187C9.13672 3.88287 9.28342 4.02947 9.46432 4.02947H13.2809C13.4618 4.02947 13.6085 3.88287 13.6085 3.70187C13.6085 3.52087 13.4618 3.37427 13.2809 3.37427Z" fill="white"/>
</svg>
