<svg width="28" height="28" viewBox="0 0 28 28" fill="none" xmlns="http://www.w3.org/2000/svg">
<rect width="28" height="28" rx="6" fill="#F4F6F9"/>
<path fill-rule="evenodd" clip-rule="evenodd" d="M20.1737 11.7778L21.643 12.1385C21.8526 12.19 22 12.3779 22 12.5938V15.4062C22 15.6221 21.8526 15.81 21.643 15.8615L20.1737 16.2222C20.1043 16.4125 20.0243 16.6031 19.9343 16.7923L20.6996 18.0678C20.8102 18.2522 20.7812 18.4883 20.6291 18.6404L18.6403 20.6292C18.4882 20.7813 18.2521 20.8103 18.0677 20.6997L16.7923 19.9344C16.603 20.0244 16.4125 20.1044 16.2221 20.1738L15.8615 21.643C15.8099 21.8522 15.6207 22 15.4062 22H12.5938C12.3843 22 12.1913 21.8571 12.1385 21.643L11.7779 20.1738C11.5875 20.1044 11.397 20.0244 11.2077 19.9344L9.93228 20.6997C9.74784 20.8103 9.51175 20.7812 9.35966 20.6292L7.37091 18.6404C7.21881 18.4883 7.18975 18.2522 7.30041 18.0678L8.06566 16.7923C7.97566 16.6031 7.89569 16.4125 7.82628 16.2222L6.357 15.8615C6.14741 15.81 6 15.6221 6 15.4062V12.5938C6 12.3779 6.14741 12.19 6.357 12.1385L7.82628 11.7778C7.89569 11.5875 7.97566 11.3969 8.06566 11.2077L7.30041 9.93222C7.18975 9.74778 7.21881 9.51169 7.37091 9.35959L9.35966 7.37084C9.51175 7.21875 9.74787 7.18969 9.93228 7.30034L11.2077 8.06562C11.397 7.97562 11.5875 7.89562 11.7779 7.82622L12.1385 6.357C12.19 6.14741 12.3779 6 12.5938 6H15.4062C15.6221 6 15.81 6.14741 15.8615 6.357L16.2221 7.82622C16.4125 7.89562 16.603 7.97562 16.7923 8.06562L18.0677 7.30034C18.2522 7.18969 18.4883 7.21875 18.6403 7.37084L20.6291 9.35959C20.7812 9.51169 20.8102 9.74778 20.6996 9.93222L19.9343 11.2077C20.0243 11.3969 20.1043 11.5875 20.1737 11.7778ZM13.74 15.3275L12.3338 14.39C12.2033 14.3031 12.125 14.1567 12.125 14V11.3067C11.2532 11.9115 10.7188 12.9066 10.7188 14C10.7188 15.8093 12.1908 17.2812 14 17.2812C15.8093 17.2812 17.2813 15.8093 17.2813 14C17.2813 12.9066 16.7469 11.9115 15.875 11.3067V14C15.875 14.1567 15.7967 14.3031 15.6663 14.39L14.26 15.3275C14.1026 15.4325 13.8975 15.4325 13.74 15.3275ZM14 18.2188C14.3221 18.2188 14.6359 18.1823 14.9375 18.1136V21.0625H13.0625V18.1136C13.3641 18.1823 13.6779 18.2188 14 18.2188ZM19.701 15.3728L21.0625 15.0387V12.9613L19.701 12.6271C19.542 12.5881 19.4149 12.469 19.3657 12.3128C19.2706 12.0114 19.1425 11.7056 18.9848 11.4042C18.9091 11.2595 18.9143 11.0858 18.9983 10.9458L19.7074 9.76372L18.2363 8.29256L17.0543 9.00178C16.9142 9.08581 16.7405 9.09084 16.5958 9.01519C16.2944 8.8575 15.9886 8.72938 15.6872 8.63431C15.531 8.58509 15.4119 8.458 15.3728 8.299L15.0387 6.9375H12.9614L12.6271 8.29906C12.5881 8.45803 12.4689 8.58516 12.3128 8.63438C12.0113 8.72944 11.7056 8.85756 11.4041 9.01525C11.2595 9.09091 11.0858 9.08591 10.9457 9.00184L9.76369 8.29262L8.29253 9.76378L9.00172 10.9458C9.08575 11.0858 9.09084 11.2595 9.01516 11.4042C8.8575 11.7057 8.72934 12.0114 8.63428 12.3129C8.58506 12.469 8.45797 12.5882 8.299 12.6272L6.9375 12.9614V15.0387L8.29906 15.3729C8.458 15.4119 8.58512 15.531 8.63434 15.6872C8.72941 15.9886 8.85753 16.2944 9.01522 16.5958C9.09091 16.7405 9.08578 16.9142 9.00178 17.0542L8.29259 18.2363L9.76375 19.7074L10.9458 18.9982C11.0858 18.9142 11.2595 18.9092 11.4042 18.9848C11.6432 19.1098 11.8849 19.2159 12.125 19.302V17.7784C10.7371 17.0869 9.78125 15.6531 9.78125 14C9.78125 13.1448 10.0369 12.3205 10.5207 11.6164C10.9925 10.9296 11.6484 10.4015 12.4175 10.0893C12.562 10.0306 12.7262 10.0476 12.8556 10.1347C12.985 10.2219 13.0626 10.3676 13.0626 10.5236V13.7491L14.0001 14.3741L14.9376 13.7491V10.5236C14.9376 10.3676 15.0151 10.2218 15.1445 10.1347C15.2739 10.0476 15.4382 10.0306 15.5827 10.0893C16.3517 10.4015 17.0076 10.9296 17.4794 11.6164C17.9631 12.3205 18.2188 13.1447 18.2188 14C18.2188 15.653 17.263 17.0868 15.8751 17.7784V19.302C16.1152 19.2159 16.3568 19.1098 16.5959 18.9848C16.7405 18.9091 16.9142 18.9142 17.0543 18.9982L18.2363 19.7074L19.7075 18.2362L18.9983 17.0542C18.9143 16.9142 18.9092 16.7405 18.9848 16.5958C19.1425 16.2943 19.2707 15.9886 19.3657 15.6871C19.4149 15.531 19.542 15.4119 19.701 15.3728Z" fill="#0B152A"/>
</svg>
