<svg width="33" height="40" viewBox="0 0 33 40" fill="none" xmlns="http://www.w3.org/2000/svg">
<path fill-rule="evenodd" clip-rule="evenodd" d="M32.3186 32.8652L29.7892 28.6323V17.9605C29.7892 10.8026 23.7268 5 16.2486 5C8.77031 5 2.70798 10.8026 2.70798 17.9605V27.1988L0.109534 33.0026C-0.069796 33.403 -0.0269537 33.8628 0.223566 34.2266C0.474086 34.5903 0.898763 34.8092 1.35392 34.8093H9.61368C10.2544 37.8295 13.0288 40 16.2486 40C19.4684 40 22.2427 37.8295 22.8835 34.8093H31.1432C31.6275 34.8102 32.0754 34.5635 32.3179 34.1623C32.5604 33.7612 32.5607 33.2666 32.3186 32.8652ZM16.2486 37.4014C14.5333 37.3946 13.0073 36.3572 12.4355 34.8092H20.0616C19.4899 36.3572 17.9639 37.3946 16.2486 37.4014ZM5.30358 27.9766L3.4079 32.2173H28.8074L27.257 29.6252C27.1386 29.428 27.077 29.2045 27.0782 28.9771V17.9607C27.0782 12.2343 22.2284 7.59223 16.2457 7.59223C10.2631 7.59223 5.41326 12.2343 5.41326 17.9607V27.4582C5.41456 27.6364 5.37721 27.8129 5.30358 27.9766Z" fill="black"/>
<path d="M14.1667 3H18.8333C19.4777 3 20 2.32843 20 1.5C20 0.671573 19.4777 0 18.8333 0H14.1667C13.5223 0 13 0.671573 13 1.5C13 2.32843 13.5223 3 14.1667 3Z" fill="black"/>
</svg>
