<svg width="16" height="16" viewBox="0 0 16 16" fill="none" xmlns="http://www.w3.org/2000/svg">
<path fill-rule="evenodd" clip-rule="evenodd" d="M1.83337 16H14.1666C15.178 16 16 15.178 16 14.1666V3.16663C16 2.15527 15.178 1.33337 14.1666 1.33337H1.83337C0.822021 1.33337 0 2.15527 0 3.16663V14.1666C0 15.178 0.822021 16 1.83337 16ZM1 3.16663C1 2.70728 1.37402 2.33337 1.83337 2.33337H14.1666C14.626 2.33337 15 2.70728 15 3.16663V14.1666C15 14.626 14.626 15 14.1666 15H1.83337C1.37402 15 1 14.626 1 14.1666V3.16663Z" fill="#C0C0CC"/>
<path d="M15.5 6.33337H0.5C0.223999 6.33337 0 6.10938 0 5.83337C0 5.55737 0.223999 5.33337 0.5 5.33337H15.5C15.776 5.33337 16 5.55737 16 5.83337C16 6.10938 15.776 6.33337 15.5 6.33337Z" fill="#C0C0CC"/>
<path d="M3.83337 4C3.55737 4 3.33337 3.776 3.33337 3.5V0.5C3.33337 0.223999 3.55737 0 3.83337 0C4.10938 0 4.33337 0.223999 4.33337 0.5V3.5C4.33337 3.776 4.10938 4 3.83337 4Z" fill="#C0C0CC"/>
<path d="M12.1666 4C11.8906 4 11.6666 3.776 11.6666 3.5V0.5C11.6666 0.223999 11.8906 0 12.1666 0C12.4426 0 12.6666 0.223999 12.6666 0.5V3.5C12.6666 3.776 12.4426 4 12.1666 4Z" fill="#C0C0CC"/>
</svg>
