<svg width="32" height="32" viewBox="0 0 32 32" fill="none" xmlns="http://www.w3.org/2000/svg">
<circle cx="16" cy="16" r="16" fill="#F4F6F9"/>
<path fill-rule="evenodd" clip-rule="evenodd" d="M8 16C8 11.5889 11.5889 8 16 8C20.4111 8 24 11.5889 24 16C24 20.4111 20.4111 24 16 24C11.5889 24 8 20.4111 8 16ZM8.69565 16C8.69565 20.0278 11.9722 23.3043 16 23.3043C20.0278 23.3043 23.3043 20.0278 23.3043 16C23.3043 11.9722 20.0278 8.69565 16 8.69565C11.9722 8.69565 8.69565 11.9722 8.69565 16Z" fill="black"/>
<path fill-rule="evenodd" clip-rule="evenodd" d="M13.2173 13.5652C13.7926 13.5652 14.2608 14.0334 14.2608 14.6087C14.2608 15.184 13.7926 15.6522 13.2173 15.6522C12.642 15.6522 12.1738 15.184 12.1738 14.6087C12.1738 14.0334 12.642 13.5652 13.2173 13.5652ZM13.2173 14.2609C13.0257 14.2609 12.8695 14.4171 12.8695 14.6087C12.8695 14.8004 13.0257 14.9566 13.2173 14.9566C13.409 14.9566 13.5651 14.8004 13.5651 14.6087C13.5651 14.4171 13.409 14.2609 13.2173 14.2609Z" fill="black"/>
<path fill-rule="evenodd" clip-rule="evenodd" d="M17.7393 14.6087C17.7393 14.0334 18.2074 13.5652 18.7827 13.5652C19.358 13.5652 19.8262 14.0334 19.8262 14.6087C19.8262 15.184 19.358 15.6522 18.7827 15.6522C18.2074 15.6522 17.7393 15.184 17.7393 14.6087ZM18.4349 14.6087C18.4349 14.8004 18.5911 14.9566 18.7827 14.9566C18.9744 14.9566 19.1306 14.8004 19.1306 14.6087C19.1306 14.4171 18.9744 14.2609 18.7827 14.2609C18.5911 14.2609 18.4349 14.4171 18.4349 14.6087Z" fill="black"/>
<path d="M19.3622 17.8279C19.2189 17.6995 18.9987 17.712 18.8711 17.855C18.1455 18.6658 17.0992 19.1305 15.9997 19.1305C14.9006 19.1305 13.854 18.6658 13.1284 17.855C13.0001 17.712 12.7806 17.6995 12.6373 17.8279C12.494 17.9559 12.4822 18.1757 12.6102 18.319C13.4676 19.2769 14.7031 19.8261 15.9997 19.8261C17.2968 19.8261 18.5323 19.2765 19.3893 18.319C19.5173 18.1757 19.5051 17.9559 19.3622 17.8279Z" fill="black"/>
</svg>
