<svg width="16" height="16" viewBox="0 0 16 16" fill="none" xmlns="http://www.w3.org/2000/svg">
<path fill-rule="evenodd" clip-rule="evenodd" d="M8 16C3.58887 16 0 12.4111 0 8C0 3.58887 3.58887 0 8 0C12.4111 0 16 3.58887 16 8C16 12.4111 12.4111 16 8 16ZM8 1C4.14013 1 1 4.14013 1 8C1 11.8599 4.14013 15 8 15C11.8599 15 15 11.8599 15 8C15 4.14013 11.8599 1 8 1ZM11.8535 5.8535L6.8535 10.8535C6.75588 10.9511 6.62787 11 6.5 11C6.37213 11 6.24412 10.9511 6.1465 10.8535L4.1465 8.8535C3.95113 8.65825 3.95125 8.34188 4.1465 8.1465C4.34175 7.95113 4.65812 7.95113 4.8535 8.1465L6.5 9.793L11.1465 5.1465C11.3418 4.95113 11.6581 4.95125 11.8535 5.1465C12.0489 5.34175 12.0489 5.65812 11.8535 5.8535Z" fill="white"/>
</svg>
