<svg width="49" height="48" viewBox="0 0 49 48" fill="none" xmlns="http://www.w3.org/2000/svg">
<ellipse cx="24.5" cy="24" rx="24.5" ry="24" fill="#FFDEE2"/>
<path d="M35.0271 27.3124L24.0171 24.4923V13.4331C24.0171 13.1013 23.7877 12.8801 23.4436 12.8801C16.5624 12.8801 11 18.2991 11 24.8794C11 31.5149 16.5624 36.8786 23.4436 36.8786C29.0634 36.8786 33.9949 33.2291 35.4859 27.9759C35.5432 27.6442 35.3712 27.3677 35.0271 27.3124V27.3124Z" fill="#FF2A53"/>
<path d="M23.4437 35.7726C17.1932 35.7726 12.147 30.9065 12.147 24.8793C12.147 19.0732 16.9065 14.3177 22.8703 14.0413V24.9346C22.8703 25.2111 23.0423 25.4322 23.2717 25.4875L34.1671 28.2523C32.7335 32.676 28.3753 35.7726 23.4437 35.7726Z" fill="#FF2A53"/>
<path d="M26.0999 11C25.7446 11 25.5078 11.2212 25.5078 11.553V22.9992C25.5078 23.2757 25.6854 23.4969 25.9223 23.5522L37.7637 26.4829H37.9413C38.0597 26.4829 38.1189 26.4829 38.2373 26.4276C38.3557 26.3723 38.4742 26.2064 38.5334 26.0958C38.8294 25.0452 38.9478 24.0499 38.9478 22.9992C38.9478 16.3637 33.2047 11 26.0999 11Z" fill="#FF2A53"/>
<path d="M37.5273 25.2111L26.6924 22.5569V12.106C32.8499 12.3824 37.7641 17.1379 37.7641 22.9993C37.7641 23.7181 37.7049 24.4923 37.5273 25.2111Z" fill="#FF2A53"/>
</svg>
