<svg width="48" height="48" viewBox="0 0 48 48" fill="none" xmlns="http://www.w3.org/2000/svg">
<circle cx="24" cy="24" r="24" fill="#C4FCDC"/>
<path d="M24 12C17.3829 12 12 17.3829 12 24C12 30.6171 17.3829 36 24 36C30.6171 36 36 30.6171 36 24C36 17.3829 30.6171 12 24 12Z" fill="#1DC5A3"/>
<path d="M30.082 21.457L23.582 27.9569C23.387 28.1519 23.131 28.2501 22.875 28.2501C22.619 28.2501 22.363 28.1519 22.168 27.9569L18.9181 24.707C18.527 24.316 18.527 23.684 18.9181 23.293C19.309 22.9019 19.9409 22.9019 20.332 23.293L22.875 25.836L28.6681 20.0431C29.059 19.652 29.6909 19.652 30.082 20.0431C30.473 20.434 30.473 21.0659 30.082 21.457Z" fill="#FAFAFA"/>
</svg>
