<svg width="32" height="32" viewBox="0 0 32 32" fill="none" xmlns="http://www.w3.org/2000/svg">
<circle cx="16" cy="16" r="16" fill="#FFDEE2"/>
<path d="M22.446 17.8749L15.3681 15.9949V8.62206C15.3681 8.40087 15.2207 8.25342 14.9995 8.25342C10.5758 8.25342 7 11.8661 7 16.2529C7 20.6766 10.5758 24.2524 14.9995 24.2524C18.6122 24.2524 21.7825 21.8194 22.7409 18.3173C22.7778 18.0961 22.6672 17.9118 22.446 17.8749Z" fill="#FF2A53"/>
<path d="M14.9995 23.515C10.9813 23.515 7.7373 20.271 7.7373 16.2528C7.7373 12.3821 10.797 9.21179 14.6309 9.02747V16.2897C14.6309 16.474 14.7415 16.6214 14.8889 16.6583L21.8931 18.5015C20.9715 21.4506 18.1698 23.515 14.9995 23.515Z" fill="#FF2A53"/>
<path d="M16.7072 7C16.4788 7 16.3266 7.14746 16.3266 7.36864V14.9995C16.3266 15.1838 16.4408 15.3313 16.593 15.3681L24.2054 17.3219H24.3196C24.3957 17.3219 24.4337 17.3219 24.5099 17.2851C24.586 17.2482 24.6621 17.1376 24.7002 17.0639C24.8905 16.3635 24.9666 15.6999 24.9666 14.9995C24.9666 10.5758 21.2746 7 16.7072 7Z" fill="#FF2A53"/>
<path d="M24.0531 16.4741L17.0878 14.7046V7.7373C21.0462 7.92162 24.2054 11.0919 24.2054 14.9995C24.2054 15.4787 24.1673 15.9948 24.0531 16.4741Z" fill="#FF2A53"/>
</svg>
