<svg width="8" height="8" viewBox="0 0 8 8" fill="none" xmlns="http://www.w3.org/2000/svg">
<path fill-rule="evenodd" clip-rule="evenodd" d="M4.00005 0C1.79441 0 0 1.79447 0 4.00019C0.000218632 6.2057 1.79463 8 4.00005 8C6.20564 8 8 6.20568 8 4.00015C8 1.79447 6.20564 0 4.00005 0ZM4.00005 0.728757C4.77095 0.728757 5.48026 0.996988 6.04001 1.44481L1.44477 6.03989C0.997036 5.4802 0.728847 4.77095 0.728774 4.00017C0.728774 2.1963 2.19626 0.728757 4.00005 0.728757ZM1.96004 6.55519C2.51981 7.00301 3.22918 7.27124 4.00005 7.27124C5.80379 7.27124 7.27123 5.80384 7.27125 4.00015C7.27125 3.22924 7.00306 2.5199 6.55533 1.96014L1.96004 6.55519Z" fill="#FF2A53"/>
</svg>
