<svg width="32" height="32" viewBox="0 0 32 32" fill="none" xmlns="http://www.w3.org/2000/svg">
<circle cx="16" cy="16" r="16" fill="#E8EEFB"/>
<path d="M19.068 22.0625H8.9375V19.2339C9.80212 19.1466 10.6346 18.7083 11.3105 17.9773C11.6646 17.5945 12.1664 17.375 12.6875 17.375C13.2828 17.375 13.8297 17.6485 14.1879 18.1253L14.3285 18.3125H16.4808C17.0919 18.3125 17.6133 18.7044 17.8068 19.25H14.5625V20.1875H18.8267L21.3867 17.4981C21.6088 17.2647 21.9204 17.1463 22.2415 17.1734C22.4498 17.1908 22.6438 17.2681 22.8037 17.393L19.068 22.0625Z" fill="#0B409C" stroke="#0040A1" stroke-width="0.34"/>
<path d="M17.375 16.4375C18.9258 16.4375 20.1875 15.1758 20.1875 13.625C20.1875 12.0742 18.9258 10.8125 17.375 10.8125C15.8242 10.8125 14.5625 12.0742 14.5625 13.625C14.5625 15.1758 15.8242 16.4375 17.375 16.4375Z" fill="#0B409C"/>
<path d="M17.375 11.75C18.4088 11.75 19.25 12.5911 19.25 13.625C19.25 14.6588 18.4088 15.5 17.375 15.5C16.3411 15.5 15.5 14.6588 15.5 13.625C15.5 12.5911 16.3411 11.75 17.375 11.75Z" fill="#E5EAEE"/>
<path d="M21.125 11.75C22.1588 11.75 23 10.9088 23 9.875C23 8.84106 22.1588 8 21.125 8C20.0911 8 19.25 8.84106 19.25 9.875C19.25 10.9088 20.0911 11.75 21.125 11.75Z" fill="#0B409C"/>
<path d="M21.125 8.9375C21.642 8.9375 22.0625 9.35803 22.0625 9.875C22.0625 10.392 21.642 10.8125 21.125 10.8125C20.608 10.8125 20.1875 10.392 20.1875 9.875C20.1875 9.35803 20.608 8.9375 21.125 8.9375Z" fill="#E5EAEE"/>
<path fill-rule="evenodd" clip-rule="evenodd" d="M18.3125 8.40625C18.3125 9.18164 17.6816 9.8125 16.9062 9.8125C16.1309 9.8125 15.5 9.18164 15.5 8.40625C15.5 7.63086 16.1309 7 16.9062 7C17.6816 7 18.3125 7.63086 18.3125 8.40625ZM17.375 8.40625C17.375 8.14783 17.1647 7.9375 16.9062 7.9375C16.6477 7.9375 16.4375 8.14783 16.4375 8.40625C16.4375 8.66467 16.6477 8.875 16.9062 8.875C17.1647 8.875 17.375 8.66467 17.375 8.40625Z" fill="#0B409C"/>
<path d="M16.9062 12.6875H17.8438V14.5625H16.9062V12.6875Z" fill="#0B409C"/>
</svg>
