<svg width="80" height="80" viewBox="0 0 80 80" fill="none" xmlns="http://www.w3.org/2000/svg">
<g clip-path="url(#clip0)">
<path d="M72.4999 10H7.50005C3.36427 10 0 13.3643 0 17.5001V62.5C0 66.6358 3.36427 70.0001 7.50005 70.0001H72.4999C76.6357 70.0001 80 66.6358 80 62.5V17.5001C80 13.3643 76.6357 10 72.4999 10V10ZM72.4999 15C72.8396 15 73.1627 15.0705 73.4582 15.1935L40 44.1919L6.54167 15.1935C6.83708 15.0706 7.16022 15 7.49989 15H72.4999ZM72.4999 64.9999H7.50005C6.12068 64.9999 4.99998 63.8794 4.99998 62.4999V20.4761L38.3618 49.3896C38.833 49.7973 39.4165 50 40 50C40.5835 50 41.167 49.7974 41.6382 49.3896L75 20.4761V62.5C74.9999 63.8794 73.8793 64.9999 72.4999 64.9999V64.9999Z" fill="white"/>
</g>
<defs>
<clipPath id="clip0">
<rect width="80" height="80" fill="white"/>
</clipPath>
</defs>
</svg>
