<svg width="16" height="16" viewBox="0 0 16 16" fill="none" xmlns="http://www.w3.org/2000/svg">
<path d="M16 8V14.2439C16 15.2138 15.2138 16 14.2439 16H1.7561C0.786232 16 0 15.2138 0 14.2439V1.7561C0 0.786232 0.786232 0 1.7561 0H8C8.32329 0 8.58537 0.262077 8.58537 0.585366C8.58537 0.908654 8.32329 1.17073 8 1.17073H1.7561C1.43281 1.17073 1.17073 1.43281 1.17073 1.7561V14.2439C1.17073 14.5672 1.43281 14.8293 1.7561 14.8293H14.2439C14.5672 14.8293 14.8293 14.5672 14.8293 14.2439V8C14.8293 7.67671 15.0913 7.41463 15.4146 7.41463C15.7379 7.41463 16 7.67671 16 8Z" fill="#2281EE"/>
<path d="M16.0005 0.585366V4.38244C16.0005 4.70573 15.7384 4.9678 15.4151 4.9678C15.0918 4.9678 14.8297 4.70573 14.8297 4.38244V1.99805L8.41411 8.41366C8.18347 8.62857 7.82405 8.62223 7.60114 8.39931C7.37822 8.1764 7.37188 7.81698 7.58679 7.58634L14.0024 1.17073H11.618C11.2947 1.17073 11.0326 0.908654 11.0326 0.585366C11.0326 0.262077 11.2947 0 11.618 0H15.4151C15.4887 0.000592432 15.5615 0.0151594 15.6297 0.0429268C15.775 0.102381 15.8903 0.217674 15.9497 0.362927C15.9812 0.432995 15.9984 0.508597 16.0005 0.585366Z" fill="#2281EE"/>
</svg>
