<svg width="17" height="16" viewBox="0 0 17 16" fill="none" xmlns="http://www.w3.org/2000/svg">
<path fill-rule="evenodd" clip-rule="evenodd" d="M12.7802 5.17507C13.9275 6.23028 14.6337 7.27287 14.6632 7.31674C14.751 7.44724 14.751 7.61776 14.6632 7.74827C14.6337 7.79213 13.9275 8.83472 12.7802 9.88993C12.1009 10.5146 11.407 11.0137 10.7178 11.3733C9.83792 11.8323 8.96207 12.065 8.11451 12.065C7.26695 12.065 6.3911 11.8323 5.51124 11.3733C4.82202 11.0137 4.12811 10.5146 3.44884 9.88993C2.30153 8.83472 1.59535 7.79213 1.56585 7.74827C1.47805 7.61776 1.47805 7.44724 1.56585 7.31674C1.59538 7.27287 2.30153 6.23028 3.44886 5.17507C4.12814 4.55037 4.82202 4.05131 5.51127 3.69174C6.39112 3.23273 7.26698 3 8.11454 3C8.9621 3 9.83795 3.23273 10.7178 3.69174C11.407 4.05129 12.1009 4.55037 12.7802 5.17507ZM8.11456 11.291C9.76098 11.291 11.2683 10.2255 12.2429 9.33176C13.0274 8.61231 13.6036 7.88378 13.8647 7.53249C13.6037 7.18125 13.0274 6.45269 12.2429 5.73324C11.2683 4.83947 9.76095 3.77405 8.11454 3.77405C6.46812 3.77405 4.96077 4.83947 3.98619 5.73324C3.2017 6.45267 2.62543 7.1812 2.36439 7.53249C2.62538 7.88375 3.2017 8.61231 3.98621 9.33176C4.96079 10.2255 6.46815 11.291 8.11456 11.291Z" fill="#2281EE"/>
<path fill-rule="evenodd" clip-rule="evenodd" d="M6.06641 7.53252C6.06641 6.40478 6.98518 5.4873 8.11447 5.4873C9.24379 5.4873 10.1626 6.40478 10.1626 7.53252C10.1626 8.66026 9.24379 9.57773 8.11447 9.57773C6.98518 9.57773 6.06641 8.66026 6.06641 7.53252ZM6.84154 7.53249C6.84154 8.23342 7.41259 8.80366 8.11447 8.80366C8.81641 8.80366 9.38745 8.23342 9.38745 7.53249C9.38745 6.83157 8.81638 6.26133 8.11447 6.26133C7.41259 6.26133 6.84154 6.83157 6.84154 7.53249Z" fill="#2281EE"/>
</svg>
