<svg width="24" height="24" viewBox="0 0 24 24" fill="none" xmlns="http://www.w3.org/2000/svg">
<path fill-rule="evenodd" clip-rule="evenodd" d="M17.9784 7.41878C19.3711 8.80014 20.2283 10.165 20.2642 10.2224C20.3707 10.3933 20.3707 10.6165 20.2641 10.7873C20.2283 10.8447 19.3711 12.2096 17.9784 13.591C17.1538 14.4088 16.3116 15.0621 15.4749 15.5328C14.4069 16.1337 13.3437 16.4383 12.3148 16.4383C11.286 16.4383 10.2228 16.1337 9.1548 15.5328C8.31816 15.0621 7.47585 14.4088 6.65129 13.591C5.2586 12.2096 4.40139 10.8447 4.36558 10.7873C4.259 10.6165 4.259 10.3933 4.36558 10.2224C4.40142 10.165 5.2586 8.80014 6.65132 7.41878C7.47588 6.60098 8.31816 5.94767 9.15483 5.47696C10.2229 4.87608 11.286 4.57141 12.3149 4.57141C13.3437 4.57141 14.4069 4.87608 15.4749 5.47696C16.3116 5.94764 17.1539 6.60098 17.9784 7.41878ZM12.3149 15.425C14.3135 15.425 16.1432 14.0303 17.3262 12.8603C18.2784 11.9184 18.978 10.9647 19.2948 10.5049C18.978 10.0451 18.2784 9.0913 17.3262 8.14947C16.1432 6.97945 14.3134 5.58471 12.3149 5.58471C10.3163 5.58471 8.48659 6.97945 7.30357 8.14947C6.35129 9.09127 5.65178 10.045 5.33491 10.5049C5.65172 10.9647 6.35129 11.9184 7.3036 12.8603C8.48662 14.0303 10.3164 15.425 12.3149 15.425Z" fill="white"/>
<path fill-rule="evenodd" clip-rule="evenodd" d="M9.82886 10.5049C9.82886 9.02858 10.9441 7.82751 12.315 7.82751C13.6858 7.82751 14.8011 9.02858 14.8011 10.5049C14.8011 11.9812 13.6858 13.1823 12.315 13.1823C10.9441 13.1823 9.82886 11.9812 9.82886 10.5049ZM10.7698 10.5049C10.7698 11.4224 11.463 12.1689 12.315 12.1689C13.167 12.1689 13.8602 11.4224 13.8602 10.5049C13.8602 9.58728 13.167 8.84078 12.315 8.84078C11.463 8.84078 10.7698 9.58728 10.7698 10.5049Z" fill="white"/>
</svg>
