<svg width="24" height="24" viewBox="0 0 24 24" fill="none" xmlns="http://www.w3.org/2000/svg">
<rect width="24" height="24" rx="6" fill="#F5F6F9"/>
<path fill-rule="evenodd" clip-rule="evenodd" d="M6.71429 17.1429H17.2856C18.1525 17.1429 18.8571 16.4383 18.8571 15.5714V8.42864C18.8571 7.56177 18.1525 6.85718 17.2856 6.85718H6.71429C5.84741 6.85718 5.14282 7.56177 5.14282 8.42864V15.5714C5.14282 16.4383 5.84741 17.1429 6.71429 17.1429ZM5.99997 8.42864C5.99997 8.03491 6.32056 7.71432 6.71429 7.71432H17.2856C17.6794 7.71432 18 8.03491 18 8.42864V15.5714C18 15.9652 17.6794 16.2857 17.2856 16.2857H6.71429C6.32056 16.2857 5.99997 15.9652 5.99997 15.5714V8.42864Z" fill="#0B152A"/>
<path fill-rule="evenodd" clip-rule="evenodd" d="M6.85718 9.71443C6.85718 10.3447 7.36977 10.8572 8.00007 10.8572C8.63037 10.8572 9.14286 10.3447 9.14286 9.71443C9.14286 9.08412 8.63037 8.57153 8.00007 8.57153C7.36977 8.57153 6.85718 9.08412 6.85718 9.71443ZM7.71432 9.71443C7.71432 9.55664 7.84229 9.42868 8.00007 9.42868C8.15775 9.42868 8.28571 9.55664 8.28571 9.71443C8.28571 9.87211 8.15775 10.0001 8.00007 10.0001C7.84229 10.0001 7.71432 9.87211 7.71432 9.71443Z" fill="#0B152A"/>
<path d="M5.57129 15.9999C5.46153 15.9999 5.35188 15.9583 5.26838 15.8743C5.10097 15.7069 5.10097 15.4354 5.26838 15.2679L8.43412 12.1023C8.82502 11.7114 9.46097 11.7114 9.85125 12.1023L10.5713 12.8223L13.2913 10.1023C13.6821 9.71136 14.3182 9.71136 14.7085 10.1023L18.7313 14.1251C18.8988 14.2926 18.8988 14.564 18.7313 14.7314C18.5638 14.8988 18.2924 14.8988 18.125 14.7314L14.1021 10.7085C14.0461 10.6525 13.9524 10.6525 13.897 10.7085L10.8741 13.7314C10.7067 13.8988 10.4353 13.8988 10.2679 13.7314L9.24501 12.7085C9.1724 12.6359 9.11244 12.6359 9.03983 12.7085L5.8742 15.8743C5.7907 15.9583 5.68105 15.9999 5.57129 15.9999Z" fill="#0B152A"/>
</svg>
