<svg width="32" height="32" viewBox="0 0 32 32" fill="none" xmlns="http://www.w3.org/2000/svg">
<circle r="16" transform="matrix(-1 0 0 1 16 16)" fill="#E1F2FF"/>
<path d="M10.9808 16.4184L14.702 20.308C14.8082 20.419 14.9497 20.48 15.1007 20.48C15.2518 20.48 15.3933 20.419 15.4995 20.308L15.8374 19.9548C15.9435 19.8439 16.002 19.6959 16.002 19.538C16.002 19.3802 15.9435 19.2271 15.8374 19.1163L13.6665 16.8422H20.5635C20.8744 16.8422 21.1201 16.5878 21.1201 16.2627V15.7633C21.1201 15.4382 20.8744 15.1581 20.5635 15.1581H13.6419L15.8373 12.8713C15.9434 12.7603 16.0019 12.6163 16.0019 12.4584C16.0019 12.3007 15.9434 12.1545 15.8373 12.0436L15.4995 11.6915C15.3932 11.5805 15.2517 11.52 15.1006 11.52C14.9497 11.52 14.8081 11.5813 14.7019 11.6923L10.9807 15.5818C10.8743 15.6932 10.8157 15.8418 10.8161 15.9999C10.8158 16.1585 10.8743 16.3072 10.9808 16.4184Z" fill="#5C80C0"/>
</svg>
