<svg width="8" height="9" viewBox="0 0 8 9" fill="none" xmlns="http://www.w3.org/2000/svg">
<path d="M7.33804 3.39124L4.09028 0.143488C3.99765 0.0508537 3.87406 0 3.73965 0C3.60787 0 3.48435 0.0508537 3.39172 0.143488L0.14389 3.39124C-0.0479634 3.58317 -0.0479634 3.89554 0.14389 4.08732L0.438768 4.38234C0.531402 4.4749 0.654988 4.52583 0.786841 4.52583C0.918622 4.52583 1.04645 4.4749 1.13901 4.38234L3.03794 2.48751V8.50734C3.03794 8.77866 3.25043 9 3.52174 9H3.93882C4.21013 9 4.44413 8.77866 4.44413 8.50734V2.46615L6.35382 4.38234C6.44638 4.4749 6.56667 4.52583 6.69852 4.52583C6.83038 4.52583 6.95213 4.4749 7.04484 4.38234L7.33884 4.08732C7.53077 3.89546 7.53004 3.58317 7.33804 3.39124Z" fill="#00C9A1"/>
</svg>
