<svg width="32" height="32" viewBox="0 0 32 32" fill="none" xmlns="http://www.w3.org/2000/svg">
<circle cx="16" cy="16" r="16" fill="#DCF3FF"/>
<path d="M19.0135 14.9977H16.3478V8.33313L13.0155 16.997H15.6812V23.6616L19.0135 14.9977Z" fill="#2281EE"/>
<path fill-rule="evenodd" clip-rule="evenodd" d="M15.6206 23.9893C15.6411 23.993 15.6616 23.9947 15.6816 23.9947C15.817 23.9947 15.9423 23.9117 15.9924 23.7812L19.3247 15.1173C19.3642 15.0148 19.3503 14.8996 19.2883 14.8091C19.2261 14.7185 19.1233 14.6644 19.0136 14.6644H16.6811V8.33329C16.6811 8.17255 16.5665 8.03502 16.4087 8.00555C16.2501 7.97651 16.0944 8.06364 16.0367 8.2137L12.7044 16.8774C12.6651 16.9799 12.6788 17.0952 12.7409 17.1857C12.8031 17.2763 12.9059 17.3303 13.0156 17.3303H15.3482V23.6616C15.3482 23.8222 15.4627 23.9599 15.6206 23.9893ZM15.6814 16.6639H13.5008L16.0146 10.1278V14.9977C16.0146 15.1818 16.1637 15.331 16.3478 15.331H18.5284L16.0146 21.8669V16.997C16.0146 16.8131 15.8656 16.6639 15.6814 16.6639Z" fill="#2281EE"/>
</svg>
