<svg width="150" height="32" viewBox="0 0 150 32" fill="none" xmlns="http://www.w3.org/2000/svg">
<path fill-rule="evenodd" clip-rule="evenodd" d="M23.6269 15.7202V14.5239V11.5586V10.6063C23.6269 9.52434 23.186 8.54486 22.4735 7.83594C21.7609 7.12702 20.7764 6.68835 19.6892 6.68835C17.5146 6.68835 15.7512 8.44271 15.7512 10.6063V11.5586V14.5239V14.9062C16.83 15.0042 17.8937 15.1326 18.9464 15.2607C20.5354 15.4541 22.0837 15.6407 23.6269 15.7202Z" fill="#2281EE"/>
<path fill-rule="evenodd" clip-rule="evenodd" d="M7.87025 6.17826C7.81264 4.06464 6.07632 2.36792 3.93802 2.36792C1.76303 2.36792 0 4.12196 0 6.28553V9.99886C1.26 9.71324 2.5023 9.32868 3.73366 8.77987C5.18193 8.13403 6.55618 7.2679 7.87025 6.17826Z" fill="#2281EE"/>
<path fill-rule="evenodd" clip-rule="evenodd" d="M31.5024 17.3597V17.4353C31.5024 19.5985 29.739 21.3529 27.5647 21.3529C26.1666 21.3529 24.9394 20.6283 24.2407 19.5361C24.0097 19.1749 23.8452 18.7705 23.7428 18.3421C21.7725 18.2877 19.8682 18.0581 17.9977 17.8307C17.2369 17.7385 16.4863 17.6479 15.7416 17.5695C15.7168 18.2905 15.5031 18.9646 15.1375 19.5361C14.4385 20.6283 13.2113 21.3529 11.8136 21.3529C9.73899 21.3529 8.04289 19.7554 7.89066 17.7305C5.37742 18.2627 2.99742 19.3738 0.602295 21.1461C1.11756 22.6872 1.94404 24.0867 3.00933 25.2705C4.31793 26.7261 5.98666 27.8545 7.87554 28.5192C9.10754 28.9528 10.4325 29.1881 11.8136 29.1881C13.1946 29.1881 14.5196 28.9528 15.7513 28.5192C17.2188 28.0034 18.5525 27.2064 19.689 26.1946C20.8257 27.2064 22.1594 28.0034 23.627 28.5192C24.8583 28.9528 26.1837 29.1881 27.5647 29.1881C28.9457 29.1881 30.2707 28.9528 31.5024 28.5192C33.3916 27.8545 35.0603 26.7261 36.3689 25.2705C38.2404 23.1908 39.3781 20.4451 39.3781 17.4353V13.1837C38.234 14.0595 37.0857 14.8177 35.9164 15.4674C34.4636 16.2749 33.0047 16.898 31.5024 17.3597Z" fill="#2281EE"/>
<path fill-rule="evenodd" clip-rule="evenodd" d="M35.4404 2.36804C33.2657 2.36804 31.5027 4.12208 31.5027 6.28565V6.35065V14.7011C34.153 13.745 36.7538 12.0982 39.3781 9.71752V6.28565C39.3781 4.12208 37.6151 2.36804 35.4404 2.36804Z" fill="#2281EE"/>
<path fill-rule="evenodd" clip-rule="evenodd" d="M7.54608 15.2228C7.65647 15.1994 7.7659 15.1809 7.87565 15.1594V9.34558C6.83289 10.0459 5.74893 10.6491 4.60319 11.1601C3.05578 11.8498 1.52061 12.3177 0.000244141 12.6567V17.4354C0.000244141 17.7524 0.0156924 18.0661 0.040474 18.3771C0.406405 18.1411 0.773302 17.9125 1.14309 17.6995C3.22153 16.5033 5.31606 15.6928 7.54608 15.2228Z" fill="#2281EE"/>
<path fill-rule="evenodd" clip-rule="evenodd" d="M139.576 20.434C138.407 20.4023 137.32 19.9562 136.567 19.0466C136.042 18.4107 135.714 17.6278 135.542 16.8222C135.234 15.3742 135.443 13.7844 136.293 12.5699C137.659 10.619 140.469 10.2264 142.35 11.6772C143.813 12.8066 144.446 14.7886 144.15 16.5762C143.78 18.8106 141.873 20.4961 139.576 20.434ZM147.671 0.0233345C147.015 -0.00612363 146.355 -0.0109266 145.699 0.0278173C144.582 0.0934577 144.128 0.578556 144.11 1.71301C144.092 2.96755 144.104 4.22272 144.104 5.47757C144.104 6.69784 144.104 7.91811 144.104 9.1973C143.356 8.58284 142.774 7.9687 142.072 7.55309C139.452 6.00173 135.659 6.46922 133.232 8.57484C130.073 11.3157 129.223 16.412 131.288 20.2425C133.915 25.1181 139.849 26.0134 143.873 22.1432C143.901 22.1163 143.964 22.1259 144.067 22.1086C144.08 22.254 144.096 22.3933 144.104 22.5325C144.18 23.7733 144.646 24.6503 145.924 24.6571C146.456 24.6603 146.987 24.6603 147.518 24.6574C148.811 24.6503 149.306 23.723 149.309 22.4423C149.316 19.8573 149.312 17.272 149.312 14.6868C149.312 10.3699 149.315 6.05264 149.308 1.73575C149.307 0.582399 148.824 0.0755266 147.671 0.0233345Z" fill="white"/>
<path fill-rule="evenodd" clip-rule="evenodd" d="M115.15 13.6044C115.363 11.8215 117.134 10.6083 119.5 10.6076C121.848 10.607 123.443 11.7395 123.665 13.6044H115.15ZM124.436 7.88724C122.16 6.61638 119.698 6.34069 117.168 6.89367C113.54 7.68744 111.092 9.83852 110.217 13.451C109.339 17.0769 110.261 20.2561 113.326 22.5676C116.129 24.6829 119.379 25.0069 122.707 24.248C124.004 23.9522 125.236 23.2762 126.419 22.6307C127.236 22.1847 127.432 21.4457 127.048 20.7678C126.14 19.1639 125.401 18.7275 123.84 19.5872C123.752 19.6359 123.667 19.6923 123.575 19.7329C121.216 20.7784 118.874 20.8818 116.623 19.4822C115.575 18.8303 114.937 17.8723 114.924 16.4714H115.877C119.317 16.4717 122.758 16.4727 126.199 16.4711C126.578 16.4708 126.958 16.4704 127.336 16.4416C128.201 16.3753 128.653 15.9299 128.621 15.092C128.504 11.9656 127.246 9.45748 124.436 7.88724Z" fill="white"/>
<path fill-rule="evenodd" clip-rule="evenodd" d="M93.2594 6.93397C92.6015 6.93077 91.943 6.94742 91.2859 6.93045C90.3316 6.90579 89.6979 7.33422 89.3577 8.20932C89.1125 8.84043 88.8669 9.47121 88.6239 10.1033C87.6993 12.5076 86.7756 14.9123 85.7892 17.4797C85.597 17.0429 85.4583 16.7602 85.3466 16.4672C84.3113 13.7474 83.2836 11.0248 82.2473 8.30538C81.8544 7.2753 81.3574 6.94166 80.2442 6.93429C79.6118 6.93013 78.979 6.93237 78.3463 6.93365C76.7007 6.93685 76.2486 7.62944 76.9212 9.11195C78.923 13.5243 80.9333 17.9321 82.9065 22.3569C83.0555 22.6915 83.0616 23.1901 82.9274 23.532C82.1109 25.6101 81.221 27.6597 80.3829 29.7298C79.9088 30.9007 80.3797 31.5747 81.6567 31.6157C82.0359 31.6279 82.4182 31.5914 82.7948 31.6237C84.1185 31.7384 84.8845 31.1425 85.4052 29.934C87.6195 24.7939 89.8984 19.6817 92.1526 14.5585C92.9713 12.6975 93.8026 10.842 94.5995 8.97171C95.1766 7.61791 94.7157 6.94102 93.2594 6.93397Z" fill="white"/>
<path fill-rule="evenodd" clip-rule="evenodd" d="M107.379 6.61345C106.009 6.45944 104.804 6.86769 103.862 7.82764C103.294 8.4056 102.898 9.14942 102.367 9.90124C102.367 9.42767 102.384 8.98067 102.364 8.53528C102.316 7.48471 101.791 6.98008 100.744 6.96311C100.264 6.95543 99.783 6.96055 99.3025 6.96119C97.6666 6.96247 97.2456 7.37712 97.245 9.00853C97.2427 13.3744 97.2437 18.2654 97.2453 22.6313C97.2453 22.8567 97.2411 23.0847 97.2723 23.3069C97.3962 24.19 97.8951 24.6335 98.7969 24.6572C99.353 24.6719 99.9098 24.6623 100.466 24.6614C102.069 24.6594 102.482 24.2499 102.491 22.6588C102.502 20.6515 102.447 18.1162 102.539 16.1127C102.69 12.8099 104.061 11.5397 107.277 11.5804C107.917 11.5884 108.315 11.2931 108.337 10.662C108.372 9.63612 108.365 8.60764 108.339 7.58109C108.324 6.99449 107.969 6.67974 107.379 6.61345Z" fill="white"/>
<path fill-rule="evenodd" clip-rule="evenodd" d="M74.2085 8.66519H74.2114C74.2111 8.6463 74.2085 8.63125 74.2085 8.61268V8.56881H74.2059C74.1782 7.48719 73.7277 7.00337 72.6872 6.95278C72.0763 6.92332 71.4616 6.91852 70.8514 6.95726C69.8357 7.0213 69.4115 7.49039 69.3774 8.56881H69.3738V8.62325C69.3735 8.62997 69.3725 8.63541 69.3725 8.64214L69.3754 10.9053C69.3803 12.8812 69.3848 14.8572 69.3603 16.8325C69.3404 18.3761 68.9204 19.2423 67.9555 19.7286C67.0405 20.1916 66.057 20.2176 65.261 19.8004C64.4613 19.3828 63.9238 18.5596 63.7854 17.543C63.7326 17.1546 63.7046 16.7306 63.7033 16.2833C63.6985 14.6881 63.6995 13.0922 63.6995 11.4973L63.6979 8.56881H63.6902C63.6625 7.48719 63.21 7.00337 62.1653 6.95278C61.5519 6.92332 60.9342 6.91852 60.3218 6.95726C59.2771 7.0229 58.8526 7.50832 58.8368 8.64214H58.8449L58.8468 10.8982C58.8513 12.9562 58.8552 15.0147 58.8281 17.0716C58.8108 18.4379 58.3441 19.2913 57.3596 19.7571C56.4285 20.1984 55.4398 20.2 54.6484 19.7607C53.8596 19.3239 53.3427 18.4946 53.2304 17.4847C53.1827 17.0704 53.176 16.6464 53.175 16.2868C53.1728 14.7409 53.1728 13.1947 53.1728 11.6488L53.1715 8.56881H53.1644C53.1364 7.48719 52.6829 7.00337 51.6353 6.95278C51.0203 6.92332 50.4011 6.91852 49.7867 6.95726C48.7639 7.0213 48.3368 7.49039 48.3024 8.56881H48.2956L48.2947 10.7843C48.2924 12.7013 48.2911 14.6193 48.304 16.5369C48.3101 17.3765 48.3664 18.0963 48.4755 18.738C48.8823 21.1032 50.041 22.7987 51.9189 23.7763C52.9784 24.3263 54.2593 24.627 55.5656 24.627C57.6817 24.627 59.8641 23.8384 61.2696 22.0465C63.4288 24.1618 64.9366 24.74 67.661 24.5819C70.5582 24.415 72.8664 22.7138 73.6845 20.1427C73.9916 19.1785 74.1638 18.1603 74.1828 17.1972C74.2285 14.9894 74.2207 12.7458 74.213 10.5761L74.2085 8.66519Z" fill="white"/>
</svg>
