<svg width="17" height="16" viewBox="0 0 17 16" fill="none" xmlns="http://www.w3.org/2000/svg">
<path d="M8.49137 5.49546e-05C8.27891 0.00214576 8.076 0.0890262 7.92738 0.24154C7.77876 0.394055 7.69663 0.599678 7.69911 0.813074V7.24351C7.69923 7.68767 8.05775 8.04768 8.49996 8.04768C8.94218 8.04768 9.3007 7.68767 9.30082 7.24351V0.813074C9.30334 0.596682 9.21887 0.388415 9.06651 0.235393C8.91416 0.0823707 8.70681 -0.00247394 8.49137 5.49546e-05Z" fill="#0B152A"/>
<path d="M13.159 1.61215C13.1329 1.6114 13.1069 1.61192 13.0809 1.61372C12.7573 1.64131 12.4825 1.86252 12.3852 2.17365C12.2879 2.48477 12.3874 2.82412 12.6371 3.03258C14.023 4.21469 14.8998 5.97416 14.8998 7.94994C14.8998 11.5175 12.0477 14.3929 8.50387 14.3929C4.96003 14.3929 2.1017 11.5175 2.10171 7.94994C2.10172 5.98559 2.96737 4.2381 4.33942 3.05614C4.55689 2.86969 4.6588 2.58088 4.60677 2.2985C4.55475 2.01612 4.35668 1.78307 4.08718 1.68714C3.81769 1.59121 3.51771 1.64699 3.30026 1.83345C1.58751 3.30891 0.500008 5.50813 0.5 7.94994C0.499993 12.3846 4.09381 16.0001 8.50388 16.0001C12.9139 16.0001 16.5 12.3846 16.4999 7.94994C16.4999 5.49389 15.4017 3.28563 13.6716 1.80992C13.5293 1.68535 13.3477 1.61531 13.159 1.61218L13.159 1.61215Z" fill="#0B152A"/>
</svg>
