<svg width="80" height="80" viewBox="0 0 80 80" fill="none" xmlns="http://www.w3.org/2000/svg">
<path d="M52.3397 0C37.4305 0 25.3008 12.1297 25.3008 27.0389C25.3008 30.3534 25.8897 33.5744 27.0525 36.6331L1.19877 62.4888C0.829238 62.8584 0.621582 63.3595 0.621582 63.882V78.0295C0.621582 79.1178 1.50377 80 2.59205 80H14.2508C14.7728 80 15.2735 79.793 15.643 79.4241L19.5719 75.5011C19.9422 75.1314 20.1502 74.6297 20.1502 74.1066V69.2822H24.9685C26.0567 69.2822 26.9389 68.4 26.9389 67.3117V65.3805H28.8703C29.9585 65.3805 30.8408 64.4983 30.8408 63.41V59.17H35.0808C35.6033 59.17 36.1044 58.9623 36.4741 58.5928L42.743 52.3239C45.8022 53.4878 49.0236 54.0775 52.3394 54.0775C67.2486 54.0775 79.3783 41.9478 79.3783 27.0386C79.3785 12.1297 67.2489 0 52.3397 0ZM52.3397 50.1366C49.1144 50.1366 45.995 49.4852 43.068 48.2002C42.3111 47.868 41.4588 48.0508 40.9006 48.5947C40.8946 48.6005 40.8886 48.6052 40.8827 48.6112L34.2649 55.2291H28.8706C27.7824 55.2291 26.9002 56.1112 26.9002 57.1995V61.4395H24.9688C23.8806 61.4395 22.9983 62.3217 22.9983 63.41V65.3412H18.1799C17.0917 65.3412 16.2094 66.2234 16.2094 67.3117V73.2894L13.4355 76.0589H4.56283V73.2744L28.6474 49.19C29.34 48.4973 29.34 47.3745 28.6474 46.682C27.9547 45.9895 26.8322 45.9892 26.1391 46.682L4.56283 68.2584V64.6984L30.7653 38.4941C30.7713 38.4881 30.7758 38.4827 30.7813 38.4769C31.3253 37.9192 31.5088 37.0669 31.1766 36.3094C29.8928 33.3825 29.2422 30.2633 29.2422 27.0391C29.2422 14.3028 39.6039 3.94109 52.3402 3.94109C65.0764 3.94109 75.4378 14.3027 75.4378 27.0391C75.4375 39.775 65.0756 50.1366 52.3397 50.1366Z" fill="white"/>
<path d="M60.5685 11.4287C56.4987 11.4287 53.1877 14.7396 53.1877 18.8095C53.1877 22.8793 56.4987 26.1903 60.5685 26.1903C64.6384 26.1903 67.9493 22.8793 67.9493 18.8095C67.9493 14.7396 64.6385 11.4287 60.5685 11.4287ZM60.5685 22.2493C58.6718 22.2493 57.1287 20.7062 57.1287 18.8095C57.1287 16.9128 58.6718 15.3696 60.5685 15.3696C62.4652 15.3696 64.0084 16.9128 64.0084 18.8095C64.0084 20.7062 62.4652 22.2493 60.5685 22.2493Z" fill="white"/>
</svg>
