<svg width="28" height="28" viewBox="0 0 28 28" fill="none" xmlns="http://www.w3.org/2000/svg">
<rect width="28" height="28" rx="6" fill="#FFDCDC"/>
<path d="M8.37988 5.67993V21.3199H20.6199V10.2394L15.9223 5.67993H8.37988ZM9.05988 6.35993H15.5199V10.7799H19.9399V20.6399H9.05988V6.35993ZM16.1999 6.89649L19.5003 10.0999H16.1999V6.89649ZM14.0815 11.7574C13.8265 11.7574 13.5622 11.9022 13.4467 12.1174C13.3298 12.3312 13.3218 12.5609 13.3511 12.8C13.3962 13.1772 13.5675 13.6035 13.7893 14.0405C13.6791 14.4124 13.626 14.7364 13.46 15.1335C13.2488 15.6395 12.9898 16.0406 12.7414 16.4616C12.4174 16.6131 12.0083 16.7485 11.7693 16.9052C11.501 17.0819 11.2885 17.2399 11.1636 17.4909C11.1025 17.6158 11.0707 17.7938 11.1318 17.9545C11.1929 18.1152 11.3204 18.2201 11.4518 18.2878C11.7307 18.4352 12.0521 18.3436 12.2846 18.1869C12.517 18.0302 12.7242 17.8004 12.9327 17.5202C13.0376 17.3781 13.1213 17.1483 13.2249 16.9823C13.5582 16.8349 13.7946 16.6821 14.1732 16.552C14.6845 16.3753 15.14 16.3009 15.6182 16.1974C16.0179 16.467 16.4429 16.6768 16.9078 16.6768C17.1707 16.6768 17.3739 16.6649 17.5718 16.5573C17.7711 16.4497 17.8906 16.1907 17.8906 15.9928C17.8906 15.8321 17.8202 15.6608 17.7086 15.5506C17.5957 15.4403 17.4629 15.3819 17.3261 15.3447C17.0552 15.2716 16.7471 15.277 16.3925 15.3128C16.2052 15.3327 15.9542 15.4324 15.7457 15.4709C15.7178 15.4496 15.6912 15.4403 15.6633 15.4164C15.2396 15.0512 14.8425 14.5465 14.5477 14.0445C14.5304 14.0139 14.5331 13.9927 14.5158 13.9621C14.5875 13.6938 14.7283 13.3817 14.7602 13.1466C14.804 12.8213 14.8133 12.537 14.735 12.2767C14.6951 12.1466 14.6287 12.0151 14.5132 11.9141C14.3976 11.8132 14.2343 11.7574 14.0815 11.7574ZM14.0536 12.4348C14.0576 12.4348 14.0643 12.4374 14.0696 12.4388C14.0709 12.4414 14.0736 12.4401 14.0842 12.4733C14.1028 12.5357 14.0921 12.7124 14.0855 12.8691C14.0775 12.8292 14.0311 12.7549 14.0271 12.719C14.0071 12.5609 14.0324 12.46 14.043 12.4427C14.0457 12.4361 14.0496 12.4348 14.0536 12.4348ZM14.2595 14.8201C14.4693 15.1216 14.7018 15.4031 14.9621 15.6621C14.6141 15.7551 14.302 15.7883 13.9514 15.9091C13.877 15.9344 13.8345 15.9702 13.7614 15.9968C13.865 15.7803 13.9939 15.6196 14.0868 15.3965C14.1718 15.1933 14.1864 15.022 14.2595 14.8201Z" fill="#CC4B4C"/>
<g clip-path="url(#clip0)">
<path d="M11.2083 6.9834C11.0473 6.9834 10.9166 7.11407 10.9166 7.27507V9.6084H9.89576C9.85708 9.6084 9.81999 9.62376 9.79264 9.65111C9.76529 9.67846 9.74992 9.71555 9.74992 9.75423C9.74993 9.79291 9.7653 9.83 9.79265 9.85734C9.79556 9.86032 9.7986 9.86317 9.80176 9.86588L11.2909 11.2701L11.3005 11.2792C11.3545 11.33 11.4258 11.3583 11.4999 11.3584C11.574 11.3583 11.6453 11.33 11.6993 11.2792L11.7033 11.2758C11.7042 11.2747 11.7052 11.2735 11.7061 11.2724L13.1947 9.86873C13.1976 9.86619 13.2005 9.86353 13.2032 9.86076L13.2055 9.85905C13.2061 9.85848 13.2066 9.85791 13.2072 9.85734C13.2345 9.83 13.2499 9.79291 13.2499 9.75423C13.2499 9.71555 13.2346 9.67846 13.2072 9.65111C13.1799 9.62376 13.1428 9.6084 13.1041 9.6084H12.0833V7.27507C12.0833 7.11407 11.9526 6.9834 11.7916 6.9834H11.4999H11.2083ZM8.87492 12.2334C8.83627 12.2329 8.7979 12.24 8.76203 12.2544C8.72617 12.2688 8.69353 12.2902 8.666 12.3174C8.63848 12.3445 8.61662 12.3768 8.6017 12.4125C8.58678 12.4481 8.5791 12.4864 8.5791 12.5251C8.5791 12.5637 8.58678 12.602 8.6017 12.6376C8.61662 12.6733 8.63848 12.7056 8.666 12.7328C8.69353 12.7599 8.72617 12.7813 8.76203 12.7957C8.7979 12.8101 8.83627 12.8173 8.87492 12.8167H14.1249C14.1636 12.8173 14.2019 12.8101 14.2378 12.7957C14.2737 12.7813 14.3063 12.7599 14.3338 12.7328C14.3614 12.7056 14.3832 12.6733 14.3981 12.6376C14.4131 12.602 14.4207 12.5637 14.4207 12.5251C14.4207 12.4864 14.4131 12.4481 14.3981 12.4125C14.3832 12.3768 14.3614 12.3445 14.3338 12.3174C14.3063 12.2902 14.2737 12.2688 14.2378 12.2544C14.2019 12.24 14.1636 12.2329 14.1249 12.2334H8.87492Z" fill="#CC4B4C"/>
</g>
<defs>
<clipPath id="clip0">
<rect width="7" height="7" fill="white" transform="translate(8 5)"/>
</clipPath>
</defs>
</svg>
