<svg width="32" height="32" viewBox="0 0 32 32" fill="none" xmlns="http://www.w3.org/2000/svg">
<circle cx="16" cy="16" r="16" fill="#FFDEE2"/>
<path d="M16.0003 6.85712C10.9508 6.85712 6.85742 10.9505 6.85742 16C6.85742 21.0494 10.9508 25.1428 16.0003 25.1428C21.0497 25.1428 25.1431 21.0494 25.1431 16C25.1374 10.9529 21.0474 6.86283 16.0003 6.85712Z" fill="#FF2A53"/>
<path d="M18.4378 12.3428C19.1111 12.3428 19.6568 12.8886 19.6568 13.5619C19.6568 14.2351 19.1111 14.7809 18.4378 14.7809C17.7645 14.7809 17.2188 14.2351 17.2188 13.5619C17.2188 12.8886 17.7645 12.3428 18.4378 12.3428Z" fill="#FF2A53"/>
<path d="M13.5618 12.3428C14.2351 12.3428 14.7809 12.8886 14.7809 13.5619C14.7809 14.2351 14.2351 14.7809 13.5618 14.7809C12.8886 14.7809 12.3428 14.2351 12.3428 13.5619C12.3428 12.8886 12.8886 12.3428 13.5618 12.3428Z" fill="white"/>
<path d="M19.6819 20.6702C19.5749 20.7915 19.4241 20.8653 19.2627 20.8753C19.1013 20.8854 18.9425 20.8309 18.8213 20.7238C17.2088 19.3023 14.7907 19.3023 13.1783 20.7238C12.9258 20.9466 12.5405 20.9226 12.3177 20.6702C12.0948 20.4177 12.1188 20.0324 12.3713 19.8095C14.4447 17.9809 17.5549 17.9809 19.6283 19.8095C19.7496 19.9165 19.8234 20.0673 19.8334 20.2287C19.8435 20.3901 19.789 20.5489 19.6819 20.6702Z" fill="#FF2A53"/>
<path d="M18.4378 12.3428C19.1111 12.3428 19.6568 12.8886 19.6568 13.5619C19.6568 14.2351 19.1111 14.7809 18.4378 14.7809C17.7645 14.7809 17.2188 14.2351 17.2188 13.5619C17.2188 12.8886 17.7645 12.3428 18.4378 12.3428Z" fill="white"/>
<path d="M19.6819 20.6702C19.5749 20.7915 19.4241 20.8653 19.2627 20.8753C19.1013 20.8854 18.9425 20.8309 18.8213 20.7238C17.2088 19.3023 14.7907 19.3023 13.1783 20.7238C12.9258 20.9466 12.5405 20.9226 12.3177 20.6702C12.0948 20.4177 12.1188 20.0324 12.3713 19.8095C14.4447 17.9809 17.5549 17.9809 19.6283 19.8095C19.7496 19.9165 19.8234 20.0673 19.8334 20.2287C19.8435 20.3901 19.789 20.5489 19.6819 20.6702Z" fill="white"/>
</svg>
