<svg width="14" height="14" viewBox="0 0 14 14" fill="none" xmlns="http://www.w3.org/2000/svg">
<path d="M13.0375 6.32876H7.6712V0.962421C7.6712 0.592201 7.37026 0.29126 7.00004 0.29126C6.62982 0.29126 6.32888 0.592201 6.32888 0.962421V6.32876H0.962543C0.592323 6.32876 0.291382 6.6297 0.291382 6.99992C0.291382 7.37014 0.592323 7.67108 0.962543 7.67108H6.32888V13.0374C6.32888 13.4076 6.62982 13.7086 7.00004 13.7086C7.37026 13.7086 7.6712 13.4076 7.6712 13.0374V7.67108H13.0375C13.4078 7.67108 13.7087 7.37014 13.7087 6.99992C13.7087 6.6297 13.4078 6.32876 13.0375 6.32876Z" fill="#2281EE"/>
</svg>
