<svg width="24" height="24" viewBox="0 0 24 24" fill="none" xmlns="http://www.w3.org/2000/svg">
<circle r="12" transform="matrix(-1 0 0 1 12 12)" fill="#E1F2FF"/>
<path d="M7.66905 16.8C7.47943 16.8 7.30846 16.6858 7.2359 16.5107C7.16333 16.3355 7.20345 16.1338 7.33755 15.9998L16 7.33726C16.1831 7.15418 16.48 7.15418 16.663 7.33726C16.8461 7.52035 16.8461 7.81718 16.663 8.00026L8.00055 16.6628C7.9127 16.7508 7.7934 16.8002 7.66905 16.8Z" fill="#2281EE"/>
<path d="M16.3315 16.8C16.2071 16.8002 16.0879 16.7508 16 16.6628L7.33751 8.00026C7.15442 7.81718 7.15442 7.52035 7.33751 7.33726C7.52059 7.15418 7.81742 7.15418 8.00051 7.33726L16.663 15.9998C16.7971 16.1338 16.8372 16.3355 16.7647 16.5107C16.6921 16.6858 16.5211 16.8 16.3315 16.8Z" fill="#2281EE"/>
</svg>
