<svg width="16" height="16" viewBox="0 0 16 16" fill="none" xmlns="http://www.w3.org/2000/svg">
<path fill-rule="evenodd" clip-rule="evenodd" d="M1.08578 7.5H4.41422C5.01294 7.5 5.5 7.01294 5.5 6.41422V3.08578C5.5 2.48706 5.01294 2 4.41422 2H1.08578C0.487062 2 0 2.48706 0 3.08578V6.41422C0 7.01294 0.487062 7.5 1.08578 7.5ZM1 3.08578C1 3.03847 1.03847 3 1.08578 3H4.41422C4.46153 3 4.5 3.03847 4.5 3.08578V6.41422C4.5 6.46153 4.46153 6.5 4.41422 6.5H1.08578C1.03847 6.5 1 6.46153 1 6.41422V3.08578Z" fill="white"/>
<path fill-rule="evenodd" clip-rule="evenodd" d="M1.08578 14.75H4.41422C5.01294 14.75 5.5 14.2629 5.5 13.6642V10.3358C5.5 9.73706 5.01294 9.25 4.41422 9.25H1.08578C0.487062 9.25 0 9.73706 0 10.3358V13.6642C0 14.2629 0.487062 14.75 1.08578 14.75ZM1 10.3358C1 10.2885 1.03847 10.25 1.08578 10.25H4.41422C4.46153 10.25 4.5 10.2885 4.5 10.3358V13.6642C4.5 13.7115 4.46153 13.75 4.41422 13.75H1.08578C1.03847 13.75 1 13.7115 1 13.6642V10.3358Z" fill="white"/>
<path d="M15.5 4.5H7.5C7.22387 4.5 7 4.27613 7 4C7 3.72387 7.22387 3.5 7.5 3.5H15.5C15.7761 3.5 16 3.72387 16 4C16 4.27613 15.7761 4.5 15.5 4.5Z" fill="white"/>
<path d="M12.75 6.375H7.5C7.22387 6.375 7 6.15113 7 5.875C7 5.59887 7.22387 5.375 7.5 5.375H12.75C13.0261 5.375 13.25 5.59887 13.25 5.875C13.25 6.15113 13.0261 6.375 12.75 6.375Z" fill="white"/>
<path d="M15.5 11.625H7.5C7.22387 11.625 7 11.4011 7 11.125C7 10.8489 7.22387 10.625 7.5 10.625H15.5C15.7761 10.625 16 10.8489 16 11.125C16 11.4011 15.7761 11.625 15.5 11.625Z" fill="white"/>
<path d="M12.75 13.625H7.5C7.22387 13.625 7 13.4011 7 13.125C7 12.8489 7.22387 12.625 7.5 12.625H12.75C13.0261 12.625 13.25 12.8489 13.25 13.125C13.25 13.4011 13.0261 13.625 12.75 13.625Z" fill="white"/>
</svg>
