<svg width="32" height="33" viewBox="0 0 32 33" fill="none" xmlns="http://www.w3.org/2000/svg">
<circle cx="16" cy="16.5" r="16" fill="#C4FCDC"/>
<path d="M19.0601 17.0218H8.54394C8.24368 17.0218 8 16.7782 8 16.4779C8 16.1776 8.24368 15.934 8.54394 15.934H19.0601C19.3603 15.934 19.604 16.1776 19.604 16.4779C19.604 16.7782 19.3603 17.0218 19.0601 17.0218Z" fill="#1DC5A3"/>
<path d="M16.1592 19.9228C16.0199 19.9228 15.8807 19.8699 15.7747 19.7633C15.5622 19.5508 15.5622 19.2063 15.7747 18.9937L18.2914 16.4772L15.7747 13.9605C15.5622 13.7481 15.5622 13.4035 15.7747 13.191C15.9873 12.9785 16.3318 12.9785 16.5443 13.191L19.4453 16.0921C19.6577 16.3046 19.6577 16.649 19.4453 16.8615L16.5443 19.7625C16.4376 19.8699 16.2985 19.9228 16.1592 19.9228Z" fill="#1DC5A3"/>
<path d="M16.703 24.4557C13.4023 24.4557 10.4883 22.47 9.27788 19.3962C9.16766 19.1177 9.30537 18.8015 9.58464 18.6913C9.86312 18.5826 10.1801 18.7181 10.2903 18.9989C11.3355 21.6526 13.8528 23.3678 16.703 23.3678C20.5018 23.3678 23.593 20.2767 23.593 16.4778C23.593 12.679 20.5018 9.58788 16.703 9.58788C13.8528 9.58788 11.3355 11.3031 10.2903 13.9568C10.1793 14.2375 9.86312 14.3731 9.58464 14.2644C9.30537 14.1541 9.16766 13.838 9.27788 13.5595C10.4883 10.4857 13.4023 8.5 16.703 8.5C21.1017 8.5 24.6809 12.0792 24.6809 16.4778C24.6809 20.8765 21.1017 24.4557 16.703 24.4557Z" fill="#1DC5A3"/>
</svg>
