<svg width="32" height="33" viewBox="0 0 32 33" fill="none" xmlns="http://www.w3.org/2000/svg">
<circle cx="16" cy="16.5" r="16" fill="#FFF9C2"/>
<path fill-rule="evenodd" clip-rule="evenodd" d="M7 16.4872C7 11.5237 11.0237 7.5 15.9872 7.5C20.9483 7.50585 24.9686 11.5261 24.9745 16.4872C24.9745 21.4507 20.9507 25.4745 15.9872 25.4745C11.0237 25.4745 7 21.4507 7 16.4872ZM8.63404 16.4872C8.63404 20.5483 11.9262 23.8404 15.9872 23.8404C20.0464 23.8359 23.3359 20.5464 23.3404 16.4872C23.3404 12.4262 20.0483 9.13404 15.9872 9.13404C11.9262 9.13404 8.63404 12.4262 8.63404 16.4872Z" fill="#FEC731"/>
<path d="M15.9872 10.7681C15.536 10.7681 15.1702 11.1339 15.1702 11.5851V18.1213C15.1702 18.5725 15.536 18.9383 15.9872 18.9383C16.4384 18.9383 16.8042 18.5725 16.8042 18.1213V11.5851C16.8042 11.1339 16.4384 10.7681 15.9872 10.7681Z" fill="#FEC731"/>
<circle cx="15.9872" cy="20.5724" r="0.817021" fill="#FEC731"/>
</svg>
