<svg width="48" height="48" viewBox="0 0 48 48" fill="none" xmlns="http://www.w3.org/2000/svg">
<circle cx="24" cy="24" r="24" fill="#DCF3FF"/>
<path d="M28.5202 22.4966H24.5216V12.4998L19.5232 25.4956H23.5218V35.4924L28.5202 22.4966Z" fill="#2281EE"/>
<path fill-rule="evenodd" clip-rule="evenodd" d="M23.4308 35.984C23.4616 35.9895 23.4923 35.9921 23.5224 35.9921C23.7255 35.9921 23.9134 35.8676 23.9886 35.6718L28.987 22.676C29.0462 22.5222 29.0255 22.3494 28.9324 22.2136C28.8391 22.0778 28.6849 21.9967 28.5204 21.9967H25.0216V12.4999C25.0216 12.2588 24.8497 12.0525 24.613 12.0083C24.3751 11.9648 24.1415 12.0955 24.055 12.3205L19.0566 25.3161C18.9977 25.4699 19.0182 25.6429 19.1113 25.7785C19.2046 25.9145 19.3588 25.9954 19.5234 25.9954H23.0223V35.4924C23.0223 35.7333 23.194 35.9398 23.4308 35.984ZM23.522 24.9958H20.2512L24.0219 15.1918V22.4966C24.0219 22.7727 24.2455 22.9965 24.5216 22.9965H27.7926L24.0219 32.8003V25.4955C24.0219 25.2196 23.7983 24.9958 23.522 24.9958Z" fill="#2281EE"/>
</svg>
