<svg width="28" height="24" viewBox="0 0 28 24" fill="none" xmlns="http://www.w3.org/2000/svg">
<rect width="28" height="24" rx="4" fill="#F4F6F9"/>
<path fill-rule="evenodd" clip-rule="evenodd" d="M20.4623 6.88232H7.49611C6.67111 6.88232 6 7.45756 6 8.16471V15.859C6 16.5661 6.67111 17.1413 7.49611 17.1413H20.4623C21.2873 17.1413 21.9584 16.5661 21.9584 15.859V8.16471C21.9584 7.45756 21.2873 6.88232 20.4623 6.88232ZM20.4623 7.73724C20.5301 7.73724 20.5945 7.74929 20.6535 7.77033L13.9792 12.7286L7.30494 7.77033C7.36387 7.74932 7.42832 7.73724 7.49608 7.73724H20.4623ZM6.9974 15.8589C6.9974 16.0948 7.22096 16.2864 7.49611 16.2864H20.4623C20.7375 16.2864 20.961 16.0948 20.961 15.859V8.67356L14.306 13.6173C14.212 13.687 14.0956 13.7217 13.9792 13.7217C13.8628 13.7217 13.7464 13.687 13.6524 13.6173L6.9974 8.67356V15.8589Z" fill="#0B152A"/>
</svg>
