<svg width="25" height="24" viewBox="0 0 25 24" fill="none" xmlns="http://www.w3.org/2000/svg">
<rect x="0.5" width="24" height="24" rx="4" fill="#F4F6F9"/>
<path d="M15.7184 6.51611V15.6228H9.83966V6.51611H15.7184Z" fill="#F4F6F9"/>
<circle cx="12.7869" cy="17.1978" r="0.483403" fill="#E1F2FF"/>
<path fill-rule="evenodd" clip-rule="evenodd" d="M16.9815 6.12629V17.7903C16.9902 18.2983 16.5854 18.7172 16.0774 18.7259C16.0669 18.7261 16.0564 18.7261 16.0459 18.7259H9.44984C8.99372 18.7432 8.60995 18.3875 8.59264 17.9314C8.59204 17.9155 8.59189 17.8997 8.59219 17.8838V6.12629C8.5921 5.65005 8.97367 5.26156 9.44984 5.25305H16.1239C16.6001 5.26156 16.9816 5.65005 16.9815 6.12629ZM15.734 15.6384V6.51612H9.83968V15.6384H15.734ZM12.7713 16.6987C13.0469 16.6987 13.2703 16.9221 13.2703 17.1977L13.2703 17.1982C13.2615 17.4651 13.0381 17.6743 12.7713 17.6655C12.7607 17.6659 12.7501 17.6659 12.7396 17.6655C12.4899 17.6568 12.2947 17.4474 12.3035 17.1977L12.3035 17.1972C12.295 16.9304 12.5044 16.7072 12.7713 16.6987Z" fill="white"/>
<path fill-rule="evenodd" clip-rule="evenodd" d="M9.43424 19.0377H16.0615C16.7505 19.0377 17.309 18.4792 17.309 17.7903V6.12627C17.3006 5.47527 16.7749 4.94955 16.1239 4.94116H9.44985C8.79882 4.94955 8.27313 5.47527 8.26471 6.12627V17.8838C8.27325 18.5236 8.79438 19.0378 9.43424 19.0377ZM8.88848 6.12627C8.88848 5.81625 9.13982 5.56491 9.44985 5.56491H16.1239C16.4339 5.56491 16.6853 5.81625 16.6853 6.12627V17.7902C16.6855 17.8008 16.6855 17.8113 16.6853 17.8219C16.6766 18.1576 16.3973 18.4227 16.0615 18.414H9.43427C9.13881 18.4141 8.89693 18.1791 8.88848 17.8838V6.12627Z" fill="#0B152A"/>
<path fill-rule="evenodd" clip-rule="evenodd" d="M9.83966 15.9502H15.734C15.9063 15.9502 16.0459 15.8106 16.0459 15.6383V6.53167C16.0465 6.52099 16.0465 6.5103 16.0459 6.49962C16.037 6.33624 15.8974 6.21094 15.734 6.2198H9.83966C9.82897 6.21924 9.81829 6.21924 9.8076 6.2198C9.64422 6.22867 9.51892 6.36829 9.52779 6.53167V15.6383C9.52779 15.8106 9.66741 15.9502 9.83966 15.9502ZM15.4222 15.3264H10.1515V6.84355H15.4222V15.3264Z" fill="#0B152A"/>
<path fill-rule="evenodd" clip-rule="evenodd" d="M11.9456 17.2138C11.9627 17.6613 12.3394 18.0101 12.7869 17.993C13.22 17.9845 13.5666 17.6309 13.5665 17.1977C13.5668 17.1823 13.5667 17.167 13.5661 17.1516C13.5489 16.7042 13.1723 16.3553 12.7248 16.3724C12.2773 16.3896 11.9284 16.7663 11.9456 17.2138ZM12.6146 17.1814C12.615 17.0866 12.6921 17.0102 12.7869 17.0106C12.8804 17.0106 12.9428 17.0886 12.9428 17.1977C12.9434 17.2031 12.9436 17.2086 12.9436 17.2141C12.9432 17.3002 12.873 17.3696 12.7869 17.3692C12.776 17.3704 12.7649 17.3704 12.754 17.3692C12.6683 17.3601 12.6062 17.2833 12.6153 17.1977C12.6148 17.1923 12.6146 17.1868 12.6146 17.1814Z" fill="#0B152A"/>
</svg>
